{
.appVersion = "1286";
copyright = "Copyright © 2020 Project Wêlai";
customParameters = (
{
name = Axes;
value = (
{
Name = Weight;
Tag = wght;
}
);
},
{
name = license;
value = "This Font Software is licensed under the SIL Open Font License, Version 1.1. This Font Software is distributed on an \"AS IS\" BASIS, WITHOUT WARRANTIES OR CONDITIONS OF ANY KIND, either express or implied. See the SIL Open Font License for the specific language, permissions and limitations governing your use of this Font Software.";
}
);
date = "2020-06-26 02:19:30 +0000";
designer = "M+ FONTS PROJECT";
designerURL = "http://mplus-fonts.osdn.jp/";
familyName = "M+ Type 1 Variable Kana";
featurePrefixes = (
{
automatic = 1;
code = "languagesystem DFLT dflt;\012";
name = Languagesystems;
}
);
features = (
{
automatic = 1;
code = "feature hwid;\012feature vert;\012feature vkna;\012feature vrt2;\012";
name = aalt;
},
{
automatic = 1;

glyphs = (
{
glyphname = "a-hira";
lastChange = "2020-06-28 11:55:53 +0000";
layers = (
{
layerId = "53C12EC5-7AF6-4A76-BF07-F72C20CC49D7";
paths = (
{
closed = 1;
nodes = (
"480 40 LINE",
"480 580 LINE",
"880 580 LINE",
"880 730 LINE",
"480 730 LINE",
"480 830 LINE",
"310 830 LINE",
"310 730 LINE",
"120 730 LINE",
"120 580 LINE",
"310 580 LINE",
"310 40 LINE"
);
},
{
closed = 1;
nodes = (
"817 -34 OFFCURVE",
"930 85 OFFCURVE",
"930 240 CURVE SMOOTH",
"930 419 OFFCURVE",
"799 530 OFFCURVE",
"560 530 CURVE SMOOTH",
"253 530 OFFCURVE",
"70 393 OFFCURVE",
"70 190 CURVE SMOOTH",
"70 62 OFFCURVE",
"158 -20 OFFCURVE",
"290 -20 CURVE SMOOTH",
"491 -20 OFFCURVE",
"673 137 OFFCURVE",
"760 410 CURVE",
"600 460 LINE",
"539 269 OFFCURVE",
"413 140 OFFCURVE",
"310 140 CURVE SMOOTH",
"274 140 OFFCURVE",
"250 166 OFFCURVE",
"250 210 CURVE SMOOTH",
"250 297 OFFCURVE",
"373 370 OFFCURVE",
"560 370 CURVE SMOOTH",
"695 370 OFFCURVE",
"750 328 OFFCURVE",
"750 240 CURVE SMOOTH",
"750 176 OFFCURVE",
"683 113 OFFCURVE",
"590 90 CURVE",
"640 -70 LINE"
);
}
);
vertWidth = 1000;
width = 1000;
},
{
layerId = "14B87609-B57D-449B-8E42-0E3479D6265D";
paths = (
{
closed = 1;
nodes = (
"390 70 LINE",
"390 660 LINE",
"860 660 LINE",
"860 680 LINE",
"390 680 LINE",
"390 820 LINE",
"370 820 LINE",
"370 680 LINE",
"140 680 LINE",
"140 660 LINE",
"370 660 LINE",
"370 70 LINE"
);
},
{
closed = 1;
nodes = (
"782 2 OFFCURVE",
"890 107 OFFCURVE",
"890 250 CURVE SMOOTH",
"890 410 OFFCURVE",
"759 510 OFFCURVE",
"550 510 CURVE SMOOTH",
"299 510 OFFCURVE",
"110 368 OFFCURVE",
"110 180 CURVE SMOOTH",
"110 79 OFFCURVE",
"161 20 OFFCURVE",
"250 20 CURVE SMOOTH",
"440 20 OFFCURVE",
"624 258 OFFCURVE",
"690 477 CURVE",
"670 483 LINE",
"590 219 OFFCURVE",
"401 40 OFFCURVE",
"250 40 CURVE SMOOTH",
"173 40 OFFCURVE",
"130 91 OFFCURVE",
"130 180 CURVE SMOOTH",
"130 357 OFFCURVE",
"311 490 OFFCURVE",
"550 490 CURVE SMOOTH",
"747 490 OFFCURVE",
"870 398 OFFCURVE",
"870 250 CURVE SMOOTH",
"870 115 OFFCURVE",
"771 19 OFFCURVE",
"598 -10 CURVE",
"602 -30 LINE"
);
}
);
vertWidth = 1000;
width = 1000;
}
);
note = uni3042;
unicode = 3042;
},
{
glyphname = "asmall-hira";
lastChange = "2020-06-28 11:55:53 +0000";
layers = (
{
layerId = "53C12EC5-7AF6-4A76-BF07-F72C20CC49D7";
paths = (
{
closed = 1;
nodes = (
"494 28 LINE",
"494 460 LINE",
"804 460 LINE",
"804 590 LINE",
"494 590 LINE",
"494 660 LINE",
"348 660 LINE",
"348 590 LINE",
"196 590 LINE",
"196 460 LINE",
"348 460 LINE",
"348 28 LINE"
);
},
{
closed = 1;
nodes = (
"755 -31 OFFCURVE",
"844 64 OFFCURVE",
"844 188 CURVE SMOOTH",
"844 340 OFFCURVE",
"740 430 OFFCURVE",
"548 430 CURVE SMOOTH",
"301 430 OFFCURVE",
"156 319 OFFCURVE",
"156 148 CURVE SMOOTH",
"156 45 OFFCURVE",
"227 -20 OFFCURVE",
"332 -20 CURVE SMOOTH",
"492 -20 OFFCURVE",
"637 104 OFFCURVE",
"708 324 CURVE",
"580 374 LINE",
"532 221 OFFCURVE",
"429 118 OFFCURVE",
"348 118 CURVE SMOOTH",
"323 118 OFFCURVE",
"310 133 OFFCURVE",
"310 164 CURVE SMOOTH",
"310 233 OFFCURVE",
"408 292 OFFCURVE",
"548 292 CURVE SMOOTH",
"643 292 OFFCURVE",
"690 257 OFFCURVE",
"690 188 CURVE SMOOTH",
"690 137 OFFCURVE",
"647 95 OFFCURVE",
"572 78 CURVE",
"612 -60 LINE"
);
}
);
vertWidth = 1000;
width = 1000;
},
{
layerId = "14B87609-B57D-449B-8E42-0E3479D6265D";
paths = (
{
closed = 1;
nodes = (
"414 52 LINE",
"414 522 LINE",
"788 522 LINE",
"788 542 LINE",
"414 542 LINE",
"414 652 LINE",
"394 652 LINE",
"394 542 LINE",
"212 542 LINE",
"212 522 LINE",
"394 522 LINE",
"394 52 LINE"
);
},
{
closed = 1;
nodes = (
"727 -3 OFFCURVE",
"814 80 OFFCURVE",
"814 196 CURVE SMOOTH",
"814 325 OFFCURVE",
"709 406 OFFCURVE",
"540 406 CURVE SMOOTH",
"337 406 OFFCURVE",
"186 292 OFFCURVE",
"186 140 CURVE SMOOTH",
"186 57 OFFCURVE",
"228 10 OFFCURVE",
"300 10 CURVE SMOOTH",
"427 10 OFFCURVE",
"589 158 OFFCURVE",
"654 377 CURVE",
"634 383 LINE",
"570 172 OFFCURVE",
"419 30 OFFCURVE",
"300 30 CURVE SMOOTH",
"239 30 OFFCURVE",
"206 69 OFFCURVE",
"206 140 CURVE SMOOTH",
"206 280 OFFCURVE",
"349 386 OFFCURVE",
"540 386 CURVE SMOOTH",
"697 386 OFFCURVE",
"794 313 OFFCURVE",
"794 196 CURVE SMOOTH",
"794 89 OFFCURVE",
"715 14 OFFCURVE",
"578 -10 CURVE",
"582 -30 LINE"
);
}
);
vertWidth = 1000;
width = 1000;
}
);
note = uni3041;
unicode = 3041;
},
{
glyphname = "i-hira";
lastChange = "2020-06-28 11:55:53 +0000";
layers = (
{
layerId = "53C12EC5-7AF6-4A76-BF07-F72C20CC49D7";
paths = (
{
closed = 1;
nodes = (
"448 -40 OFFCURVE",
"572 80 OFFCURVE",
"640 280 CURVE",
"480 340 LINE",
"452 267 OFFCURVE",
"394 150 OFFCURVE",
"355 150 CURVE SMOOTH",
"312 150 OFFCURVE",
"280 291 OFFCURVE",
"280 370 CURVE SMOOTH",
"280 466 OFFCURVE",
"301 611 OFFCURVE",
"330 710 CURVE",
"145 730 LINE",
"108 619 OFFCURVE",
"90 499 OFFCURVE",
"90 370 CURVE SMOOTH",
"90 141 OFFCURVE",
"217 -40 OFFCURVE",
"340 -40 CURVE SMOOTH"
);
},
{
closed = 1;
nodes = (
"930 70 LINE",
"930 322 OFFCURVE",
"885 545 OFFCURVE",
"795 740 CURVE",
"620 690 LINE",
"700 497 OFFCURVE",
"740 290 OFFCURVE",
"740 70 CURVE"
);
}
);
vertWidth = 1000;
width = 1000;
},
{
layerId = "14B87609-B57D-449B-8E42-0E3479D6265D";
paths = (
{
closed = 1;
nodes = (
"387 0 OFFCURVE",
"485 110 OFFCURVE",
"549 287 CURVE",
"531 293 LINE",
"491 183 OFFCURVE",
"397 20 OFFCURVE",
"320 20 CURVE SMOOTH",
"243 20 OFFCURVE",
"150 171 OFFCURVE",
"150 370 CURVE SMOOTH",
"150 487 OFFCURVE",
"163 596 OFFCURVE",
"190 697 CURVE",
"170 703 LINE",
"143 604 OFFCURVE",
"130 493 OFFCURVE",
"130 370 CURVE SMOOTH",
"130 166 OFFCURVE",
"225 0 OFFCURVE",
"320 0 CURVE SMOOTH"
);
},
{
closed = 1;
nodes = (
"900 100 LINE",
"900 327 OFFCURVE",
"848 553 OFFCURVE",
"759 705 CURVE",
"741 695 LINE",
"828 546 OFFCURVE",
"880 323 OFFCURVE",
"880 100 CURVE"
);
}
);
vertWidth = 1000;
width = 1000;
}
);
note = uni3044;
unicode = 3044;
},
{
glyphname = "ismall-hira";
lastChange = "2020-06-28 11:55:53 +0000";
layers = (
{
layerId = "53C12EC5-7AF6-4A76-BF07-F72C20CC49D7";
paths = (
{
closed = 1;
nodes = (
"459 -36 OFFCURVE",
"557 60 OFFCURVE",
"612 220 CURVE",
"474 268 LINE",
"455 220 OFFCURVE",
"411 136 OFFCURVE",
"384 136 CURVE SMOOTH",
"352 136 OFFCURVE",
"334 229 OFFCURVE",
"334 292 CURVE SMOOTH",
"334 382 OFFCURVE",
"347 473 OFFCURVE",
"374 564 CURVE",
"216 580 LINE",
"187 493 OFFCURVE",
"172 397 OFFCURVE",
"172 292 CURVE SMOOTH",
"172 108 OFFCURVE",
"273 -36 OFFCURVE",
"372 -36 CURVE SMOOTH"
);
},
{
closed = 1;
nodes = (
"844 52 LINE",
"844 253 OFFCURVE",
"808 432 OFFCURVE",
"736 588 CURVE",
"586 548 LINE",
"650 394 OFFCURVE",
"682 229 OFFCURVE",
"682 52 CURVE"
);
}
);
vertWidth = 1000;
width = 1000;
},
{
layerId = "14B87609-B57D-449B-8E42-0E3479D6265D";
paths = (
{
closed = 1;
nodes = (
"409 -6 OFFCURVE",
"489 82 OFFCURVE",
"541 225 CURVE",
"523 231 LINE",
"490 143 OFFCURVE",
"417 14 OFFCURVE",
"356 14 CURVE SMOOTH",
"295 14 OFFCURVE",
"222 133 OFFCURVE",
"222 292 CURVE SMOOTH",
"222 388 OFFCURVE",
"233 475 OFFCURVE",
"254 553 CURVE",
"234 559 LINE",
"213 480 OFFCURVE",
"202 391 OFFCURVE",
"202 292 CURVE SMOOTH",
"202 128 OFFCURVE",
"280 -6 OFFCURVE",
"356 -6 CURVE SMOOTH"
);
},
{
closed = 1;
nodes = (
"822 76 LINE",
"822 257 OFFCURVE",
"780 438 OFFCURVE",
"709 561 CURVE",
"691 551 LINE",
"760 431 OFFCURVE",
"802 252 OFFCURVE",
"802 76 CURVE"
);
}
);
vertWidth = 1000;
width = 1000;
}
);
note = uni3043;
unicode = 3043;
},
{
glyphname = "u-hira";
lastChange = "2020-06-28 11:55:53 +0000";
layers = (
{
layerId = "53C12EC5-7AF6-4A76-BF07-F72C20CC49D7";
paths = (
{
closed = 1;
nodes = (
"697 -13 OFFCURVE",
"890 107 OFFCURVE",
"890 320 CURVE SMOOTH",
"890 464 OFFCURVE",
"778 550 OFFCURVE",
"570 550 CURVE SMOOTH",
"451 550 OFFCURVE",
"252 520 OFFCURVE",
"100 480 CURVE",
"140 315 LINE",
"329 358 OFFCURVE",
"469 380 OFFCURVE",
"560 380 CURVE SMOOTH",
"633 380 OFFCURVE",
"700 369 OFFCURVE",
"700 310 CURVE SMOOTH",
"700 188 OFFCURVE",
"480 146 OFFCURVE",
"285 125 CURVE",
"310 -40 LINE"
);
},
{
closed = 1;
nodes = (
"750 780 LINE",
"585 780 OFFCURVE",
"421 790 OFFCURVE",
"260 810 CURVE",
"240 645 LINE",
"438 622 OFFCURVE",
"608 610 OFFCURVE",
"750 610 CURVE"
);
}
);
vertWidth = 1000;
width = 1000;
},
{
layerId = "14B87609-B57D-449B-8E42-0E3479D6265D";
paths = (
{
closed = 1;
nodes = (
"656 18 OFFCURVE",
"860 159 OFFCURVE",
"860 350 CURVE SMOOTH",
"860 487 OFFCURVE",
"743 540 OFFCURVE",
"580 540 CURVE SMOOTH",
"463 540 OFFCURVE",
"319 520 OFFCURVE",
"148 480 CURVE",
"152 460 LINE",
"327 500 OFFCURVE",
"470 520 OFFCURVE",
"580 520 CURVE SMOOTH",
"753 520 OFFCURVE",
"840 463 OFFCURVE",
"840 350 CURVE SMOOTH",
"840 173 OFFCURVE",
"639 35 OFFCURVE",
"339 10 CURVE",
"341 -10 LINE"
);
},
{
closed = 1;
nodes = (
"710 740 LINE",
"585 740 OFFCURVE",
"445 753 OFFCURVE",
"292 780 CURVE",
"288 760 LINE",
"437 733 OFFCURVE",
"577 720 OFFCURVE",
"710 720 CURVE"
);
}
);
vertWidth = 1000;
width = 1000;
}
);
note = uni3046;
unicode = 3046;
},
{
glyphname = "usmall-hira";
lastChange = "2020-06-28 11:55:53 +0000";
layers = (
{
layerId = "53C12EC5-7AF6-4A76-BF07-F72C20CC49D7";
paths = (
{
closed = 1;
nodes = (
"657 -14 OFFCURVE",
"812 82 OFFCURVE",
"812 252 CURVE SMOOTH",
"812 367 OFFCURVE",
"723 436 OFFCURVE",
"556 436 CURVE SMOOTH",
"460 436 OFFCURVE",
"301 412 OFFCURVE",
"180 380 CURVE",
"212 238 LINE",
"361 273 OFFCURVE",
"473 290 OFFCURVE",
"548 290 CURVE SMOOTH",
"616 290 OFFCURVE",
"650 275 OFFCURVE",
"650 244 CURVE SMOOTH",
"650 175 OFFCURVE",
"543 129 OFFCURVE",
"328 106 CURVE",
"348 -36 LINE"
);
},
{
closed = 1;
nodes = (
"700 620 LINE",
"571 620 OFFCURVE",
"441 628 OFFCURVE",
"308 644 CURVE",
"292 502 LINE",
"448 483 OFFCURVE",
"584 474 OFFCURVE",
"700 474 CURVE"
);
}
);
vertWidth = 1000;
width = 1000;
},
{
layerId = "14B87609-B57D-449B-8E42-0E3479D6265D";
paths = (
{
closed = 1;
nodes = (
"626 9 OFFCURVE",
"790 123 OFFCURVE",
"790 276 CURVE SMOOTH",
"790 388 OFFCURVE",
"696 430 OFFCURVE",
"564 430 CURVE SMOOTH",
"473 430 OFFCURVE",
"358 414 OFFCURVE",
"218 382 CURVE",
"222 362 LINE",
"359 394 OFFCURVE",
"473 410 OFFCURVE",
"564 410 CURVE SMOOTH",
"701 410 OFFCURVE",
"770 365 OFFCURVE",
"770 276 CURVE SMOOTH",
"770 135 OFFCURVE",
"610 27 OFFCURVE",
"371 6 CURVE",
"373 -14 LINE"
);
},
{
closed = 1;
nodes = (
"668 590 LINE",
"568 590 OFFCURVE",
"457 601 OFFCURVE",
"334 622 CURVE",
"330 602 LINE",
"454 581 OFFCURVE",
"567 570 OFFCURVE",
"668 570 CURVE"
);
}
);
vertWidth = 1000;
width = 1000;
}
);
note = uni3045;
unicode = 3045;
},
{
glyphname = "e-hira";
lastChange = "2020-06-28 11:55:53 +0000";
layers = (
{
layerId = "53C12EC5-7AF6-4A76-BF07-F72C20CC49D7";
paths = (
{
closed = 1;
nodes = (
"325 56 OFFCURVE",
"412 113 OFFCURVE",
"442 132 CURVE SMOOTH",
"472 151 OFFCURVE",
"491 160 OFFCURVE",
"500 160 CURVE SMOOTH",
"520 160 OFFCURVE",
"530 133 OFFCURVE",
"540 90 CURVE SMOOTH",
"559 7 OFFCURVE",
"624 -30 OFFCURVE",
"760 -30 CURVE SMOOTH",
"817 -30 OFFCURVE",
"870 -23 OFFCURVE",
"920 -10 CURVE",
"890 150 LINE",
"856 140 OFFCURVE",
"819 135 OFFCURVE",
"780 135 CURVE SMOOTH",
"723 135 OFFCURVE",
"713 143 OFFCURVE",
"700 200 CURVE SMOOTH",
"691 241 OFFCURVE",
"666 272 OFFCURVE",
"647 272 CURVE SMOOTH",
"647 272 OFFCURVE",
"646 272 OFFCURVE",
"646 272 CURVE",
"645 273 LINE",
"830 393 LINE",
"830 580 LINE",
"160 580 LINE",
"160 420 LINE",
"575 420 LINE",
"575 418 LINE",
"80 100 LINE",
"180 -40 LINE"
);
},
{
closed = 1;
nodes = (
"750 790 LINE",
"585 790 OFFCURVE",
"421 800 OFFCURVE",
"260 820 CURVE",
"240 660 LINE",
"438 637 OFFCURVE",
"608 625 OFFCURVE",
"750 625 CURVE"
);
}
);
vertWidth = 1000;
width = 1000;
},
{
layerId = "14B87609-B57D-449B-8E42-0E3479D6265D";
paths = (
{
closed = 1;
nodes = (
"240 89 OFFCURVE",
"318 156 OFFCURVE",
"361 191 CURVE SMOOTH",
"428 245 OFFCURVE",
"460 270 OFFCURVE",
"510 270 CURVE SMOOTH",
"568 270 OFFCURVE",
"589 218 OFFCURVE",
"610 137 CURVE SMOOTH",
"639 25 OFFCURVE",
"668 0 OFFCURVE",
"760 0 CURVE SMOOTH",
"805 0 OFFCURVE",
"852 7 OFFCURVE",
"903 20 CURVE",
"897 40 LINE",
"849 27 OFFCURVE",
"803 20 OFFCURVE",
"760 20 CURVE SMOOTH",
"679 20 OFFCURVE",
"659 35 OFFCURVE",
"630 143 CURVE SMOOTH",
"599 254 OFFCURVE",
"570 290 OFFCURVE",
"510 290 CURVE SMOOTH",
"491 290 OFFCURVE",
"474 287 OFFCURVE",
"458 280 CURVE",
"457 281 LINE",
"764 550 LINE",
"764 570 LINE",
"170 570 LINE",
"170 550 LINE",
"733 550 LINE",
"734 548 LINE",
"113 8 LINE",
"127 -8 LINE"
);
},
{
closed = 1;
nodes = (
"710 740 LINE",
"585 740 OFFCURVE",
"445 753 OFFCURVE",
"292 780 CURVE",
"288 760 LINE",
"437 733 OFFCURVE",
"577 720 OFFCURVE",
"710 720 CURVE"
);
}
);
vertWidth = 1000;
width = 1000;
}
);
note = uni3048;
unicode = 3048;
},
{
glyphname = "esmall-hira";
lastChange = "2020-06-28 11:55:53 +0000";
layers = (
{
layerId = "53C12EC5-7AF6-4A76-BF07-F72C20CC49D7";
paths = (
{
closed = 1;
nodes = (
"364 43 OFFCURVE",
"435 90 OFFCURVE",
"457 104 CURVE SMOOTH",
"479 117 OFFCURVE",
"493 124 OFFCURVE",
"500 124 CURVE SMOOTH",
"513 124 OFFCURVE",
"524 105 OFFCURVE",
"532 68 CURVE SMOOTH",
"547 1 OFFCURVE",
"599 -28 OFFCURVE",
"708 -28 CURVE SMOOTH",
"755 -28 OFFCURVE",
"797 -23 OFFCURVE",
"836 -12 CURVE",
"812 126 LINE",
"785 118 OFFCURVE",
"756 114 OFFCURVE",
"724 114 CURVE SMOOTH",
"688 114 OFFCURVE",
"681 119 OFFCURVE",
"670 166 CURVE SMOOTH",
"665 190 OFFCURVE",
"638 220 OFFCURVE",
"626 220 CURVE",
"626 220 OFFCURVE",
"626 220 OFFCURVE",
"626 220 CURVE",
"626 221 LINE",
"764 311 LINE",
"764 460 LINE",
"228 460 LINE",
"228 322 LINE",
"529 322 LINE",
"529 320 LINE",
"164 86 LINE",
"244 -36 LINE"
);
},
{
closed = 1;
nodes = (
"700 628 LINE",
"571 628 OFFCURVE",
"441 636 OFFCURVE",
"308 652 CURVE",
"292 514 LINE",
"448 495 OFFCURVE",
"584 486 OFFCURVE",
"700 486 CURVE"
);
}
);
vertWidth = 1000;
width = 1000;
},
{
layerId = "14B87609-B57D-449B-8E42-0E3479D6265D";
paths = (
{
closed = 1;
nodes = (
"293 66 OFFCURVE",
"355 119 OFFCURVE",
"390 147 CURVE SMOOTH",
"443 190 OFFCURVE",
"469 210 OFFCURVE",
"508 210 CURVE SMOOTH",
"552 210 OFFCURVE",
"569 170 OFFCURVE",
"586 105 CURVE SMOOTH",
"610 14 OFFCURVE",
"633 -6 OFFCURVE",
"708 -6 CURVE SMOOTH",
"745 -6 OFFCURVE",
"783 -1 OFFCURVE",
"823 10 CURVE",
"817 30 LINE",
"780 19 OFFCURVE",
"743 14 OFFCURVE",
"708 14 CURVE SMOOTH",
"645 14 OFFCURVE",
"629 27 OFFCURVE",
"606 111 CURVE SMOOTH",
"582 200 OFFCURVE",
"557 230 OFFCURVE",
"508 230 CURVE SMOOTH",
"496 230 OFFCURVE",
"485 228 OFFCURVE",
"476 225 CURVE",
"475 226 LINE",
"712 434 LINE",
"712 454 LINE",
"236 454 LINE",
"236 434 LINE",
"681 434 LINE",
"682 432 LINE",
"189 4 LINE",
"203 -12 LINE"
);
},
{
closed = 1;
nodes = (
"668 590 LINE",
"568 590 OFFCURVE",
"457 601 OFFCURVE",
"334 622 CURVE",
"330 602 LINE",
"454 581 OFFCURVE",
"567 570 OFFCURVE",
"668 570 CURVE"
);
}
);
vertWidth = 1000;
width = 1000;
}
);
note = uni3047;
unicode = 3047;
},
{
glyphname = "o-hira";
lastChange = "2020-06-28 11:55:53 +0000";
layers = (
{
layerId = "53C12EC5-7AF6-4A76-BF07-F72C20CC49D7";
paths = (
{
closed = 1;
nodes = (
"773 -16 OFFCURVE",
"870 77 OFFCURVE",
"870 240 CURVE SMOOTH",
"870 380 OFFCURVE",
"735 490 OFFCURVE",
"540 490 CURVE SMOOTH",
"243 490 OFFCURVE",
"60 364 OFFCURVE",
"60 200 CURVE SMOOTH",
"60 67 OFFCURVE",
"172 -30 OFFCURVE",
"320 -30 CURVE SMOOTH",
"467 -30 OFFCURVE",
"510 12 OFFCURVE",
"510 160 CURVE SMOOTH",
"510 570 LINE",
"700 570 LINE",
"700 720 LINE",
"510 720 LINE",
"510 830 LINE",
"330 830 LINE",
"330 720 LINE",
"110 720 LINE",
"110 570 LINE",
"330 570 LINE",
"330 175 LINE SMOOTH",
"330 140 OFFCURVE",
"325 135 OFFCURVE",
"300 135 CURVE SMOOTH",
"271 135 OFFCURVE",
"240 168 OFFCURVE",
"240 200 CURVE SMOOTH",
"240 292 OFFCURVE",
"399 320 OFFCURVE",
"540 320 CURVE SMOOTH",
"625 320 OFFCURVE",
"685 279 OFFCURVE",
"685 230 CURVE SMOOTH",
"685 167 OFFCURVE",
"647 137 OFFCURVE",
"540 120 CURVE",
"580 -40 LINE"
);
},
{
closed = 1;
nodes = (
"990 515 LINE",
"953 582 OFFCURVE",
"904 664 OFFCURVE",
"843 760 CURVE",
"719 684 LINE",
"770 602 OFFCURVE",
"817 523 OFFCURVE",
"860 447 CURVE"
);
}
);
vertWidth = 1000;
width = 1000;
},
{
layerId = "14B87609-B57D-449B-8E42-0E3479D6265D";
paths = (
{
closed = 1;
nodes = (
"764 -4 OFFCURVE",
"860 82 OFFCURVE",
"860 230 CURVE SMOOTH",
"860 341 OFFCURVE",
"733 440 OFFCURVE",
"530 440 CURVE SMOOTH",
"263 440 OFFCURVE",
"100 319 OFFCURVE",
"100 180 CURVE SMOOTH",
"100 89 OFFCURVE",
"199 0 OFFCURVE",
"300 0 CURVE SMOOTH",
"373 0 OFFCURVE",
"410 37 OFFCURVE",
"410 110 CURVE SMOOTH",
"410 650 LINE",
"710 650 LINE",
"710 670 LINE",
"410 670 LINE",
"410 820 LINE",
"390 820 LINE",
"390 670 LINE",
"130 670 LINE",
"130 650 LINE",
"390 650 LINE",
"390 110 LINE SMOOTH",
"390 46 OFFCURVE",
"364 20 OFFCURVE",
"300 20 CURVE SMOOTH",
"211 20 OFFCURVE",
"120 101 OFFCURVE",
"120 180 CURVE SMOOTH",
"120 308 OFFCURVE",
"275 420 OFFCURVE",
"530 420 CURVE SMOOTH",
"719 420 OFFCURVE",
"840 330 OFFCURVE",
"840 230 CURVE SMOOTH",
"840 94 OFFCURVE",
"750 15 OFFCURVE",
"579 0 CURVE",
"581 -20 LINE"
);
},
{
closed = 1;
nodes = (
"938 516 LINE",
"887 589 OFFCURVE",
"830 653 OFFCURVE",
"767 708 CURVE",
"753 692 LINE",
"816 638 OFFCURVE",
"872 575 OFFCURVE",
"922 504 CURVE"
);
}
);
vertWidth = 1000;
width = 1000;
}
);
note = uni304A;
unicode = 304A;
},
{
glyphname = "osmall-hira";
lastChange = "2020-06-28 11:55:53 +0000";
layers = (
{
layerId = "53C12EC5-7AF6-4A76-BF07-F72C20CC49D7";
paths = (
{
closed = 1;
nodes = (
"719 -17 OFFCURVE",
"796 58 OFFCURVE",
"796 188 CURVE SMOOTH",
"796 309 OFFCURVE",
"688 398 OFFCURVE",
"532 398 CURVE SMOOTH",
"292 398 OFFCURVE",
"148 296 OFFCURVE",
"148 156 CURVE SMOOTH",
"148 49 OFFCURVE",
"237 -28 OFFCURVE",
"356 -28 CURVE SMOOTH",
"483 -28 OFFCURVE",
"518 5 OFFCURVE",
"518 124 CURVE SMOOTH",
"518 452 LINE",
"668 452 LINE",
"668 582 LINE",
"518 582 LINE",
"518 660 LINE",
"364 660 LINE",
"364 582 LINE",
"188 582 LINE",
"188 452 LINE",
"364 452 LINE",
"364 138 LINE SMOOTH",
"364 110 OFFCURVE",
"360 106 OFFCURVE",
"340 106 CURVE SMOOTH",
"319 106 OFFCURVE",
"302 125 OFFCURVE",
"302 156 CURVE SMOOTH",
"302 228 OFFCURVE",
"422 252 OFFCURVE",
"532 252 CURVE SMOOTH",
"597 252 OFFCURVE",
"638 221 OFFCURVE",
"638 180 CURVE SMOOTH",
"638 139 OFFCURVE",
"603 113 OFFCURVE",
"532 102 CURVE",
"564 -36 LINE"
);
},
{
closed = 1;
nodes = (
"912 408 LINE",
"885 458 OFFCURVE",
"845 523 OFFCURVE",
"794 604 CURVE",
"686 539 LINE",
"730 468 OFFCURVE",
"768 404 OFFCURVE",
"799 349 CURVE"
);
}
);
vertWidth = 1000;
width = 1000;
},
{
layerId = "14B87609-B57D-449B-8E42-0E3479D6265D";
paths = (
{
closed = 1;
nodes = (
"712 -9 OFFCURVE",
"790 61 OFFCURVE",
"790 180 CURVE SMOOTH",
"790 269 OFFCURVE",
"687 350 OFFCURVE",
"524 350 CURVE SMOOTH",
"309 350 OFFCURVE",
"178 252 OFFCURVE",
"178 140 CURVE SMOOTH",
"178 67 OFFCURVE",
"257 -6 OFFCURVE",
"340 -6 CURVE SMOOTH",
"400 -6 OFFCURVE",
"430 24 OFFCURVE",
"430 84 CURVE SMOOTH",
"430 514 LINE",
"676 514 LINE",
"676 534 LINE",
"430 534 LINE",
"430 652 LINE",
"410 652 LINE",
"410 534 LINE",
"204 534 LINE",
"204 514 LINE",
"410 514 LINE",
"410 84 LINE SMOOTH",
"410 33 OFFCURVE",
"391 14 OFFCURVE",
"340 14 CURVE SMOOTH",
"271 14 OFFCURVE",
"198 77 OFFCURVE",
"198 140 CURVE SMOOTH",
"198 241 OFFCURVE",
"321 330 OFFCURVE",
"524 330 CURVE SMOOTH",
"675 330 OFFCURVE",
"770 259 OFFCURVE",
"770 180 CURVE SMOOTH",
"770 73 OFFCURVE",
"698 10 OFFCURVE",
"563 -2 CURVE",
"565 -22 LINE"
);
},
{
closed = 1;
nodes = (
"862 410 LINE",
"820 470 OFFCURVE",
"774 521 OFFCURVE",
"725 564 CURVE",
"711 548 LINE",
"760 505 OFFCURVE",
"805 455 OFFCURVE",
"846 398 CURVE"
);
}
);
vertWidth = 1000;
width = 1000;
}
);
note = uni3049;
unicode = 3049;
},
{
glyphname = "ka-hira";
lastChange = "2020-06-28 11:55:53 +0000";
layers = (
{
layerId = "53C12EC5-7AF6-4A76-BF07-F72C20CC49D7";
paths = (
{
closed = 1;
nodes = (
"646 -40 OFFCURVE",
"680 134 OFFCURVE",
"680 330 CURVE SMOOTH",
"680 501 OFFCURVE",
"680 574 OFFCURVE",
"647 617 CURVE SMOOTH",
"613 660 OFFCURVE",
"557 660 OFFCURVE",
"430 660 CURVE SMOOTH",
"50 660 LINE",
"50 500 LINE",
"430 500 LINE SMOOTH",
"460 500 OFFCURVE",
"478 494 OFFCURVE",
"483 482 CURVE SMOOTH",
"488 470 OFFCURVE",
"490 429 OFFCURVE",
"490 360 CURVE SMOOTH",
"490 207 OFFCURVE",
"477 130 OFFCURVE",
"450 130 CURVE SMOOTH",
"427 130 OFFCURVE",
"381 140 OFFCURVE",
"310 160 CURVE",
"270 0 LINE",
"329 -21 OFFCURVE",
"434 -40 OFFCURVE",
"490 -40 CURVE SMOOTH"
);
},
{
closed = 1;
nodes = (
"301 253 OFFCURVE",
"375 550 OFFCURVE",
"410 840 CURVE",
"245 850 LINE",
"200 555 OFFCURVE",
"130 272 OFFCURVE",
"35 0 CURVE",
"190 -50 LINE"
);
},
{
closed = 1;
nodes = (
"990 220 LINE",
"949 385 OFFCURVE",
"899 551 OFFCURVE",
"840 720 CURVE",
"666 676 LINE",
"724 515 OFFCURVE",
"774 349 OFFCURVE",
"816 178 CURVE"
);
}
);
vertWidth = 1000;
width = 1000;
},
{
layerId = "14B87609-B57D-449B-8E42-0E3479D6265D";
paths = (
{
closed = 1;
nodes = (
"631 0 OFFCURVE",
"670 219 OFFCURVE",
"670 380 CURVE SMOOTH",
"670 473 OFFCURVE",
"671 535 OFFCURVE",
"642 569 CURVE SMOOTH",
"615 601 OFFCURVE",
"552 600 OFFCURVE",
"470 600 CURVE SMOOTH",
"120 600 LINE",
"120 580 LINE",
"470 580 LINE SMOOTH",
"524 580 OFFCURVE",
"587 581 OFFCURVE",
"611 567 CURVE SMOOTH",
"651 544 OFFCURVE",
"650 496 OFFCURVE",
"650 380 CURVE SMOOTH",
"650 243 OFFCURVE",
"614 20 OFFCURVE",
"530 20 CURVE SMOOTH",
"486 20 OFFCURVE",
"424 40 OFFCURVE",
"344 79 CURVE",
"336 61 LINE",
"419 20 OFFCURVE",
"484 0 OFFCURVE",
"530 0 CURVE SMOOTH"
);
},
{
closed = 1;
nodes = (
"257 248 OFFCURVE",
"347 522 OFFCURVE",
"400 818 CURVE",
"380 822 LINE",
"327 527 OFFCURVE",
"238 254 OFFCURVE",
"111 5 CURVE",
"129 -5 LINE"
);
},
{
closed = 1;
nodes = (
"950 193 LINE",
"907 349 OFFCURVE",
"827 564 OFFCURVE",
"759 704 CURVE",
"741 696 LINE",
"809 556 OFFCURVE",
"889 340 OFFCURVE",
"930 187 CURVE"
);
}
);
vertWidth = 1000;
width = 1000;
}
);
note = uni304B;
unicode = 304B;
},
{
glyphname = "kasmall-hira";
lastChange = "2020-06-28 11:55:53 +0000";
layers = (
{
layerId = "53C12EC5-7AF6-4A76-BF07-F72C20CC49D7";
paths = (
{
closed = 1;
nodes = (
"617 -36 OFFCURVE",
"644 102 OFFCURVE",
"644 260 CURVE SMOOTH",
"644 355 OFFCURVE",
"651 474 OFFCURVE",
"604 508 CURVE SMOOTH",
"581 524 OFFCURVE",
"521 529 OFFCURVE",
"444 529 CURVE SMOOTH",
"140 529 LINE",
"140 391 LINE",
"434 391 LINE SMOOTH",
"458 391 OFFCURVE",
"472 387 OFFCURVE",
"476 378 CURVE SMOOTH",
"480 369 OFFCURVE",
"482 337 OFFCURVE",
"482 284 CURVE SMOOTH",
"482 168 OFFCURVE",
"471 110 OFFCURVE",
"450 110 CURVE SMOOTH",
"431 110 OFFCURVE",
"396 118 OFFCURVE",
"343 134 CURVE",
"316 -4 LINE",
"363 -21 OFFCURVE",
"448 -36 OFFCURVE",
"492 -36 CURVE SMOOTH"
);
},
{
closed = 1;
nodes = (
"340 196 OFFCURVE",
"399 433 OFFCURVE",
"428 668 CURVE",
"288 683 LINE",
"252 444 OFFCURVE",
"196 218 OFFCURVE",
"121 3 CURVE",
"252 -44 LINE"
);
},
{
closed = 1;
nodes = (
"900 179 LINE",
"869 310 OFFCURVE",
"829 443 OFFCURVE",
"780 579 CURVE",
"633 537 LINE",
"678 411 OFFCURVE",
"718 278 OFFCURVE",
"753 138 CURVE"
);
}
);
vertWidth = 1000;
width = 1000;
},
{
layerId = "14B87609-B57D-449B-8E42-0E3479D6265D";
paths = (
{
closed = 1;
nodes = (
"605 -6 OFFCURVE",
"638 168 OFFCURVE",
"638 300 CURVE SMOOTH",
"638 372 OFFCURVE",
"638 426 OFFCURVE",
"615 453 CURVE SMOOTH",
"592 478 OFFCURVE",
"542 478 OFFCURVE",
"476 478 CURVE SMOOTH",
"196 478 LINE",
"196 458 LINE",
"476 458 LINE SMOOTH",
"550 458 OFFCURVE",
"581 459 OFFCURVE",
"600 438 CURVE SMOOTH",
"618 418 OFFCURVE",
"618 379 OFFCURVE",
"618 300 CURVE SMOOTH",
"618 193 OFFCURVE",
"590 14 OFFCURVE",
"524 14 CURVE SMOOTH",
"489 14 OFFCURVE",
"440 30 OFFCURVE",
"376 61 CURVE",
"368 43 LINE",
"435 10 OFFCURVE",
"487 -6 OFFCURVE",
"524 -6 CURVE SMOOTH"
);
},
{
closed = 1;
nodes = (
"308 192 OFFCURVE",
"380 411 OFFCURVE",
"422 650 CURVE",
"402 654 LINE",
"360 419 OFFCURVE",
"288 201 OFFCURVE",
"187 1 CURVE",
"205 -9 LINE"
);
},
{
closed = 1;
nodes = (
"862 151 LINE",
"825 290 OFFCURVE",
"774 427 OFFCURVE",
"709 560 CURVE",
"691 552 LINE",
"752 427 OFFCURVE",
"803 291 OFFCURVE",
"842 145 CURVE"
);
}
);
vertWidth = 1000;
width = 1000;
}
);
note = uni3095;
unicode = 3095;
},
{
glyphname = "ga-hira";
lastChange = "2020-06-28 11:55:53 +0000";
layers = (
{
layerId = "53C12EC5-7AF6-4A76-BF07-F72C20CC49D7";
paths = (
{
closed = 1;
nodes = (
"656 -40 OFFCURVE",
"690 134 OFFCURVE",
"690 330 CURVE SMOOTH",
"690 501 OFFCURVE",
"690 574 OFFCURVE",
"657 617 CURVE SMOOTH",
"623 660 OFFCURVE",
"567 660 OFFCURVE",
"440 660 CURVE SMOOTH",
"60 660 LINE",
"60 500 LINE",
"440 500 LINE SMOOTH",
"470 500 OFFCURVE",
"488 494 OFFCURVE",
"493 482 CURVE SMOOTH",
"498 470 OFFCURVE",
"500 429 OFFCURVE",
"500 360 CURVE SMOOTH",
"500 207 OFFCURVE",
"487 130 OFFCURVE",
"460 130 CURVE SMOOTH",
"437 130 OFFCURVE",
"391 140 OFFCURVE",
"320 160 CURVE",
"280 0 LINE",
"339 -21 OFFCURVE",
"444 -40 OFFCURVE",
"500 -40 CURVE SMOOTH"
);
},
{
closed = 1;
nodes = (
"301 253 OFFCURVE",
"375 550 OFFCURVE",
"410 840 CURVE",
"245 850 LINE",
"200 555 OFFCURVE",
"130 272 OFFCURVE",
"35 0 CURVE",
"190 -50 LINE"
);
},
{
closed = 1;
nodes = (
"990 190 LINE",
"963 305 OFFCURVE",
"930 429 OFFCURVE",
"890 560 CURVE",
"719 511 LINE",
"756 385 OFFCURVE",
"788 265 OFFCURVE",
"815 152 CURVE"
);
},
{
closed = 1;
nodes = (
"818 623 LINE",
"792 674 OFFCURVE",
"764 728 OFFCURVE",
"733 785 CURVE",
"630 733 LINE",
"661 680 OFFCURVE",
"689 627 OFFCURVE",
"715 574 CURVE"
);
},
{
closed = 1;
nodes = (
"980 655 LINE",
"946 722 OFFCURVE",
"917 777 OFFCURVE",
"893 820 CURVE",
"788 767 LINE",
"816 717 OFFCURVE",
"845 663 OFFCURVE",
"875 605 CURVE"
);
}
);
vertWidth = 1000;
width = 1000;
},
{
layerId = "14B87609-B57D-449B-8E42-0E3479D6265D";
paths = (
{
closed = 1;
nodes = (
"621 0 OFFCURVE",
"660 219 OFFCURVE",
"660 380 CURVE SMOOTH",
"660 473 OFFCURVE",
"661 535 OFFCURVE",
"632 569 CURVE SMOOTH",
"605 601 OFFCURVE",
"542 600 OFFCURVE",
"460 600 CURVE SMOOTH",
"120 600 LINE",
"120 580 LINE",
"460 580 LINE SMOOTH",
"514 580 OFFCURVE",
"577 581 OFFCURVE",
"601 567 CURVE SMOOTH",
"641 544 OFFCURVE",
"640 496 OFFCURVE",
"640 380 CURVE SMOOTH",
"640 243 OFFCURVE",
"604 20 OFFCURVE",
"520 20 CURVE SMOOTH",
"476 20 OFFCURVE",
"414 40 OFFCURVE",
"334 79 CURVE",
"326 61 LINE",
"409 20 OFFCURVE",
"474 0 OFFCURVE",
"520 0 CURVE SMOOTH"
);
},
{
closed = 1;
nodes = (
"257 248 OFFCURVE",
"347 522 OFFCURVE",
"400 818 CURVE",
"380 822 LINE",
"327 527 OFFCURVE",
"238 254 OFFCURVE",
"111 5 CURVE",
"129 -5 LINE"
);
},
{
closed = 1;
nodes = (
"944 189 LINE",
"893 309 OFFCURVE",
"804 473 OFFCURVE",
"733 581 CURVE",
"717 569 LINE",
"788 465 OFFCURVE",
"874 302 OFFCURVE",
"926 181 CURVE"
);
},
{
closed = 1;
nodes = (
"791 627 LINE",
"766 673 OFFCURVE",
"733 729 OFFCURVE",
"690 794 CURVE",
"674 782 LINE",
"707 733 OFFCURVE",
"740 678 OFFCURVE",
"773 617 CURVE"
);
},
{
closed = 1;
nodes = (
"919 665 LINE",
"894 712 OFFCURVE",
"859 769 OFFCURVE",
"814 836 CURVE",
"798 824 LINE",
"832 773 OFFCURVE",
"866 717 OFFCURVE",
"901 655 CURVE"
);
}
);
vertWidth = 1000;
width = 1000;
}
);
note = uni304C;
unicode = 304C;
},
{
glyphname = "ki-hira";
lastChange = "2020-06-28 11:55:53 +0000";
layers = (
{
layerId = "53C12EC5-7AF6-4A76-BF07-F72C20CC49D7";
paths = (
{
closed = 1;
nodes = (
"627 -40 OFFCURVE",
"714 -33 OFFCURVE",
"800 -20 CURVE",
"780 135 LINE",
"689 122 OFFCURVE",
"609 115 OFFCURVE",
"540 115 CURVE SMOOTH",
"438 115 OFFCURVE",
"330 120 OFFCURVE",
"330 180 CURVE SMOOTH",
"330 213 OFFCURVE",
"370 230 OFFCURVE",
"450 230 CURVE SMOOTH",
"505 230 OFFCURVE",
"538 223 OFFCURVE",
"630 190 CURVE",
"820 270 LINE",
"708 431 OFFCURVE",
"648 620 OFFCURVE",
"640 835 CURVE",
"460 825 LINE",
"468 658 OFFCURVE",
"505 503 OFFCURVE",
"571 361 CURVE",
"569 359 LINE",
"529 366 OFFCURVE",
"489 370 OFFCURVE",
"450 370 CURVE SMOOTH",
"247 370 OFFCURVE",
"140 297 OFFCURVE",
"140 180 CURVE SMOOTH",
"140 35 OFFCURVE",
"264 -40 OFFCURVE",
"540 -40 CURVE SMOOTH"
);
},
{
closed = 1;
nodes = (
"337 395 OFFCURVE",
"612 402 OFFCURVE",
"913 415 CURVE",
"908 565 LINE",
"609 552 OFFCURVE",
"336 545 OFFCURVE",
"88 545 CURVE",
"88 395 LINE"
);
},
{
closed = 1;
nodes = (
"363 587 OFFCURVE",
"612 594 OFFCURVE",
"883 607 CURVE",
"878 757 LINE",
"608 744 OFFCURVE",
"361 737 OFFCURVE",
"138 737 CURVE",
"138 587 LINE"
);
}
);
vertWidth = 1000;
width = 1000;
},
{
layerId = "14B87609-B57D-449B-8E42-0E3479D6265D";
paths = (
{
closed = 1;
nodes = (
"611 -20 OFFCURVE",
"688 -13 OFFCURVE",
"762 0 CURVE",
"758 20 LINE",
"685 7 OFFCURVE",
"609 0 OFFCURVE",
"530 0 CURVE SMOOTH",
"310 0 OFFCURVE",
"200 60 OFFCURVE",
"200 180 CURVE SMOOTH",
"200 277 OFFCURVE",
"289 330 OFFCURVE",
"450 330 CURVE SMOOTH",
"543 330 OFFCURVE",
"642 307 OFFCURVE",
"746 261 CURVE",
"758 275 LINE",
"638 460 OFFCURVE",
"589 602 OFFCURVE",
"570 821 CURVE",
"550 819 LINE",
"567 610 OFFCURVE",
"615 468 OFFCURVE",
"726 291 CURVE",
"725 289 LINE",
"626 330 OFFCURVE",
"534 350 OFFCURVE",
"450 350 CURVE SMOOTH",
"302 350 OFFCURVE",
"180 304 OFFCURVE",
"180 180 CURVE SMOOTH",
"180 47 OFFCURVE",
"297 -20 OFFCURVE",
"530 -20 CURVE SMOOTH"
);
},
{
closed = 1;
nodes = (
"365 465 OFFCURVE",
"626 472 OFFCURVE",
"891 485 CURVE",
"889 505 LINE",
"624 492 OFFCURVE",
"365 485 OFFCURVE",
"110 485 CURVE",
"110 465 LINE"
);
},
{
closed = 1;
nodes = (
"366 655 OFFCURVE",
"610 662 OFFCURVE",
"871 675 CURVE",
"869 695 LINE",
"608 682 OFFCURVE",
"365 675 OFFCURVE",
"140 675 CURVE",
"140 655 LINE"
);
}
);
vertWidth = 1000;
width = 1000;
}
);
note = uni304D;
unicode = 304D;
},
{
glyphname = "gi-hira";
lastChange = "2020-06-28 11:55:53 +0000";
layers = (
{
layerId = "53C12EC5-7AF6-4A76-BF07-F72C20CC49D7";
paths = (
{
closed = 1;
nodes = (
"617 -50 OFFCURVE",
"704 -43 OFFCURVE",
"790 -30 CURVE",
"770 125 LINE",
"679 112 OFFCURVE",
"599 105 OFFCURVE",
"530 105 CURVE SMOOTH",
"426 105 OFFCURVE",
"320 111 OFFCURVE",
"320 170 CURVE SMOOTH",
"320 203 OFFCURVE",
"353 220 OFFCURVE",
"420 220 CURVE SMOOTH",
"475 220 OFFCURVE",
"508 213 OFFCURVE",
"600 180 CURVE",
"790 260 LINE",
"678 421 OFFCURVE",
"618 610 OFFCURVE",
"610 825 CURVE",
"430 815 LINE",
"438 648 OFFCURVE",
"475 493 OFFCURVE",
"541 351 CURVE",
"539 349 LINE",
"499 356 OFFCURVE",
"459 360 OFFCURVE",
"420 360 CURVE SMOOTH",
"232 360 OFFCURVE",
"130 285 OFFCURVE",
"130 170 CURVE SMOOTH",
"130 25 OFFCURVE",
"254 -50 OFFCURVE",
"530 -50 CURVE SMOOTH"
);
},
{
closed = 1;
nodes = (
"327 385 OFFCURVE",
"602 392 OFFCURVE",
"903 405 CURVE",
"898 555 LINE",
"599 542 OFFCURVE",
"326 535 OFFCURVE",
"78 535 CURVE",
"78 385 LINE"
);
},
{
closed = 1;
nodes = (
"337 572 OFFCURVE",
"558 577 OFFCURVE",
"793 588 CURVE",
"788 738 LINE",
"555 727 OFFCURVE",
"335 722 OFFCURVE",
"128 722 CURVE",
"128 572 LINE"
);
},
{
closed = 1;
nodes = (
"836 708 LINE",
"813 755 OFFCURVE",
"787 804 OFFCURVE",
"760 855 CURVE",
"666 808 LINE",
"695 755 OFFCURVE",
"721 707 OFFCURVE",
"742 663 CURVE"
);
},
{
closed = 1;
nodes = (
"990 720 LINE",
"969 764 OFFCURVE",
"943 814 OFFCURVE",
"912 870 CURVE",
"816 822 LINE",
"832 793 OFFCURVE",
"858 743 OFFCURVE",
"894 674 CURVE"
);
}
);
vertWidth = 1000;
width = 1000;
},
{
layerId = "14B87609-B57D-449B-8E42-0E3479D6265D";
paths = (
{
closed = 1;
nodes = (
"601 -30 OFFCURVE",
"678 -23 OFFCURVE",
"752 -10 CURVE",
"748 10 LINE",
"675 -3 OFFCURVE",
"599 -10 OFFCURVE",
"520 -10 CURVE SMOOTH",
"300 -10 OFFCURVE",
"190 50 OFFCURVE",
"190 170 CURVE SMOOTH",
"190 267 OFFCURVE",
"279 320 OFFCURVE",
"440 320 CURVE SMOOTH",
"533 320 OFFCURVE",
"632 297 OFFCURVE",
"736 251 CURVE",
"748 265 LINE",
"628 450 OFFCURVE",
"579 592 OFFCURVE",
"560 811 CURVE",
"540 809 LINE",
"557 600 OFFCURVE",
"605 458 OFFCURVE",
"716 281 CURVE",
"715 279 LINE",
"616 320 OFFCURVE",
"524 340 OFFCURVE",
"440 340 CURVE SMOOTH",
"292 340 OFFCURVE",
"170 294 OFFCURVE",
"170 170 CURVE SMOOTH",
"170 37 OFFCURVE",
"287 -30 OFFCURVE",
"520 -30 CURVE SMOOTH"
);
},
{
closed = 1;
nodes = (
"355 455 OFFCURVE",
"616 462 OFFCURVE",
"881 475 CURVE",
"879 495 LINE",
"614 482 OFFCURVE",
"355 475 OFFCURVE",
"100 475 CURVE",
"100 455 LINE"
);
},
{
closed = 1;
nodes = (
"331 645 OFFCURVE",
"548 652 OFFCURVE",
"781 665 CURVE",
"779 685 LINE",
"546 672 OFFCURVE",
"330 665 OFFCURVE",
"130 665 CURVE",
"130 645 LINE"
);
},
{
closed = 1;
nodes = (
"856 695 LINE",
"827 748 OFFCURVE",
"796 799 OFFCURVE",
"763 846 CURVE",
"747 834 LINE",
"781 783 OFFCURVE",
"811 733 OFFCURVE",
"838 685 CURVE"
);
},
{
closed = 1;
nodes = (
"979 711 LINE",
"946 769 OFFCURVE",
"915 821 OFFCURVE",
"884 866 CURVE",
"868 854 LINE",
"903 801 OFFCURVE",
"934 750 OFFCURVE",
"961 701 CURVE"
);
}
);
vertWidth = 1000;
width = 1000;
}
);
note = uni304E;
unicode = 304E;
},
{
glyphname = "ku-hira";
lastChange = "2020-06-28 11:55:53 +0000";
layers = (
{
layerId = "53C12EC5-7AF6-4A76-BF07-F72C20CC49D7";
paths = (
{
closed = 1;
nodes = (
"800 60 LINE",
"684 151 OFFCURVE",
"564 238 OFFCURVE",
"440 321 CURVE SMOOTH",
"380 360 OFFCURVE",
"350 380 OFFCURVE",
"350 399 CURVE SMOOTH",
"350 419 OFFCURVE",
"382 439 OFFCURVE",
"446 478 CURVE SMOOTH",
"559 547 OFFCURVE",
"667 618 OFFCURVE",
"770 690 CURVE",
"660 840 LINE",
"575 780 OFFCURVE",
"463 706 OFFCURVE",
"326 618 CURVE SMOOTH",
"237 562 OFFCURVE",
"183 523 OFFCURVE",
"162 500 CURVE SMOOTH",
"141 477 OFFCURVE",
"130 444 OFFCURVE",
"130 400 CURVE SMOOTH",
"130 341 OFFCURVE",
"144 316 OFFCURVE",
"193 274 CURVE SMOOTH",
"218 253 OFFCURVE",
"263 219 OFFCURVE",
"328 174 CURVE SMOOTH",
"466 78 OFFCURVE",
"583 -7 OFFCURVE",
"680 -80 CURVE"
);
}
);
vertWidth = 1000;
width = 1000;
},
{
layerId = "14B87609-B57D-449B-8E42-0E3479D6265D";
paths = (
{
closed = 1;
nodes = (
"727 -33 LINE",
"562 116 OFFCURVE",
"414 234 OFFCURVE",
"285 322 CURVE SMOOTH",
"237 356 OFFCURVE",
"210 370 OFFCURVE",
"210 400 CURVE SMOOTH",
"210 432 OFFCURVE",
"241 450 OFFCURVE",
"298 489 CURVE SMOOTH",
"420 571 OFFCURVE",
"553 672 OFFCURVE",
"696 792 CURVE",
"684 808 LINE",
"549 694 OFFCURVE",
"416 593 OFFCURVE",
"287 505 CURVE SMOOTH",
"246 477 OFFCURVE",
"219 457 OFFCURVE",
"208 445 CURVE SMOOTH",
"196 433 OFFCURVE",
"190 418 OFFCURVE",
"190 400 CURVE SMOOTH",
"190 383 OFFCURVE",
"195 369 OFFCURVE",
"206 358 CURVE SMOOTH",
"217 347 OFFCURVE",
"239 329 OFFCURVE",
"274 305 CURVE SMOOTH",
"409 212 OFFCURVE",
"556 94 OFFCURVE",
"713 -47 CURVE"
);
}
);
vertWidth = 1000;
width = 1000;
}
);
note = uni304F;
unicode = 304F;
},
{
glyphname = "gu-hira";
lastChange = "2020-06-28 11:55:53 +0000";
layers = (
{
layerId = "53C12EC5-7AF6-4A76-BF07-F72C20CC49D7";
paths = (
{
closed = 1;
nodes = (
"760 53 LINE",
"642 147 OFFCURVE",
"522 236 OFFCURVE",
"400 320 CURVE SMOOTH",
"340 361 OFFCURVE",
"310 381 OFFCURVE",
"310 400 CURVE SMOOTH",
"310 420 OFFCURVE",
"342 440 OFFCURVE",
"406 480 CURVE SMOOTH",
"522 553 OFFCURVE",
"630 625 OFFCURVE",
"730 697 CURVE",
"620 850 LINE",
"539 792 OFFCURVE",
"427 717 OFFCURVE",
"286 624 CURVE SMOOTH",
"197 567 OFFCURVE",
"143 526 OFFCURVE",
"122 503 CURVE SMOOTH",
"101 479 OFFCURVE",
"90 445 OFFCURVE",
"90 400 CURVE SMOOTH",
"90 340 OFFCURVE",
"104 314 OFFCURVE",
"153 271 CURVE SMOOTH",
"178 250 OFFCURVE",
"223 216 OFFCURVE",
"288 170 CURVE SMOOTH",
"409 84 OFFCURVE",
"527 -3 OFFCURVE",
"640 -90 CURVE"
);
},
{
closed = 1;
nodes = (
"783 384 LINE",
"751 447 OFFCURVE",
"720 505 OFFCURVE",
"690 560 CURVE",
"577 503 LINE",
"612 439 OFFCURVE",
"643 381 OFFCURVE",
"670 330 CURVE"
);
},
{
closed = 1;
nodes = (
"960 420 LINE",
"939 461 OFFCURVE",
"908 521 OFFCURVE",
"865 600 CURVE",
"750 542 LINE",
"785 479 OFFCURVE",
"817 420 OFFCURVE",
"845 365 CURVE"
);
}
);
vertWidth = 1000;
width = 1000;
},
{
layerId = "14B87609-B57D-449B-8E42-0E3479D6265D";
paths = (
{
closed = 1;
nodes = (
"677 -43 LINE",
"511 110 OFFCURVE",
"364 231 OFFCURVE",
"235 320 CURVE SMOOTH",
"188 353 OFFCURVE",
"160 370 OFFCURVE",
"160 400 CURVE SMOOTH",
"160 433 OFFCURVE",
"192 453 OFFCURVE",
"248 492 CURVE SMOOTH",
"383 587 OFFCURVE",
"516 690 OFFCURVE",
"647 802 CURVE",
"633 818 LINE",
"494 698 OFFCURVE",
"362 595 OFFCURVE",
"237 508 CURVE SMOOTH",
"196 479 OFFCURVE",
"170 459 OFFCURVE",
"158 447 CURVE SMOOTH",
"146 434 OFFCURVE",
"140 419 OFFCURVE",
"140 400 CURVE SMOOTH",
"140 376 OFFCURVE",
"149 361 OFFCURVE",
"168 345 CURVE SMOOTH",
"181 333 OFFCURVE",
"200 321 OFFCURVE",
"224 304 CURVE SMOOTH",
"356 211 OFFCURVE",
"502 90 OFFCURVE",
"663 -57 CURVE"
);
},
{
closed = 1;
nodes = (
"751 419 LINE",
"720 476 OFFCURVE",
"683 536 OFFCURVE",
"640 601 CURVE",
"624 589 LINE",
"659 536 OFFCURVE",
"696 476 OFFCURVE",
"733 409 CURVE"
);
},
{
closed = 1;
nodes = (
"889 460 LINE",
"855 521 OFFCURVE",
"817 583 OFFCURVE",
"775 646 CURVE",
"759 634 LINE",
"794 582 OFFCURVE",
"832 521 OFFCURVE",
"871 450 CURVE"
);
}
);
vertWidth = 1000;
width = 1000;
}
);
note = uni3050;
unicode = 3050;
},
{
glyphname = "ke-hira";
lastChange = "2020-06-28 11:55:53 +0000";
layers = (
{
layerId = "53C12EC5-7AF6-4A76-BF07-F72C20CC49D7";
paths = (
{
closed = 1;
nodes = (
"671 3 OFFCURVE",
"751 58 OFFCURVE",
"791 164 CURVE SMOOTH",
"810 217 OFFCURVE",
"820 289 OFFCURVE",
"820 380 CURVE SMOOTH",
"820 470 LINE",
"950 470 LINE",
"950 630 LINE",
"820 630 LINE",
"820 810 LINE",
"640 810 LINE",
"640 630 LINE",
"380 630 LINE",
"380 470 LINE",
"640 470 LINE",
"640 380 LINE SMOOTH",
"640 314 OFFCURVE",
"640 238 OFFCURVE",
"610 199 CURVE SMOOTH",
"584 164 OFFCURVE",
"512 141 OFFCURVE",
"440 120 CURVE",
"500 -40 LINE"
);
},
{
closed = 1;
nodes = (
"327 -20 LINE",
"296 104 OFFCURVE",
"280 237 OFFCURVE",
"280 380 CURVE SMOOTH",
"280 523 OFFCURVE",
"296 656 OFFCURVE",
"327 780 CURVE",
"140 800 LINE",
"107 667 OFFCURVE",
"90 527 OFFCURVE",
"90 380 CURVE SMOOTH",
"90 233 OFFCURVE",
"107 93 OFFCURVE",
"140 -40 CURVE"
);
}
);
vertWidth = 1000;
width = 1000;
},
{
layerId = "14B87609-B57D-449B-8E42-0E3479D6265D";
paths = (
{
closed = 1;
nodes = (
"606 5 OFFCURVE",
"675 36 OFFCURVE",
"713 95 CURVE SMOOTH",
"753 166 OFFCURVE",
"760 270 OFFCURVE",
"760 390 CURVE SMOOTH",
"760 570 LINE",
"940 570 LINE",
"940 590 LINE",
"760 590 LINE",
"760 790 LINE",
"740 790 LINE",
"740 590 LINE",
"360 590 LINE",
"360 570 LINE",
"740 570 LINE",
"740 390 LINE SMOOTH",
"740 283 OFFCURVE",
"737 177 OFFCURVE",
"694 103 CURVE SMOOTH",
"661 49 OFFCURVE",
"589 22 OFFCURVE",
"507 0 CURVE",
"513 -20 LINE"
);
},
{
closed = 1;
nodes = (
"190 -17 LINE",
"157 109 OFFCURVE",
"140 241 OFFCURVE",
"140 380 CURVE SMOOTH",
"140 519 OFFCURVE",
"157 651 OFFCURVE",
"190 777 CURVE",
"170 783 LINE",
"137 657 OFFCURVE",
"120 523 OFFCURVE",
"120 380 CURVE SMOOTH",
"120 237 OFFCURVE",
"137 103 OFFCURVE",
"170 -23 CURVE"
);
}
);
vertWidth = 1000;
width = 1000;
}
);
note = uni3051;
unicode = 3051;
},
{
glyphname = "ge-hira";
lastChange = "2020-06-28 11:55:53 +0000";
layers = (
{
layerId = "53C12EC5-7AF6-4A76-BF07-F72C20CC49D7";
paths = (
{
closed = 1;
nodes = (
"606 -13 OFFCURVE",
"706 34 OFFCURVE",
"751 154 CURVE SMOOTH",
"770 207 OFFCURVE",
"780 279 OFFCURVE",
"780 370 CURVE SMOOTH",
"780 450 LINE",
"930 450 LINE",
"930 610 LINE",
"780 610 LINE",
"780 800 LINE",
"600 800 LINE",
"600 610 LINE",
"360 610 LINE",
"360 450 LINE",
"600 450 LINE",
"600 370 LINE SMOOTH",
"600 304 OFFCURVE",
"600 228 OFFCURVE",
"570 189 CURVE SMOOTH",
"544 154 OFFCURVE",
"472 131 OFFCURVE",
"400 110 CURVE",
"460 -50 LINE"
);
},
{
closed = 1;
nodes = (
"297 -30 LINE",
"266 94 OFFCURVE",
"250 227 OFFCURVE",
"250 370 CURVE SMOOTH",
"250 513 OFFCURVE",
"266 646 OFFCURVE",
"297 770 CURVE",
"120 790 LINE",
"87 657 OFFCURVE",
"70 517 OFFCURVE",
"70 370 CURVE SMOOTH",
"70 223 OFFCURVE",
"87 83 OFFCURVE",
"120 -50 CURVE"
);
},
{
closed = 1;
nodes = (
"841 700 LINE",
"818 747 OFFCURVE",
"792 796 OFFCURVE",
"765 847 CURVE",
"671 800 LINE",
"700 747 OFFCURVE",
"726 699 OFFCURVE",
"747 655 CURVE"
);
},
{
closed = 1;
nodes = (
"995 722 LINE",
"974 766 OFFCURVE",
"948 816 OFFCURVE",
"917 872 CURVE",
"821 824 LINE",
"837 795 OFFCURVE",
"863 745 OFFCURVE",
"899 676 CURVE"
);
}
);
vertWidth = 1000;
width = 1000;
},
{
layerId = "14B87609-B57D-449B-8E42-0E3479D6265D";
paths = (
{
closed = 1;
nodes = (
"564 -6 OFFCURVE",
"639 27 OFFCURVE",
"676 91 CURVE SMOOTH",
"714 158 OFFCURVE",
"720 264 OFFCURVE",
"720 380 CURVE SMOOTH",
"720 560 LINE",
"930 560 LINE",
"930 580 LINE",
"720 580 LINE",
"720 780 LINE",
"700 780 LINE",
"700 580 LINE",
"350 580 LINE",
"350 560 LINE",
"700 560 LINE",
"700 380 LINE SMOOTH",
"700 273 OFFCURVE",
"697 167 OFFCURVE",
"654 93 CURVE SMOOTH",
"621 39 OFFCURVE",
"549 12 OFFCURVE",
"467 -10 CURVE",
"473 -30 LINE"
);
},
{
closed = 1;
nodes = (
"190 -27 LINE",
"157 99 OFFCURVE",
"140 231 OFFCURVE",
"140 370 CURVE SMOOTH",
"140 509 OFFCURVE",
"157 641 OFFCURVE",
"190 767 CURVE",
"170 773 LINE",
"137 647 OFFCURVE",
"120 513 OFFCURVE",
"120 370 CURVE SMOOTH",
"120 227 OFFCURVE",
"137 93 OFFCURVE",
"170 -33 CURVE"
);
},
{
closed = 1;
nodes = (
"871 700 LINE",
"842 753 OFFCURVE",
"811 804 OFFCURVE",
"778 851 CURVE",
"762 839 LINE",
"796 788 OFFCURVE",
"826 738 OFFCURVE",
"853 690 CURVE"
);
},
{
closed = 1;
nodes = (
"994 716 LINE",
"961 774 OFFCURVE",
"930 826 OFFCURVE",
"899 871 CURVE",
"883 859 LINE",
"918 806 OFFCURVE",
"949 755 OFFCURVE",
"976 706 CURVE"
);
}
);
vertWidth = 1000;
width = 1000;
}
);
note = uni3052;
unicode = 3052;
},
{
glyphname = "kesmall-hira";
lastChange = "2020-06-28 11:55:53 +0000";
layers = (
{
layerId = "53C12EC5-7AF6-4A76-BF07-F72C20CC49D7";
paths = (
{
closed = 1;
nodes = (
"616 -8 OFFCURVE",
"683 27 OFFCURVE",
"720 88 CURVE SMOOTH",
"750 138 OFFCURVE",
"761 205 OFFCURVE",
"761 300 CURVE SMOOTH",
"761 367 LINE",
"860 367 LINE",
"860 505 LINE",
"761 505 LINE",
"761 644 LINE",
"607 644 LINE",
"607 505 LINE",
"399 505 LINE",
"399 367 LINE",
"607 367 LINE",
"607 310 LINE SMOOTH",
"607 237 OFFCURVE",
"604 196 OFFCURVE",
"585 168 CURVE SMOOTH",
"564 139 OFFCURVE",
"523 124 OFFCURVE",
"447 102 CURVE",
"505 -36 LINE"
);
},
{
closed = 1;
nodes = (
"372 -20 LINE",
"347 79 OFFCURVE",
"334 186 OFFCURVE",
"334 300 CURVE SMOOTH",
"334 414 OFFCURVE",
"347 521 OFFCURVE",
"372 620 CURVE",
"212 636 LINE",
"185 529 OFFCURVE",
"172 417 OFFCURVE",
"172 300 CURVE SMOOTH",
"172 183 OFFCURVE",
"185 71 OFFCURVE",
"212 -36 CURVE"
);
}
);
vertWidth = 1000;
width = 1000;
},
{
layerId = "14B87609-B57D-449B-8E42-0E3479D6265D";
paths = (
{
closed = 1;
nodes = (
"597 1 OFFCURVE",
"645 28 OFFCURVE",
"672 74 CURVE SMOOTH",
"704 122 OFFCURVE",
"710 220 OFFCURVE",
"710 308 CURVE SMOOTH",
"710 450 LINE",
"852 450 LINE",
"852 470 LINE",
"710 470 LINE",
"710 628 LINE",
"690 628 LINE",
"690 470 LINE",
"388 470 LINE",
"388 450 LINE",
"690 450 LINE",
"690 308 LINE SMOOTH",
"690 210 OFFCURVE",
"682 134 OFFCURVE",
"655 85 CURVE SMOOTH",
"628 36 OFFCURVE",
"580 18 OFFCURVE",
"505 -2 CURVE",
"511 -22 LINE"
);
},
{
closed = 1;
nodes = (
"254 -17 LINE",
"227 83 OFFCURVE",
"214 189 OFFCURVE",
"214 300 CURVE SMOOTH",
"214 411 OFFCURVE",
"227 517 OFFCURVE",
"254 617 CURVE",
"234 623 LINE",
"207 522 OFFCURVE",
"194 415 OFFCURVE",
"194 300 CURVE SMOOTH",
"194 185 OFFCURVE",
"207 78 OFFCURVE",
"234 -23 CURVE"
);
}
);
vertWidth = 1000;
width = 1000;
}
);
note = uni3096;
unicode = 3096;
},
{
glyphname = "ko-hira";
lastChange = "2020-06-28 11:55:53 +0000";
layers = (
{
layerId = "53C12EC5-7AF6-4A76-BF07-F72C20CC49D7";
paths = (
{
closed = 1;
nodes = (
"601 -40 OFFCURVE",
"771 -17 OFFCURVE",
"870 10 CURVE",
"835 180 LINE",
"739 153 OFFCURVE",
"581 130 OFFCURVE",
"500 130 CURVE SMOOTH",
"411 130 OFFCURVE",
"305 147 OFFCURVE",
"305 210 CURVE SMOOTH",
"305 248 OFFCURVE",
"362 308 OFFCURVE",
"415 360 CURVE",
"275 460 LINE",
"152 341 OFFCURVE",
"110 269 OFFCURVE",
"110 190 CURVE SMOOTH",
"110 51 OFFCURVE",
"255 -40 OFFCURVE",
"500 -40 CURVE SMOOTH"
);
},
{
closed = 1;
nodes = (
"810 595 LINE",
"810 760 LINE",
"200 760 LINE",
"200 595 LINE"
);
}
);
vertWidth = 1000;
width = 1000;
},
{
layerId = "14B87609-B57D-449B-8E42-0E3479D6265D";
paths = (
{
closed = 1;
nodes = (
"625 0 OFFCURVE",
"768 17 OFFCURVE",
"843 40 CURVE",
"837 60 LINE",
"764 37 OFFCURVE",
"623 20 OFFCURVE",
"510 20 CURVE SMOOTH",
"297 20 OFFCURVE",
"160 91 OFFCURVE",
"160 200 CURVE SMOOTH",
"160 253 OFFCURVE",
"202 320 OFFCURVE",
"287 403 CURVE",
"273 417 LINE",
"184 332 OFFCURVE",
"140 259 OFFCURVE",
"140 200 CURVE SMOOTH",
"140 79 OFFCURVE",
"285 0 OFFCURVE",
"510 0 CURVE SMOOTH"
);
},
{
closed = 1;
nodes = (
"780 700 LINE",
"780 720 LINE",
"230 720 LINE",
"230 700 LINE"
);
}
);
vertWidth = 1000;
width = 1000;
}
);
note = uni3053;
unicode = 3053;
},
{
glyphname = "go-hira";
lastChange = "2020-06-28 11:57:13 +0000";
layers = (
{
layerId = "53C12EC5-7AF6-4A76-BF07-F72C20CC49D7";
paths = (
{
closed = 1;
nodes = (
"591 -40 OFFCURVE",
"761 -17 OFFCURVE",
"860 10 CURVE",
"825 180 LINE",
"729 153 OFFCURVE",
"571 130 OFFCURVE",
"490 130 CURVE SMOOTH",
"401 130 OFFCURVE",
"295 147 OFFCURVE",
"295 210 CURVE SMOOTH",
"295 248 OFFCURVE",
"352 308 OFFCURVE",
"405 360 CURVE",
"265 460 LINE",
"142 341 OFFCURVE",
"100 269 OFFCURVE",
"100 190 CURVE SMOOTH",
"100 51 OFFCURVE",
"245 -40 OFFCURVE",
"490 -40 CURVE SMOOTH"
);
},
{
closed = 1;
nodes = (
"800 615 LINE",
"800 780 LINE",
"190 780 LINE",
"190 615 LINE"
);
},
{
closed = 1;
nodes = (
"788 393 LINE",
"762 444 OFFCURVE",
"734 498 OFFCURVE",
"703 555 CURVE",
"600 503 LINE",
"631 450 OFFCURVE",
"659 397 OFFCURVE",
"685 344 CURVE"
);
},
{
closed = 1;
nodes = (
"950 425 LINE",
"916 492 OFFCURVE",
"887 547 OFFCURVE",
"863 590 CURVE",
"758 537 LINE",
"786 487 OFFCURVE",
"815 433 OFFCURVE",
"845 375 CURVE"
);
}
);
vertWidth = 1000;
width = 1000;
},
{
layerId = "14B87609-B57D-449B-8E42-0E3479D6265D";
paths = (
{
closed = 1;
nodes = (
"615 0 OFFCURVE",
"758 17 OFFCURVE",
"833 40 CURVE",
"827 60 LINE",
"754 37 OFFCURVE",
"613 20 OFFCURVE",
"500 20 CURVE SMOOTH",
"287 20 OFFCURVE",
"150 91 OFFCURVE",
"150 200 CURVE SMOOTH",
"150 253 OFFCURVE",
"192 320 OFFCURVE",
"277 403 CURVE",
"263 417 LINE",
"174 332 OFFCURVE",
"130 259 OFFCURVE",
"130 200 CURVE SMOOTH",
"130 79 OFFCURVE",
"275 0 OFFCURVE",
"500 0 CURVE SMOOTH"
);
},
{
closed = 1;
nodes = (
"770 720 LINE",
"770 740 LINE",
"220 740 LINE",
"220 720 LINE"
);
},
{
closed = 1;
nodes = (
"801 427 LINE",
"776 473 OFFCURVE",
"743 529 OFFCURVE",
"700 594 CURVE",
"684 582 LINE",
"717 533 OFFCURVE",
"750 478 OFFCURVE",
"783 417 CURVE"
);
},
{
closed = 1;
nodes = (
"929 465 LINE",
"904 512 OFFCURVE",
"869 569 OFFCURVE",
"824 636 CURVE",
"808 624 LINE",
"842 573 OFFCURVE",
"876 517 OFFCURVE",
"911 455 CURVE"
);
}
);
vertWidth = 1000;
width = 1000;
}
);
note = uni3054;
unicode = 3054;
},
{
glyphname = "sa-hira";
lastChange = "2020-06-28 11:55:53 +0000";
layers = (
{
layerId = "53C12EC5-7AF6-4A76-BF07-F72C20CC49D7";
paths = (
{
closed = 1;
nodes = (
"629 -40 OFFCURVE",
"723 -30 OFFCURVE",
"810 -10 CURVE",
"780 150 LINE",
"708 134 OFFCURVE",
"587 120 OFFCURVE",
"530 120 CURVE SMOOTH",
"397 120 OFFCURVE",
"330 161 OFFCURVE",
"330 230 CURVE SMOOTH",
"330 281 OFFCURVE",
"368 310 OFFCURVE",
"440 310 CURVE SMOOTH",
"506 310 OFFCURVE",
"571 292 OFFCURVE",
"635 255 CURVE",
"810 330 LINE",
"706 495 OFFCURVE",
"678 594 OFFCURVE",
"670 830 CURVE",
"490 820 LINE",
"497 661 OFFCURVE",
"517 540 OFFCURVE",
"551 456 CURVE",
"549 454 LINE",
"504 465 OFFCURVE",
"464 470 OFFCURVE",
"430 470 CURVE SMOOTH",
"246 470 OFFCURVE",
"140 380 OFFCURVE",
"140 240 CURVE SMOOTH",
"140 65 OFFCURVE",
"281 -40 OFFCURVE",
"530 -40 CURVE SMOOTH"
);
},
{
closed = 1;
nodes = (
"339 550 OFFCURVE",
"614 557 OFFCURVE",
"915 570 CURVE",
"910 730 LINE",
"611 717 OFFCURVE",
"338 710 OFFCURVE",
"90 710 CURVE",
"90 550 LINE"
);
}
);
vertWidth = 1000;
width = 1000;
},
{
layerId = "14B87609-B57D-449B-8E42-0E3479D6265D";
paths = (
{
closed = 1;
nodes = (
"611 -10 OFFCURVE",
"689 -3 OFFCURVE",
"762 10 CURVE",
"758 30 LINE",
"680 17 OFFCURVE",
"604 10 OFFCURVE",
"530 10 CURVE SMOOTH",
"303 10 OFFCURVE",
"190 80 OFFCURVE",
"190 220 CURVE SMOOTH",
"190 335 OFFCURVE",
"285 400 OFFCURVE",
"450 400 CURVE SMOOTH",
"558 400 OFFCURVE",
"677 365 OFFCURVE",
"754 312 CURVE",
"768 326 LINE",
"680 452 OFFCURVE",
"627 614 OFFCURVE",
"610 811 CURVE",
"590 809 LINE",
"605 629 OFFCURVE",
"652 477 OFFCURVE",
"729 352 CURVE",
"727 350 LINE",
"640 397 OFFCURVE",
"548 420 OFFCURVE",
"450 420 CURVE SMOOTH",
"273 420 OFFCURVE",
"170 347 OFFCURVE",
"170 220 CURVE SMOOTH",
"170 51 OFFCURVE",
"326 -10 OFFCURVE",
"530 -10 CURVE SMOOTH"
);
},
{
closed = 1;
nodes = (
"365 635 OFFCURVE",
"626 642 OFFCURVE",
"891 655 CURVE",
"889 675 LINE",
"624 662 OFFCURVE",
"365 655 OFFCURVE",
"110 655 CURVE",
"110 635 LINE"
);
}
);
vertWidth = 1000;
width = 1000;
}
);
note = uni3055;
unicode = 3055;
},
{
glyphname = "za-hira";
lastChange = "2020-06-28 11:55:53 +0000";
layers = (
{
layerId = "53C12EC5-7AF6-4A76-BF07-F72C20CC49D7";
paths = (
{
closed = 1;
nodes = (
"604 -50 OFFCURVE",
"698 -40 OFFCURVE",
"785 -20 CURVE",
"755 140 LINE",
"683 124 OFFCURVE",
"562 110 OFFCURVE",
"505 110 CURVE SMOOTH",
"372 110 OFFCURVE",
"305 151 OFFCURVE",
"305 220 CURVE SMOOTH",
"305 268 OFFCURVE",
"340 300 OFFCURVE",
"395 300 CURVE SMOOTH",
"461 300 OFFCURVE",
"526 282 OFFCURVE",
"590 245 CURVE",
"765 320 LINE",
"661 485 OFFCURVE",
"633 584 OFFCURVE",
"625 820 CURVE",
"445 810 LINE",
"452 651 OFFCURVE",
"472 530 OFFCURVE",
"506 446 CURVE",
"504 444 LINE",
"459 455 OFFCURVE",
"419 460 OFFCURVE",
"385 460 CURVE SMOOTH",
"220 460 OFFCURVE",
"115 369 OFFCURVE",
"115 230 CURVE SMOOTH",
"115 55 OFFCURVE",
"256 -50 OFFCURVE",
"505 -50 CURVE SMOOTH"
);
},
{
closed = 1;
nodes = (
"324 532 OFFCURVE",
"599 539 OFFCURVE",
"900 552 CURVE",
"895 712 LINE",
"596 699 OFFCURVE",
"323 692 OFFCURVE",
"75 692 CURVE",
"75 532 LINE"
);
},
{
closed = 1;
nodes = (
"836 708 LINE",
"813 755 OFFCURVE",
"787 804 OFFCURVE",
"760 855 CURVE",
"666 808 LINE",
"695 755 OFFCURVE",
"721 707 OFFCURVE",
"742 663 CURVE"
);
},
{
closed = 1;
nodes = (
"990 720 LINE",
"969 764 OFFCURVE",
"943 814 OFFCURVE",
"912 870 CURVE",
"816 822 LINE",
"832 793 OFFCURVE",
"858 743 OFFCURVE",
"894 674 CURVE"
);
}
);
vertWidth = 1000;
width = 1000;
},
{
layerId = "14B87609-B57D-449B-8E42-0E3479D6265D";
paths = (
{
closed = 1;
nodes = (
"601 -20 OFFCURVE",
"679 -13 OFFCURVE",
"752 0 CURVE",
"748 20 LINE",
"670 7 OFFCURVE",
"594 0 OFFCURVE",
"520 0 CURVE SMOOTH",
"293 0 OFFCURVE",
"180 70 OFFCURVE",
"180 210 CURVE SMOOTH",
"180 325 OFFCURVE",
"275 390 OFFCURVE",
"440 390 CURVE SMOOTH",
"548 390 OFFCURVE",
"667 355 OFFCURVE",
"744 302 CURVE",
"758 316 LINE",
"670 442 OFFCURVE",
"617 604 OFFCURVE",
"600 801 CURVE",
"580 799 LINE",
"595 619 OFFCURVE",
"642 467 OFFCURVE",
"719 342 CURVE",
"717 340 LINE",
"630 387 OFFCURVE",
"538 410 OFFCURVE",
"440 410 CURVE SMOOTH",
"263 410 OFFCURVE",
"160 337 OFFCURVE",
"160 210 CURVE SMOOTH",
"160 41 OFFCURVE",
"316 -20 OFFCURVE",
"520 -20 CURVE SMOOTH"
);
},
{
closed = 1;
nodes = (
"355 615 OFFCURVE",
"616 622 OFFCURVE",
"881 635 CURVE",
"879 655 LINE",
"614 642 OFFCURVE",
"355 635 OFFCURVE",
"100 635 CURVE",
"100 615 LINE"
);
},
{
closed = 1;
nodes = (
"866 705 LINE",
"837 758 OFFCURVE",
"806 809 OFFCURVE",
"773 856 CURVE",
"757 844 LINE",
"791 793 OFFCURVE",
"821 743 OFFCURVE",
"848 695 CURVE"
);
},
{
closed = 1;
nodes = (
"989 721 LINE",
"956 779 OFFCURVE",
"925 831 OFFCURVE",
"894 876 CURVE",
"878 864 LINE",
"913 811 OFFCURVE",
"944 760 OFFCURVE",
"971 711 CURVE"
);
}
);
vertWidth = 1000;
width = 1000;
}
);
note = uni3056;
unicode = 3056;
},
{
glyphname = "si-hira";
lastChange = "2020-06-28 11:55:53 +0000";
layers = (
{
layerId = "53C12EC5-7AF6-4A76-BF07-F72C20CC49D7";
paths = (
{
closed = 1;
nodes = (
"677 -40 OFFCURVE",
"820 73 OFFCURVE",
"920 340 CURVE",
"750 405 LINE",
"671 213 OFFCURVE",
"588 140 OFFCURVE",
"480 140 CURVE SMOOTH",
"370 140 OFFCURVE",
"355 216 OFFCURVE",
"355 360 CURVE SMOOTH",
"355 505 OFFCURVE",
"360 650 OFFCURVE",
"370 795 CURVE",
"175 800 LINE",
"165 661 OFFCURVE",
"160 515 OFFCURVE",
"160 360 CURVE SMOOTH",
"160 77 OFFCURVE",
"221 -40 OFFCURVE",
"480 -40 CURVE SMOOTH"
);
}
);
vertWidth = 1000;
width = 1000;
},
{
layerId = "14B87609-B57D-449B-8E42-0E3479D6265D";
paths = (
{
closed = 1;
nodes = (
"655 -30 OFFCURVE",
"800 100 OFFCURVE",
"879 317 CURVE",
"861 323 LINE",
"785 114 OFFCURVE",
"646 -10 OFFCURVE",
"490 -10 CURVE SMOOTH",
"287 -10 OFFCURVE",
"250 99 OFFCURVE",
"250 330 CURVE SMOOTH",
"250 445 OFFCURVE",
"253 599 OFFCURVE",
"260 790 CURVE",
"240 790 LINE",
"233 599 OFFCURVE",
"230 445 OFFCURVE",
"230 330 CURVE SMOOTH",
"230 61 OFFCURVE",
"295 -30 OFFCURVE",
"490 -30 CURVE SMOOTH"
);
}
);
vertWidth = 1000;
width = 1000;
}
);
note = uni3057;
unicode = 3057;
},
{
glyphname = "zi-hira";
lastChange = "2020-06-28 11:55:53 +0000";
layers = (
{
layerId = "53C12EC5-7AF6-4A76-BF07-F72C20CC49D7";
paths = (
{
closed = 1;
nodes = (
"657 -40 OFFCURVE",
"800 73 OFFCURVE",
"900 340 CURVE",
"730 405 LINE",
"651 213 OFFCURVE",
"568 140 OFFCURVE",
"460 140 CURVE SMOOTH",
"350 140 OFFCURVE",
"335 216 OFFCURVE",
"335 360 CURVE SMOOTH",
"335 505 OFFCURVE",
"340 650 OFFCURVE",
"350 795 CURVE",
"155 800 LINE",
"145 661 OFFCURVE",
"140 515 OFFCURVE",
"140 360 CURVE SMOOTH",
"140 77 OFFCURVE",
"201 -40 OFFCURVE",
"460 -40 CURVE SMOOTH"
);
},
{
closed = 1;
nodes = (
"713 594 LINE",
"681 657 OFFCURVE",
"650 715 OFFCURVE",
"620 770 CURVE",
"507 713 LINE",
"542 649 OFFCURVE",
"573 591 OFFCURVE",
"600 540 CURVE"
);
},
{
closed = 1;
nodes = (
"890 630 LINE",
"869 671 OFFCURVE",
"838 731 OFFCURVE",
"795 810 CURVE",
"680 752 LINE",
"715 689 OFFCURVE",
"747 630 OFFCURVE",
"775 575 CURVE"
);
}
);
vertWidth = 1000;
width = 1000;
},
{
layerId = "14B87609-B57D-449B-8E42-0E3479D6265D";
paths = (
{
closed = 1;
nodes = (
"625 -30 OFFCURVE",
"770 100 OFFCURVE",
"849 317 CURVE",
"831 323 LINE",
"755 114 OFFCURVE",
"616 -10 OFFCURVE",
"460 -10 CURVE SMOOTH",
"255 -10 OFFCURVE",
"220 101 OFFCURVE",
"220 330 CURVE SMOOTH",
"220 445 OFFCURVE",
"223 599 OFFCURVE",
"230 790 CURVE",
"210 790 LINE",
"203 599 OFFCURVE",
"200 445 OFFCURVE",
"200 330 CURVE SMOOTH",
"200 61 OFFCURVE",
"265 -30 OFFCURVE",
"460 -30 CURVE SMOOTH"
);
},
{
closed = 1;
nodes = (
"691 579 LINE",
"660 636 OFFCURVE",
"623 696 OFFCURVE",
"580 761 CURVE",
"564 749 LINE",
"599 696 OFFCURVE",
"636 636 OFFCURVE",
"673 569 CURVE"
);
},
{
closed = 1;
nodes = (
"829 620 LINE",
"795 681 OFFCURVE",
"757 743 OFFCURVE",
"715 806 CURVE",
"699 794 LINE",
"734 742 OFFCURVE",
"772 681 OFFCURVE",
"811 610 CURVE"
);
}
);
vertWidth = 1000;
width = 1000;
}
);
note = uni3058;
unicode = 3058;
},
{
glyphname = "su-hira";
lastChange = "2020-06-28 11:55:53 +0000";
layers = (
{
layerId = "53C12EC5-7AF6-4A76-BF07-F72C20CC49D7";
paths = (
{
closed = 1;
nodes = (
"600 -25 OFFCURVE",
"715 72 OFFCURVE",
"715 280 CURVE SMOOTH",
"715 331 OFFCURVE",
"703 378 OFFCURVE",
"680 420 CURVE",
"680 600 LINE",
"940 600 LINE",
"940 750 LINE",
"680 750 LINE",
"680 840 LINE",
"500 840 LINE",
"500 750 LINE",
"60 750 LINE",
"60 600 LINE",
"500 600 LINE",
"500 560 LINE",
"498 559 LINE",
"479 566 OFFCURVE",
"449 570 OFFCURVE",
"430 570 CURVE SMOOTH",
"289 570 OFFCURVE",
"200 491 OFFCURVE",
"200 370 CURVE SMOOTH",
"200 250 OFFCURVE",
"289 170 OFFCURVE",
"420 170 CURVE SMOOTH",
"454 170 OFFCURVE",
"492 177 OFFCURVE",
"524 191 CURVE",
"526 189 LINE",
"525 185 OFFCURVE",
"524 181 OFFCURVE",
"522 178 CURVE SMOOTH",
"499 132 OFFCURVE",
"364 113 OFFCURVE",
"270 110 CURVE",
"300 -50 LINE"
);
},
{
closed = 1;
nodes = (
"375 450 OFFCURVE",
"515 450 OFFCURVE",
"515 370 CURVE SMOOTH",
"515 290 OFFCURVE",
"375 290 OFFCURVE",
"375 370 CURVE SMOOTH"
);
}
);
vertWidth = 1000;
width = 1000;
},
{
layerId = "14B87609-B57D-449B-8E42-0E3479D6265D";
paths = (
{
closed = 1;
nodes = (
"557 6 OFFCURVE",
"650 108 OFFCURVE",
"650 300 CURVE SMOOTH",
"650 335 OFFCURVE",
"647 369 OFFCURVE",
"640 404 CURVE",
"640 660 LINE",
"920 660 LINE",
"920 680 LINE",
"640 680 LINE",
"640 830 LINE",
"620 830 LINE",
"620 680 LINE",
"80 680 LINE",
"80 660 LINE",
"620 660 LINE",
"620 469 LINE",
"618 469 LINE",
"590 530 OFFCURVE",
"528 570 OFFCURVE",
"460 570 CURVE SMOOTH",
"361 570 OFFCURVE",
"280 489 OFFCURVE",
"280 390 CURVE SMOOTH",
"280 291 OFFCURVE",
"361 210 OFFCURVE",
"460 210 CURVE SMOOTH",
"535 210 OFFCURVE",
"607 260 OFFCURVE",
"628 329 CURVE",
"630 329 LINE",
"631 319 OFFCURVE",
"631 310 OFFCURVE",
"631 300 CURVE SMOOTH",
"631 117 OFFCURVE",
"545 25 OFFCURVE",
"348 -10 CURVE",
"352 -30 LINE"
);
},
{
closed = 1;
nodes = (
"300 600 OFFCURVE",
"620 600 OFFCURVE",
"620 390 CURVE SMOOTH",
"620 180 OFFCURVE",
"300 180 OFFCURVE",
"300 390 CURVE SMOOTH"
);
}
);
vertWidth = 1000;
width = 1000;
}
);
note = uni3059;
unicode = 3059;
},
{
glyphname = "zu-hira";
lastChange = "2020-06-28 11:55:53 +0000";
layers = (
{
layerId = "53C12EC5-7AF6-4A76-BF07-F72C20CC49D7";
paths = (
{
closed = 1;
nodes = (
"550 -25 OFFCURVE",
"665 72 OFFCURVE",
"665 280 CURVE SMOOTH",
"665 331 OFFCURVE",
"653 378 OFFCURVE",
"630 420 CURVE",
"630 600 LINE",
"920 600 LINE",
"920 750 LINE",
"630 750 LINE",
"630 840 LINE",
"450 840 LINE",
"450 750 LINE",
"40 750 LINE",
"40 600 LINE",
"450 600 LINE",
"450 560 LINE",
"448 559 LINE",
"421 566 OFFCURVE",
"399 570 OFFCURVE",
"380 570 CURVE SMOOTH",
"239 570 OFFCURVE",
"150 491 OFFCURVE",
"150 370 CURVE SMOOTH",
"150 250 OFFCURVE",
"239 170 OFFCURVE",
"370 170 CURVE SMOOTH",
"404 170 OFFCURVE",
"439 177 OFFCURVE",
"474 191 CURVE",
"476 189 LINE",
"476 186 OFFCURVE",
"475 183 OFFCURVE",
"473 180 CURVE SMOOTH",
"442 125 OFFCURVE",
"337 120 OFFCURVE",
"220 110 CURVE",
"250 -50 LINE"
);
},
{
closed = 1;
nodes = (
"325 450 OFFCURVE",
"465 450 OFFCURVE",
"465 370 CURVE SMOOTH",
"465 290 OFFCURVE",
"325 290 OFFCURVE",
"325 370 CURVE SMOOTH"
);
},
{
closed = 1;
nodes = (
"833 353 LINE",
"807 404 OFFCURVE",
"779 458 OFFCURVE",
"748 515 CURVE",
"645 463 LINE",
"676 410 OFFCURVE",
"704 357 OFFCURVE",
"730 304 CURVE"
);
},
{
closed = 1;
nodes = (
"995 385 LINE",
"961 452 OFFCURVE",
"932 507 OFFCURVE",
"908 550 CURVE",
"803 497 LINE",
"831 447 OFFCURVE",
"860 393 OFFCURVE",
"890 335 CURVE"
);
}
);
vertWidth = 1000;
width = 1000;
},
{
layerId = "14B87609-B57D-449B-8E42-0E3479D6265D";
paths = (
{
closed = 1;
nodes = (
"517 6 OFFCURVE",
"610 108 OFFCURVE",
"610 300 CURVE SMOOTH",
"610 335 OFFCURVE",
"607 369 OFFCURVE",
"600 404 CURVE",
"600 660 LINE",
"900 660 LINE",
"900 680 LINE",
"600 680 LINE",
"600 830 LINE",
"580 830 LINE",
"580 680 LINE",
"60 680 LINE",
"60 660 LINE",
"580 660 LINE",
"580 469 LINE",
"578 469 LINE",
"550 530 OFFCURVE",
"488 570 OFFCURVE",
"420 570 CURVE SMOOTH",
"321 570 OFFCURVE",
"240 489 OFFCURVE",
"240 390 CURVE SMOOTH",
"240 291 OFFCURVE",
"321 210 OFFCURVE",
"420 210 CURVE SMOOTH",
"495 210 OFFCURVE",
"567 260 OFFCURVE",
"588 329 CURVE",
"590 329 LINE",
"591 317 OFFCURVE",
"591 310 OFFCURVE",
"591 300 CURVE SMOOTH",
"591 117 OFFCURVE",
"505 25 OFFCURVE",
"308 -10 CURVE",
"312 -30 LINE"
);
},
{
closed = 1;
nodes = (
"260 600 OFFCURVE",
"580 600 OFFCURVE",
"580 390 CURVE SMOOTH",
"580 180 OFFCURVE",
"260 180 OFFCURVE",
"260 390 CURVE SMOOTH"
);
},
{
closed = 1;
nodes = (
"836 377 LINE",
"811 423 OFFCURVE",
"778 479 OFFCURVE",
"735 544 CURVE",
"719 532 LINE",
"752 483 OFFCURVE",
"785 428 OFFCURVE",
"818 367 CURVE"
);
},
{
closed = 1;
nodes = (
"964 415 LINE",
"939 462 OFFCURVE",
"904 519 OFFCURVE",
"859 586 CURVE",
"843 574 LINE",
"877 523 OFFCURVE",
"911 467 OFFCURVE",
"946 405 CURVE"
);
}
);
vertWidth = 1000;
width = 1000;
}
);
note = uni305A;
unicode = 305A;
},
{
glyphname = "se-hira";
lastChange = "2020-06-28 11:55:53 +0000";
layers = (
{
layerId = "53C12EC5-7AF6-4A76-BF07-F72C20CC49D7";
paths = (
{
closed = 1;
nodes = (
"643 -40 OFFCURVE",
"746 -33 OFFCURVE",
"850 -20 CURVE",
"835 145 LINE",
"724 132 OFFCURVE",
"625 125 OFFCURVE",
"540 125 CURVE SMOOTH",
"426 125 OFFCURVE",
"380 126 OFFCURVE",
"380 220 CURVE SMOOTH",
"380 800 LINE",
"200 800 LINE",
"200 220 LINE SMOOTH",
"200 -3 OFFCURVE",
"295 -40 OFFCURVE",
"540 -40 CURVE SMOOTH"
);
},
{
closed = 1;
nodes = (
"325 495 OFFCURVE",
"620 502 OFFCURVE",
"942 515 CURVE",
"937 675 LINE",
"616 662 OFFCURVE",
"322 655 OFFCURVE",
"57 655 CURVE",
"57 495 LINE"
);
},
{
closed = 1;
nodes = (
"765 205 OFFCURVE",
"810 251 OFFCURVE",
"810 355 CURVE SMOOTH",
"810 820 LINE",
"635 820 LINE",
"635 420 LINE SMOOTH",
"635 389 OFFCURVE",
"631 385 OFFCURVE",
"610 385 CURVE SMOOTH",
"585 385 OFFCURVE",
"545 390 OFFCURVE",
"490 400 CURVE",
"460 235 LINE",
"517 220 OFFCURVE",
"623 205 OFFCURVE",
"670 205 CURVE SMOOTH"
);
}
);
vertWidth = 1000;
width = 1000;
},
{
layerId = "14B87609-B57D-449B-8E42-0E3479D6265D";
paths = (
{
closed = 1;
nodes = (
"658 -10 OFFCURVE",
"749 -3 OFFCURVE",
"822 10 CURVE",
"818 30 LINE",
"740 17 OFFCURVE",
"651 10 OFFCURVE",
"550 10 CURVE SMOOTH",
"344 10 OFFCURVE",
"270 21 OFFCURVE",
"270 220 CURVE SMOOTH",
"270 790 LINE",
"250 790 LINE",
"250 220 LINE SMOOTH",
"250 10 OFFCURVE",
"327 -10 OFFCURVE",
"550 -10 CURVE SMOOTH"
);
},
{
closed = 1;
nodes = (
"355 555 OFFCURVE",
"635 562 OFFCURVE",
"920 575 CURVE",
"920 595 LINE",
"635 582 OFFCURVE",
"355 575 OFFCURVE",
"80 575 CURVE",
"80 555 LINE"
);
},
{
closed = 1;
nodes = (
"744 270 OFFCURVE",
"750 282 OFFCURVE",
"750 390 CURVE SMOOTH",
"750 820 LINE",
"730 820 LINE",
"730 390 LINE SMOOTH",
"730 311 OFFCURVE",
"737 290 OFFCURVE",
"680 290 CURVE SMOOTH",
"637 290 OFFCURVE",
"518 318 OFFCURVE",
"474 339 CURVE",
"466 321 LINE",
"513 300 OFFCURVE",
"635 270 OFFCURVE",
"680 270 CURVE SMOOTH"
);
}
);
vertWidth = 1000;
width = 1000;
}
);
note = uni305B;
unicode = 305B;
},
{
glyphname = "ze-hira";
lastChange = "2020-06-28 11:55:53 +0000";
layers = (
{
layerId = "53C12EC5-7AF6-4A76-BF07-F72C20CC49D7";
paths = (
{
closed = 1;
nodes = (
"623 -50 OFFCURVE",
"726 -43 OFFCURVE",
"830 -30 CURVE",
"815 135 LINE",
"704 122 OFFCURVE",
"605 115 OFFCURVE",
"520 115 CURVE SMOOTH",
"407 115 OFFCURVE",
"360 115 OFFCURVE",
"360 210 CURVE SMOOTH",
"360 790 LINE",
"180 790 LINE",
"180 210 LINE SMOOTH",
"180 -9 OFFCURVE",
"271 -50 OFFCURVE",
"520 -50 CURVE SMOOTH"
);
},
{
closed = 1;
nodes = (
"315 465 OFFCURVE",
"610 472 OFFCURVE",
"932 485 CURVE",
"927 645 LINE",
"606 632 OFFCURVE",
"312 625 OFFCURVE",
"47 625 CURVE",
"47 465 LINE"
);
},
{
closed = 1;
nodes = (
"735 195 OFFCURVE",
"780 241 OFFCURVE",
"780 345 CURVE SMOOTH",
"780 810 LINE",
"605 810 LINE",
"605 410 LINE SMOOTH",
"605 379 OFFCURVE",
"601 375 OFFCURVE",
"580 375 CURVE SMOOTH",
"555 375 OFFCURVE",
"515 380 OFFCURVE",
"460 390 CURVE",
"430 225 LINE",
"487 210 OFFCURVE",
"593 195 OFFCURVE",
"640 195 CURVE SMOOTH"
);
},
{
closed = 1;
nodes = (
"836 708 LINE",
"813 755 OFFCURVE",
"787 804 OFFCURVE",
"760 855 CURVE",
"666 808 LINE",
"695 755 OFFCURVE",
"721 707 OFFCURVE",
"742 663 CURVE"
);
},
{
closed = 1;
nodes = (
"990 720 LINE",
"969 764 OFFCURVE",
"943 814 OFFCURVE",
"912 870 CURVE",
"816 822 LINE",
"832 793 OFFCURVE",
"858 743 OFFCURVE",
"894 674 CURVE"
);
}
);
vertWidth = 1000;
width = 1000;
},
{
layerId = "14B87609-B57D-449B-8E42-0E3479D6265D";
paths = (
{
closed = 1;
nodes = (
"638 -20 OFFCURVE",
"729 -13 OFFCURVE",
"802 0 CURVE",
"798 20 LINE",
"720 7 OFFCURVE",
"631 0 OFFCURVE",
"530 0 CURVE SMOOTH",
"318 0 OFFCURVE",
"250 14 OFFCURVE",
"250 210 CURVE SMOOTH",
"250 780 LINE",
"230 780 LINE",
"230 210 LINE SMOOTH",
"230 5 OFFCURVE",
"301 -20 OFFCURVE",
"530 -20 CURVE SMOOTH"
);
},
{
closed = 1;
nodes = (
"345 545 OFFCURVE",
"625 552 OFFCURVE",
"910 565 CURVE",
"910 585 LINE",
"625 572 OFFCURVE",
"345 565 OFFCURVE",
"70 565 CURVE",
"70 545 LINE"
);
},
{
closed = 1;
nodes = (
"714 260 OFFCURVE",
"720 272 OFFCURVE",
"720 380 CURVE SMOOTH",
"720 810 LINE",
"700 810 LINE",
"700 380 LINE SMOOTH",
"700 301 OFFCURVE",
"707 280 OFFCURVE",
"650 280 CURVE SMOOTH",
"607 280 OFFCURVE",
"488 308 OFFCURVE",
"444 329 CURVE",
"436 311 LINE",
"483 290 OFFCURVE",
"605 260 OFFCURVE",
"650 260 CURVE SMOOTH"
);
},
{
closed = 1;
nodes = (
"866 705 LINE",
"837 758 OFFCURVE",
"806 809 OFFCURVE",
"773 856 CURVE",
"757 844 LINE",
"791 793 OFFCURVE",
"821 743 OFFCURVE",
"848 695 CURVE"
);
},
{
closed = 1;
nodes = (
"989 721 LINE",
"956 779 OFFCURVE",
"925 831 OFFCURVE",
"894 876 CURVE",
"878 864 LINE",
"913 811 OFFCURVE",
"944 760 OFFCURVE",
"971 711 CURVE"
);
}
);
vertWidth = 1000;
width = 1000;
}
);
note = uni305C;
unicode = 305C;
},
{
glyphname = "so-hira";
lastChange = "2020-06-28 11:55:53 +0000";
layers = (
{
layerId = "53C12EC5-7AF6-4A76-BF07-F72C20CC49D7";
paths = (
{
closed = 1;
nodes = (
"721 -40 OFFCURVE",
"791 -33 OFFCURVE",
"860 -20 CURVE",
"840 145 LINE",
"773 132 OFFCURVE",
"709 125 OFFCURVE",
"650 125 CURVE SMOOTH",
"572 125 OFFCURVE",
"510 136 OFFCURVE",
"510 195 CURVE SMOOTH",
"510 240 OFFCURVE",
"548 293 OFFCURVE",
"611 328 CURVE",
"925 350 LINE",
"915 510 LINE",
"573 485 LINE",
"573 487 LINE",
"649 528 OFFCURVE",
"731 575 OFFCURVE",
"820 630 CURVE",
"820 790 LINE",
"210 790 LINE",
"210 630 LINE",
"520 630 LINE",
"521 628 LINE",
"330 496 OFFCURVE",
"247 465 OFFCURVE",
"55 450 CURVE",
"65 290 LINE",
"376 313 LINE",
"376 311 LINE",
"332 270 OFFCURVE",
"310 223 OFFCURVE",
"310 170 CURVE SMOOTH",
"310 30 OFFCURVE",
"423 -40 OFFCURVE",
"650 -40 CURVE SMOOTH"
);
}
);
vertWidth = 1000;
width = 1000;
},
{
layerId = "14B87609-B57D-449B-8E42-0E3479D6265D";
paths = (
{
closed = 1;
nodes = (
"720 -20 OFFCURVE",
"764 -17 OFFCURVE",
"802 -10 CURVE",
"798 10 LINE",
"761 3 OFFCURVE",
"719 0 OFFCURVE",
"670 0 CURVE SMOOTH",
"517 0 OFFCURVE",
"360 33 OFFCURVE",
"360 170 CURVE SMOOTH",
"360 286 OFFCURVE",
"475 387 OFFCURVE",
"682 454 CURVE",
"901 470 LINE",
"899 490 LINE",
"226 440 LINE",
"225 442 LINE",
"379 491 OFFCURVE",
"552 591 OFFCURVE",
"743 740 CURVE",
"743 760 LINE",
"240 760 LINE",
"240 740 LINE",
"710 740 LINE",
"711 738 LINE",
"467 551 OFFCURVE",
"242 442 OFFCURVE",
"79 430 CURVE",
"81 410 LINE",
"607 449 LINE",
"607 448 LINE",
"429 377 OFFCURVE",
"340 284 OFFCURVE",
"340 170 CURVE SMOOTH",
"340 27 OFFCURVE",
"490 -20 OFFCURVE",
"670 -20 CURVE SMOOTH"
);
}
);
vertWidth = 1000;
width = 1000;
}
);
note = uni305D;
unicode = 305D;
},
{
glyphname = "zo-hira";
lastChange = "2020-06-28 11:55:42 +0000";
layers = (
{
layerId = "53C12EC5-7AF6-4A76-BF07-F72C20CC49D7";
paths = (
{
closed = 1;
nodes = (
"701 -40 OFFCURVE",
"771 -33 OFFCURVE",
"840 -20 CURVE",
"820 145 LINE",
"753 132 OFFCURVE",
"689 125 OFFCURVE",
"630 125 CURVE SMOOTH",
"552 125 OFFCURVE",
"490 136 OFFCURVE",
"490 195 CURVE SMOOTH",
"490 240 OFFCURVE",
"528 293 OFFCURVE",
"591 328 CURVE",
"905 350 LINE",
"895 510 LINE",
"456 478 LINE",
"456 480 LINE",
"539 523 OFFCURVE",
"627 573 OFFCURVE",
"722 630 CURVE",
"702 790 LINE",
"152 790 LINE",
"152 630 LINE",
"422 630 LINE",
"423 628 LINE",
"264 496 OFFCURVE",
"195 465 OFFCURVE",
"35 450 CURVE",
"45 290 LINE",
"356 313 LINE",
"356 311 LINE",
"312 270 OFFCURVE",
"290 223 OFFCURVE",
"290 170 CURVE SMOOTH",
"290 30 OFFCURVE",
"403 -40 OFFCURVE",
"630 -40 CURVE SMOOTH"
);
},
{
closed = 1;
nodes = (
"841 588 LINE",
"818 635 OFFCURVE",
"792 684 OFFCURVE",
"765 735 CURVE",
"671 688 LINE",
"700 635 OFFCURVE",
"726 587 OFFCURVE",
"747 543 CURVE"
);
},
{
closed = 1;
nodes = (
"995 600 LINE",
"974 644 OFFCURVE",
"948 694 OFFCURVE",
"917 750 CURVE",
"821 702 LINE",
"837 673 OFFCURVE",
"863 623 OFFCURVE",
"899 554 CURVE"
);
}
);
vertWidth = 1000;
width = 1000;
},
{
layerId = "14B87609-B57D-449B-8E42-0E3479D6265D";
paths = (
{
closed = 1;
nodes = (
"680 -20 OFFCURVE",
"724 -17 OFFCURVE",
"762 -10 CURVE",
"758 10 LINE",
"721 3 OFFCURVE",
"679 0 OFFCURVE",
"630 0 CURVE SMOOTH",
"477 0 OFFCURVE",
"320 33 OFFCURVE",
"320 170 CURVE SMOOTH",
"320 286 OFFCURVE",
"435 387 OFFCURVE",
"642 454 CURVE",
"861 470 LINE",
"859 490 LINE",
"186 440 LINE",
"185 442 LINE",
"339 491 OFFCURVE",
"512 591 OFFCURVE",
"703 740 CURVE",
"703 760 LINE",
"200 760 LINE",
"200 740 LINE",
"670 740 LINE",
"671 738 LINE",
"427 551 OFFCURVE",
"202 442 OFFCURVE",
"39 430 CURVE",
"41 410 LINE",
"567 449 LINE",
"567 448 LINE",
"389 377 OFFCURVE",
"300 284 OFFCURVE",
"300 170 CURVE SMOOTH",
"300 27 OFFCURVE",
"450 -20 OFFCURVE",
"630 -20 CURVE SMOOTH"
);
},
{
closed = 1;
nodes = (
"856 575 LINE",
"827 628 OFFCURVE",
"796 679 OFFCURVE",
"763 726 CURVE",
"747 714 LINE",
"781 663 OFFCURVE",
"811 613 OFFCURVE",
"838 565 CURVE"
);
},
{
closed = 1;
nodes = (
"979 591 LINE",
"946 649 OFFCURVE",
"915 701 OFFCURVE",
"884 746 CURVE",
"868 734 LINE",
"903 681 OFFCURVE",
"934 630 OFFCURVE",
"961 581 CURVE"
);
}
);
vertWidth = 1000;
width = 1000;
}
);
note = uni305E;
unicode = 305E;
},
{
glyphname = "ta-hira";
lastChange = "2020-06-28 11:57:39 +0000";
layers = (
{
layerId = "53C12EC5-7AF6-4A76-BF07-F72C20CC49D7";
paths = (
{
closed = 1;
nodes = (
"327 227 OFFCURVE",
"393 517 OFFCURVE",
"440 825 CURVE",
"260 840 LINE",
"212 541 OFFCURVE",
"145 259 OFFCURVE",
"60 -5 CURVE",
"240 -45 LINE"
);
},
{
closed = 1;
nodes = (
"777 -30 OFFCURVE",
"847 -23 OFFCURVE",
"920 -10 CURVE",
"900 150 LINE",
"831 137 OFFCURVE",
"768 130 OFFCURVE",
"710 130 CURVE SMOOTH",
"648 130 OFFCURVE",
"570 144 OFFCURVE",
"570 185 CURVE SMOOTH",
"570 207 OFFCURVE",
"590 225 OFFCURVE",
"625 260 CURVE",
"480 315 LINE",
"420 265 OFFCURVE",
"390 215 OFFCURVE",
"390 165 CURVE SMOOTH",
"390 52 OFFCURVE",
"513 -30 OFFCURVE",
"710 -30 CURVE SMOOTH"
);
},
{
closed = 1;
nodes = (
"760 570 LINE",
"760 730 LINE",
"90 730 LINE",
"90 570 LINE"
);
},
{
closed = 1;
nodes = (
"624 368 OFFCURVE",
"760 375 OFFCURVE",
"895 375 CURVE",
"895 530 LINE",
"756 530 OFFCURVE",
"616 523 OFFCURVE",
"475 510 CURVE",
"485 355 LINE"
);
}
);
vertWidth = 1000;
width = 1000;
},
{
layerId = "14B87609-B57D-449B-8E42-0E3479D6265D";
paths = (
{
closed = 1;
nodes = (
"210 239 OFFCURVE",
"287 520 OFFCURVE",
"340 818 CURVE",
"320 822 LINE",
"267 525 OFFCURVE",
"191 245 OFFCURVE",
"91 -16 CURVE",
"109 -24 LINE"
);
},
{
closed = 1;
nodes = (
"747 0 OFFCURVE",
"817 7 OFFCURVE",
"892 20 CURVE",
"888 40 LINE",
"814 27 OFFCURVE",
"745 20 OFFCURVE",
"680 20 CURVE SMOOTH",
"533 20 OFFCURVE",
"430 73 OFFCURVE",
"430 150 CURVE SMOOTH",
"430 190 OFFCURVE",
"468 234 OFFCURVE",
"545 282 CURVE",
"535 298 LINE",
"447 243 OFFCURVE",
"410 199 OFFCURVE",
"410 150 CURVE SMOOTH",
"410 62 OFFCURVE",
"521 0 OFFCURVE",
"680 0 CURVE SMOOTH"
);
},
{
closed = 1;
nodes = (
"690 660 LINE",
"690 680 LINE",
"120 680 LINE",
"120 660 LINE"
);
},
{
closed = 1;
nodes = (
"612 470 OFFCURVE",
"741 480 OFFCURVE",
"870 480 CURVE",
"870 500 LINE",
"733 500 OFFCURVE",
"603 490 OFFCURVE",
"478 470 CURVE",
"482 450 LINE"
);
}
);
vertWidth = 1000;
width = 1000;
}
);
note = uni305F;
unicode = 305F;
},
{
glyphname = "da-hira";
lastChange = "2020-06-28 11:57:44 +0000";
layers = (
{
layerId = "53C12EC5-7AF6-4A76-BF07-F72C20CC49D7";
paths = (
{
closed = 1;
nodes = (
"317 217 OFFCURVE",
"383 507 OFFCURVE",
"430 815 CURVE",
"250 830 LINE",
"202 531 OFFCURVE",
"135 249 OFFCURVE",
"50 -15 CURVE",
"230 -55 LINE"
);
},
{
closed = 1;
nodes = (
"767 -40 OFFCURVE",
"837 -33 OFFCURVE",
"910 -20 CURVE",
"890 140 LINE",
"821 127 OFFCURVE",
"758 120 OFFCURVE",
"700 120 CURVE SMOOTH",
"638 120 OFFCURVE",
"560 134 OFFCURVE",
"560 175 CURVE SMOOTH",
"560 197 OFFCURVE",
"580 215 OFFCURVE",
"615 250 CURVE",
"470 305 LINE",
"410 255 OFFCURVE",
"380 205 OFFCURVE",
"380 155 CURVE SMOOTH",
"380 42 OFFCURVE",
"503 -40 OFFCURVE",
"700 -40 CURVE SMOOTH"
);
},
{
closed = 1;
nodes = (
"750 560 LINE",
"750 720 LINE",
"80 720 LINE",
"80 560 LINE"
);
},
{
closed = 1;
nodes = (
"614 358 OFFCURVE",
"750 365 OFFCURVE",
"885 365 CURVE",
"885 520 LINE",
"746 520 OFFCURVE",
"606 513 OFFCURVE",
"465 500 CURVE",
"475 345 LINE"
);
},
{
closed = 1;
nodes = (
"836 708 LINE",
"813 755 OFFCURVE",
"787 804 OFFCURVE",
"760 855 CURVE",
"666 808 LINE",
"695 755 OFFCURVE",
"721 707 OFFCURVE",
"742 663 CURVE"
);
},
{
closed = 1;
nodes = (
"990 720 LINE",
"969 764 OFFCURVE",
"943 814 OFFCURVE",
"912 870 CURVE",
"816 822 LINE",
"832 793 OFFCURVE",
"858 743 OFFCURVE",
"894 674 CURVE"
);
}
);
vertWidth = 1000;
width = 1000;
},
{
layerId = "14B87609-B57D-449B-8E42-0E3479D6265D";
paths = (
{
closed = 1;
nodes = (
"200 229 OFFCURVE",
"277 510 OFFCURVE",
"330 808 CURVE",
"310 812 LINE",
"257 515 OFFCURVE",
"181 235 OFFCURVE",
"81 -26 CURVE",
"99 -34 LINE"
);
},
{
closed = 1;
nodes = (
"737 -10 OFFCURVE",
"807 -3 OFFCURVE",
"882 10 CURVE",
"878 30 LINE",
"804 17 OFFCURVE",
"735 10 OFFCURVE",
"670 10 CURVE SMOOTH",
"523 10 OFFCURVE",
"420 63 OFFCURVE",
"420 140 CURVE SMOOTH",
"420 180 OFFCURVE",
"458 224 OFFCURVE",
"535 272 CURVE",
"525 288 LINE",
"437 233 OFFCURVE",
"400 189 OFFCURVE",
"400 140 CURVE SMOOTH",
"400 52 OFFCURVE",
"511 -10 OFFCURVE",
"670 -10 CURVE SMOOTH"
);
},
{
closed = 1;
nodes = (
"680 650 LINE",
"680 670 LINE",
"110 670 LINE",
"110 650 LINE"
);
},
{
closed = 1;
nodes = (
"602 460 OFFCURVE",
"731 470 OFFCURVE",
"860 470 CURVE",
"860 490 LINE",
"723 490 OFFCURVE",
"593 480 OFFCURVE",
"468 460 CURVE",
"472 440 LINE"
);
},
{
closed = 1;
nodes = (
"826 675 LINE",
"797 728 OFFCURVE",
"766 779 OFFCURVE",
"733 826 CURVE",
"717 814 LINE",
"751 763 OFFCURVE",
"781 713 OFFCURVE",
"808 665 CURVE"
);
},
{
closed = 1;
nodes = (
"949 691 LINE",
"916 749 OFFCURVE",
"885 801 OFFCURVE",
"854 846 CURVE",
"838 834 LINE",
"873 781 OFFCURVE",
"904 730 OFFCURVE",
"931 681 CURVE"
);
}
);
vertWidth = 1000;
width = 1000;
}
);
note = uni3060;
unicode = 3060;
},
{
glyphname = "ti-hira";
lastChange = "2020-06-28 11:55:53 +0000";
layers = (
{
layerId = "53C12EC5-7AF6-4A76-BF07-F72C20CC49D7";
paths = (
{
closed = 1;
nodes = (
"712 -40 OFFCURVE",
"860 69 OFFCURVE",
"860 230 CURVE SMOOTH",
"860 387 OFFCURVE",
"757 480 OFFCURVE",
"570 480 CURVE SMOOTH",
"522 480 OFFCURVE",
"471 473 OFFCURVE",
"416 459 CURVE",
"414 461 LINE",
"453 576 OFFCURVE",
"478 695 OFFCURVE",
"490 820 CURVE",
"310 830 LINE",
"289 633 OFFCURVE",
"253 510 OFFCURVE",
"160 310 CURVE",
"325 245 LINE",
"416 304 OFFCURVE",
"469 320 OFFCURVE",
"560 320 CURVE SMOOTH",
"633 320 OFFCURVE",
"670 293 OFFCURVE",
"670 240 CURVE SMOOTH",
"670 168 OFFCURVE",
"599 120 OFFCURVE",
"480 120 CURVE SMOOTH",
"413 120 OFFCURVE",
"337 130 OFFCURVE",
"250 150 CURVE",
"220 -10 LINE",
"305 -30 OFFCURVE",
"392 -40 OFFCURVE",
"480 -40 CURVE SMOOTH"
);
},
{
closed = 1;
nodes = (
"910 560 LINE",
"910 720 LINE",
"90 720 LINE",
"90 560 LINE"
);
}
);
vertWidth = 1000;
width = 1000;
},
{
layerId = "14B87609-B57D-449B-8E42-0E3479D6265D";
paths = (
{
closed = 1;
nodes = (
"693 -10 OFFCURVE",
"830 80 OFFCURVE",
"830 220 CURVE SMOOTH",
"830 353 OFFCURVE",
"740 420 OFFCURVE",
"560 420 CURVE SMOOTH",
"471 420 OFFCURVE",
"341 384 OFFCURVE",
"256 337 CURVE",
"254 338 LINE",
"329 485 OFFCURVE",
"381 641 OFFCURVE",
"410 808 CURVE",
"390 812 LINE",
"355 619 OFFCURVE",
"309 479 OFFCURVE",
"221 315 CURVE",
"236 302 LINE",
"311 354 OFFCURVE",
"463 400 OFFCURVE",
"560 400 CURVE SMOOTH",
"727 400 OFFCURVE",
"810 340 OFFCURVE",
"810 220 CURVE SMOOTH",
"810 92 OFFCURVE",
"680 10 OFFCURVE",
"480 10 CURVE SMOOTH",
"402 10 OFFCURVE",
"326 17 OFFCURVE",
"252 30 CURVE",
"248 10 LINE",
"323 -3 OFFCURVE",
"401 -10 OFFCURVE",
"480 -10 CURVE SMOOTH"
);
},
{
closed = 1;
nodes = (
"890 640 LINE",
"890 660 LINE",
"110 660 LINE",
"110 640 LINE"
);
}
);
vertWidth = 1000;
width = 1000;
}
);
note = uni3061;
unicode = 3061;
},
{
glyphname = "di-hira";
lastChange = "2020-06-28 11:55:53 +0000";
layers = (
{
layerId = "53C12EC5-7AF6-4A76-BF07-F72C20CC49D7";
paths = (
{
closed = 1;
nodes = (
"702 -50 OFFCURVE",
"850 59 OFFCURVE",
"850 220 CURVE SMOOTH",
"850 377 OFFCURVE",
"747 470 OFFCURVE",
"560 470 CURVE SMOOTH",
"512 470 OFFCURVE",
"461 463 OFFCURVE",
"406 449 CURVE",
"404 451 LINE",
"443 566 OFFCURVE",
"468 685 OFFCURVE",
"480 810 CURVE",
"300 820 LINE",
"279 623 OFFCURVE",
"243 500 OFFCURVE",
"150 300 CURVE",
"315 235 LINE",
"406 294 OFFCURVE",
"459 310 OFFCURVE",
"550 310 CURVE SMOOTH",
"623 310 OFFCURVE",
"660 283 OFFCURVE",
"660 230 CURVE SMOOTH",
"660 158 OFFCURVE",
"589 110 OFFCURVE",
"470 110 CURVE SMOOTH",
"403 110 OFFCURVE",
"327 120 OFFCURVE",
"240 140 CURVE",
"210 -20 LINE",
"295 -40 OFFCURVE",
"382 -50 OFFCURVE",
"470 -50 CURVE SMOOTH"
);
},
{
closed = 1;
nodes = (
"900 550 LINE",
"900 710 LINE",
"80 710 LINE",
"80 550 LINE"
);
},
{
closed = 1;
nodes = (
"836 708 LINE",
"813 755 OFFCURVE",
"787 804 OFFCURVE",
"760 855 CURVE",
"666 808 LINE",
"695 755 OFFCURVE",
"721 707 OFFCURVE",
"742 663 CURVE"
);
},
{
closed = 1;
nodes = (
"990 720 LINE",
"969 764 OFFCURVE",
"943 814 OFFCURVE",
"912 870 CURVE",
"816 822 LINE",
"832 793 OFFCURVE",
"858 743 OFFCURVE",
"894 674 CURVE"
);
}
);
vertWidth = 1000;
width = 1000;
},
{
layerId = "14B87609-B57D-449B-8E42-0E3479D6265D";
paths = (
{
closed = 1;
nodes = (
"683 -20 OFFCURVE",
"820 70 OFFCURVE",
"820 210 CURVE SMOOTH",
"820 343 OFFCURVE",
"730 410 OFFCURVE",
"550 410 CURVE SMOOTH",
"461 410 OFFCURVE",
"331 374 OFFCURVE",
"246 327 CURVE",
"244 328 LINE",
"319 475 OFFCURVE",
"371 631 OFFCURVE",
"400 798 CURVE",
"380 802 LINE",
"345 609 OFFCURVE",
"299 469 OFFCURVE",
"211 305 CURVE",
"226 292 LINE",
"301 344 OFFCURVE",
"453 390 OFFCURVE",
"550 390 CURVE SMOOTH",
"717 390 OFFCURVE",
"800 330 OFFCURVE",
"800 210 CURVE SMOOTH",
"800 82 OFFCURVE",
"670 0 OFFCURVE",
"470 0 CURVE SMOOTH",
"392 0 OFFCURVE",
"316 7 OFFCURVE",
"242 20 CURVE",
"238 0 LINE",
"313 -13 OFFCURVE",
"391 -20 OFFCURVE",
"470 -20 CURVE SMOOTH"
);
},
{
closed = 1;
nodes = (
"880 620 LINE",
"880 640 LINE",
"100 640 LINE",
"100 620 LINE"
);
},
{
closed = 1;
nodes = (
"866 695 LINE",
"837 748 OFFCURVE",
"806 799 OFFCURVE",
"773 846 CURVE",
"757 834 LINE",
"791 783 OFFCURVE",
"821 733 OFFCURVE",
"848 685 CURVE"
);
},
{
closed = 1;
nodes = (
"989 711 LINE",
"956 769 OFFCURVE",
"925 821 OFFCURVE",
"894 866 CURVE",
"878 854 LINE",
"913 801 OFFCURVE",
"944 750 OFFCURVE",
"971 701 CURVE"
);
}
);
vertWidth = 1000;
width = 1000;
}
);
note = uni3062;
unicode = 3062;
},
{
glyphname = "tu-hira";
lastChange = "2020-06-28 11:57:56 +0000";
layers = (
{
layerId = "53C12EC5-7AF6-4A76-BF07-F72C20CC49D7";
paths = (
{
closed = 1;
nodes = (
"723 -10 OFFCURVE",
"930 129 OFFCURVE",
"930 410 CURVE SMOOTH",
"930 627 OFFCURVE",
"800 735 OFFCURVE",
"540 735 CURVE SMOOTH",
"440 735 OFFCURVE",
"283 712 OFFCURVE",
"70 665 CURVE",
"110 485 LINE",
"309 528 OFFCURVE",
"445 550 OFFCURVE",
"520 550 CURVE SMOOTH",
"667 550 OFFCURVE",
"725 502 OFFCURVE",
"725 390 CURVE SMOOTH",
"725 202 OFFCURVE",
"506 170 OFFCURVE",
"245 170 CURVE",
"260 -10 LINE"
);
}
);
vertWidth = 1000;
width = 1000;
},
{
layerId = "14B87609-B57D-449B-8E42-0E3479D6265D";
paths = (
{
closed = 1;
nodes = (
"680 20 OFFCURVE",
"900 148 OFFCURVE",
"900 380 CURVE SMOOTH",
"900 587 OFFCURVE",
"777 690 OFFCURVE",
"530 690 CURVE SMOOTH",
"427 690 OFFCURVE",
"283 663 OFFCURVE",
"97 610 CURVE",
"103 590 LINE",
"287 643 OFFCURVE",
"429 670 OFFCURVE",
"530 670 CURVE SMOOTH",
"766 670 OFFCURVE",
"880 575 OFFCURVE",
"880 380 CURVE SMOOTH",
"880 157 OFFCURVE",
"673 40 OFFCURVE",
"280 40 CURVE",
"280 20 LINE"
);
}
);
vertWidth = 1000;
width = 1000;
}
);
note = uni3064;
unicode = 3064;
},
{
glyphname = "tusmall-hira";
lastChange = "2020-06-28 11:57:58 +0000";
layers = (
{
layerId = "53C12EC5-7AF6-4A76-BF07-F72C20CC49D7";
paths = (
{
closed = 1;
nodes = (
"679 -12 OFFCURVE",
"844 99 OFFCURVE",
"844 324 CURVE SMOOTH",
"844 497 OFFCURVE",
"740 584 OFFCURVE",
"532 584 CURVE SMOOTH",
"450 584 OFFCURVE",
"325 565 OFFCURVE",
"156 528 CURVE",
"188 374 LINE",
"343 409 OFFCURVE",
"452 426 OFFCURVE",
"516 426 CURVE SMOOTH",
"625 426 OFFCURVE",
"670 393 OFFCURVE",
"670 316 CURVE SMOOTH",
"670 170 OFFCURVE",
"499 142 OFFCURVE",
"296 142 CURVE",
"308 -12 LINE"
);
}
);
vertWidth = 1000;
width = 1000;
},
{
layerId = "14B87609-B57D-449B-8E42-0E3479D6265D";
paths = (
{
closed = 1;
nodes = (
"645 10 OFFCURVE",
"822 113 OFFCURVE",
"822 300 CURVE SMOOTH",
"822 467 OFFCURVE",
"723 550 OFFCURVE",
"524 550 CURVE SMOOTH",
"441 550 OFFCURVE",
"326 529 OFFCURVE",
"177 486 CURVE",
"183 466 LINE",
"334 509 OFFCURVE",
"447 530 OFFCURVE",
"524 530 CURVE SMOOTH",
"709 530 OFFCURVE",
"802 453 OFFCURVE",
"802 300 CURVE SMOOTH",
"802 123 OFFCURVE",
"637 30 OFFCURVE",
"324 30 CURVE",
"324 10 LINE"
);
}
);
vertWidth = 1000;
width = 1000;
}
);
note = uni3063;
unicode = 3063;
},
{
glyphname = "du-hira";
lastChange = "2020-06-28 11:58:01 +0000";
layers = (
{
layerId = "53C12EC5-7AF6-4A76-BF07-F72C20CC49D7";
paths = (
{
closed = 1;
nodes = (
"713 -20 OFFCURVE",
"920 119 OFFCURVE",
"920 400 CURVE SMOOTH",
"920 617 OFFCURVE",
"790 725 OFFCURVE",
"530 725 CURVE SMOOTH",
"430 725 OFFCURVE",
"273 702 OFFCURVE",
"60 655 CURVE",
"100 475 LINE",
"299 518 OFFCURVE",
"436 540 OFFCURVE",
"510 540 CURVE SMOOTH",
"657 540 OFFCURVE",
"715 492 OFFCURVE",
"715 380 CURVE SMOOTH",
"715 192 OFFCURVE",
"496 160 OFFCURVE",
"235 160 CURVE",
"250 -20 LINE"
);
},
{
closed = 1;
nodes = (
"836 708 LINE",
"813 755 OFFCURVE",
"787 804 OFFCURVE",
"760 855 CURVE",
"666 808 LINE",
"695 755 OFFCURVE",
"721 707 OFFCURVE",
"742 663 CURVE"
);
},
{
closed = 1;
nodes = (
"990 720 LINE",
"969 764 OFFCURVE",
"943 814 OFFCURVE",
"912 870 CURVE",
"816 822 LINE",
"832 793 OFFCURVE",
"858 743 OFFCURVE",
"894 674 CURVE"
);
}
);
vertWidth = 1000;
width = 1000;
},
{
layerId = "14B87609-B57D-449B-8E42-0E3479D6265D";
paths = (
{
closed = 1;
nodes = (
"670 10 OFFCURVE",
"890 138 OFFCURVE",
"890 370 CURVE SMOOTH",
"890 577 OFFCURVE",
"767 680 OFFCURVE",
"520 680 CURVE SMOOTH",
"417 680 OFFCURVE",
"273 653 OFFCURVE",
"87 600 CURVE",
"93 580 LINE",
"277 633 OFFCURVE",
"419 660 OFFCURVE",
"520 660 CURVE SMOOTH",
"756 660 OFFCURVE",
"870 565 OFFCURVE",
"870 370 CURVE SMOOTH",
"870 147 OFFCURVE",
"663 30 OFFCURVE",
"270 30 CURVE",
"270 10 LINE"
);
},
{
closed = 1;
nodes = (
"836 675 LINE",
"807 728 OFFCURVE",
"776 779 OFFCURVE",
"743 826 CURVE",
"727 814 LINE",
"761 763 OFFCURVE",
"791 713 OFFCURVE",
"818 665 CURVE"
);
},
{
closed = 1;
nodes = (
"959 691 LINE",
"926 749 OFFCURVE",
"895 801 OFFCURVE",
"864 846 CURVE",
"848 834 LINE",
"883 781 OFFCURVE",
"914 730 OFFCURVE",
"941 681 CURVE"
);
}
);
vertWidth = 1000;
width = 1000;
}
);
note = uni3065;
unicode = 3065;
},
{
glyphname = "te-hira";
lastChange = "2020-06-28 11:55:53 +0000";
layers = (
{
layerId = "53C12EC5-7AF6-4A76-BF07-F72C20CC49D7";
paths = (
{
closed = 1;
nodes = (
"730 -30 OFFCURVE",
"780 -25 OFFCURVE",
"830 -15 CURVE",
"809 158 LINE",
"760 149 OFFCURVE",
"721 145 OFFCURVE",
"690 145 CURVE SMOOTH",
"566 145 OFFCURVE",
"480 218 OFFCURVE",
"480 330 CURVE SMOOTH",
"480 475 OFFCURVE",
"631 579 OFFCURVE",
"923 595 CURVE",
"918 765 LINE",
"634 752 OFFCURVE",
"356 745 OFFCURVE",
"83 745 CURVE",
"83 575 LINE",
"195 575 OFFCURVE",
"309 577 OFFCURVE",
"425 581 CURVE",
"425 579 LINE",
"333 510 OFFCURVE",
"275 402 OFFCURVE",
"275 310 CURVE SMOOTH",
"275 105 OFFCURVE",
"435 -30 OFFCURVE",
"680 -30 CURVE SMOOTH"
);
}
);
vertWidth = 1000;
width = 1000;
},
{
layerId = "14B87609-B57D-449B-8E42-0E3479D6265D";
paths = (
{
closed = 1;
nodes = (
"708 -5 OFFCURVE",
"752 -2 OFFCURVE",
"792 5 CURVE",
"788 25 LINE",
"749 18 OFFCURVE",
"706 15 OFFCURVE",
"660 15 CURVE SMOOTH",
"463 15 OFFCURVE",
"340 122 OFFCURVE",
"340 295 CURVE SMOOTH",
"340 516 OFFCURVE",
"560 674 OFFCURVE",
"901 699 CURVE",
"900 719 LINE",
"628 706 OFFCURVE",
"361 699 OFFCURVE",
"100 699 CURVE",
"100 679 LINE",
"287 679 OFFCURVE",
"494 683 OFFCURVE",
"719 692 CURVE",
"719 690 LINE",
"470 629 OFFCURVE",
"320 483 OFFCURVE",
"320 295 CURVE SMOOTH",
"320 110 OFFCURVE",
"451 -5 OFFCURVE",
"660 -5 CURVE SMOOTH"
);
}
);
vertWidth = 1000;
width = 1000;
}
);
note = uni3066;
unicode = 3066;
},
{
glyphname = "de-hira";
lastChange = "2020-06-28 11:55:53 +0000";
layers = (
{
layerId = "53C12EC5-7AF6-4A76-BF07-F72C20CC49D7";
paths = (
{
closed = 1;
nodes = (
"710 -50 OFFCURVE",
"760 -45 OFFCURVE",
"810 -35 CURVE",
"789 138 LINE",
"740 129 OFFCURVE",
"701 125 OFFCURVE",
"670 125 CURVE SMOOTH",
"545 125 OFFCURVE",
"460 199 OFFCURVE",
"460 320 CURVE SMOOTH",
"460 475 OFFCURVE",
"610 579 OFFCURVE",
"903 595 CURVE",
"898 765 LINE",
"614 752 OFFCURVE",
"336 745 OFFCURVE",
"63 745 CURVE",
"63 575 LINE",
"175 575 OFFCURVE",
"289 577 OFFCURVE",
"405 581 CURVE",
"405 579 LINE",
"313 508 OFFCURVE",
"255 400 OFFCURVE",
"255 300 CURVE SMOOTH",
"255 85 OFFCURVE",
"415 -50 OFFCURVE",
"660 -50 CURVE SMOOTH"
);
},
{
closed = 1;
nodes = (
"828 333 LINE",
"802 384 OFFCURVE",
"774 438 OFFCURVE",
"743 495 CURVE",
"640 443 LINE",
"671 390 OFFCURVE",
"699 337 OFFCURVE",
"725 284 CURVE"
);
},
{
closed = 1;
nodes = (
"990 365 LINE",
"956 432 OFFCURVE",
"927 487 OFFCURVE",
"903 530 CURVE",
"798 477 LINE",
"826 427 OFFCURVE",
"855 373 OFFCURVE",
"885 315 CURVE"
);
}
);
vertWidth = 1000;
width = 1000;
},
{
layerId = "14B87609-B57D-449B-8E42-0E3479D6265D";
paths = (
{
closed = 1;
nodes = (
"688 -25 OFFCURVE",
"732 -22 OFFCURVE",
"772 -15 CURVE",
"768 5 LINE",
"729 -2 OFFCURVE",
"686 -5 OFFCURVE",
"640 -5 CURVE SMOOTH",
"443 -5 OFFCURVE",
"320 106 OFFCURVE",
"320 283 CURVE SMOOTH",
"320 510 OFFCURVE",
"540 674 OFFCURVE",
"881 699 CURVE",
"879 719 LINE",
"594 705 OFFCURVE",
"327 698 OFFCURVE",
"80 698 CURVE",
"80 678 LINE",
"251 678 OFFCURVE",
"458 683 OFFCURVE",
"702 692 CURVE",
"702 690 LINE",
"451 627 OFFCURVE",
"300 478 OFFCURVE",
"300 283 CURVE SMOOTH",
"300 92 OFFCURVE",
"431 -25 OFFCURVE",
"640 -25 CURVE SMOOTH"
);
},
{
closed = 1;
nodes = (
"821 377 LINE",
"796 423 OFFCURVE",
"763 479 OFFCURVE",
"720 544 CURVE",
"704 532 LINE",
"737 483 OFFCURVE",
"770 428 OFFCURVE",
"803 367 CURVE"
);
},
{
closed = 1;
nodes = (
"949 415 LINE",
"924 462 OFFCURVE",
"889 519 OFFCURVE",
"844 586 CURVE",
"828 574 LINE",
"862 523 OFFCURVE",
"896 467 OFFCURVE",
"931 405 CURVE"
);
}
);
vertWidth = 1000;
width = 1000;
}
);
note = uni3067;
unicode = 3067;
},
{
glyphname = "to-hira";
lastChange = "2020-06-28 11:58:11 +0000";
layers = (
{
layerId = "53C12EC5-7AF6-4A76-BF07-F72C20CC49D7";
paths = (
{
closed = 1;
nodes = (
"624 -40 OFFCURVE",
"744 -30 OFFCURVE",
"860 -10 CURVE",
"840 160 LINE",
"727 140 OFFCURVE",
"613 130 OFFCURVE",
"500 130 CURVE SMOOTH",
"380 130 OFFCURVE",
"330 162 OFFCURVE",
"330 230 CURVE SMOOTH",
"330 343 OFFCURVE",
"642 443 OFFCURVE",
"855 490 CURVE",
"820 660 LINE",
"360 558 OFFCURVE",
"130 411 OFFCURVE",
"130 220 CURVE SMOOTH",
"130 47 OFFCURVE",
"253 -40 OFFCURVE",
"500 -40 CURVE SMOOTH"
);
},
{
closed = 1;
nodes = (
"485 440 LINE",
"454 559 OFFCURVE",
"427 682 OFFCURVE",
"405 810 CURVE",
"210 780 LINE",
"229 665 OFFCURVE",
"255 537 OFFCURVE",
"290 395 CURVE"
);
}
);
vertWidth = 1000;
width = 1000;
},
{
layerId = "14B87609-B57D-449B-8E42-0E3479D6265D";
paths = (
{
closed = 1;
nodes = (
"625 -10 OFFCURVE",
"722 -3 OFFCURVE",
"831 10 CURVE",
"829 30 LINE",
"721 17 OFFCURVE",
"625 10 OFFCURVE",
"540 10 CURVE SMOOTH",
"304 10 OFFCURVE",
"180 76 OFFCURVE",
"180 200 CURVE SMOOTH",
"180 347 OFFCURVE",
"394 471 OFFCURVE",
"822 570 CURVE",
"818 590 LINE",
"379 489 OFFCURVE",
"160 359 OFFCURVE",
"160 200 CURVE SMOOTH",
"160 65 OFFCURVE",
"295 -10 OFFCURVE",
"540 -10 CURVE SMOOTH"
);
},
{
closed = 1;
nodes = (
"380 433 LINE",
"349 549 OFFCURVE",
"322 672 OFFCURVE",
"300 802 CURVE",
"280 798 LINE",
"302 668 OFFCURVE",
"329 544 OFFCURVE",
"360 427 CURVE"
);
}
);
vertWidth = 1000;
width = 1000;
}
);
note = uni3068;
unicode = 3068;
},
{
glyphname = "do-hira";
lastChange = "2020-06-28 11:58:34 +0000";
layers = (
{
layerId = "53C12EC5-7AF6-4A76-BF07-F72C20CC49D7";
paths = (
{
closed = 1;
nodes = (
"604 -50 OFFCURVE",
"724 -40 OFFCURVE",
"840 -20 CURVE",
"820 150 LINE",
"707 130 OFFCURVE",
"593 120 OFFCURVE",
"480 120 CURVE SMOOTH",
"389 120 OFFCURVE",
"310 133 OFFCURVE",
"310 200 CURVE SMOOTH",
"310 308 OFFCURVE",
"657 390 OFFCURVE",
"835 430 CURVE",
"800 600 LINE",
"440 520 OFFCURVE",
"110 418 OFFCURVE",
"110 200 CURVE SMOOTH",
"110 35 OFFCURVE",
"224 -50 OFFCURVE",
"480 -50 CURVE SMOOTH"
);
},
{
closed = 1;
nodes = (
"465 430 LINE",
"434 549 OFFCURVE",
"407 672 OFFCURVE",
"385 800 CURVE",
"190 770 LINE",
"209 655 OFFCURVE",
"235 527 OFFCURVE",
"270 385 CURVE"
);
},
{
closed = 1;
nodes = (
"778 673 LINE",
"752 724 OFFCURVE",
"724 778 OFFCURVE",
"693 835 CURVE",
"590 783 LINE",
"621 730 OFFCURVE",
"649 677 OFFCURVE",
"675 624 CURVE"
);
},
{
closed = 1;
nodes = (
"940 705 LINE",
"906 772 OFFCURVE",
"877 827 OFFCURVE",
"853 870 CURVE",
"748 817 LINE",
"776 767 OFFCURVE",
"805 713 OFFCURVE",
"835 655 CURVE"
);
}
);
vertWidth = 1000;
width = 1000;
},
{
layerId = "14B87609-B57D-449B-8E42-0E3479D6265D";
paths = (
{
closed = 1;
nodes = (
"605 -20 OFFCURVE",
"702 -13 OFFCURVE",
"811 0 CURVE",
"809 20 LINE",
"701 7 OFFCURVE",
"605 0 OFFCURVE",
"520 0 CURVE SMOOTH",
"280 0 OFFCURVE",
"160 60 OFFCURVE",
"160 180 CURVE SMOOTH",
"160 365 OFFCURVE",
"499 469 OFFCURVE",
"802 540 CURVE",
"798 560 LINE",
"484 487 OFFCURVE",
"140 380 OFFCURVE",
"140 180 CURVE SMOOTH",
"140 47 OFFCURVE",
"267 -20 OFFCURVE",
"520 -20 CURVE SMOOTH"
);
},
{
closed = 1;
nodes = (
"363 412 LINE",
"332 524 OFFCURVE",
"304 651 OFFCURVE",
"280 792 CURVE",
"260 788 LINE",
"283 653 OFFCURVE",
"311 526 OFFCURVE",
"344 406 CURVE"
);
},
{
closed = 1;
nodes = (
"751 637 LINE",
"726 683 OFFCURVE",
"693 739 OFFCURVE",
"650 804 CURVE",
"634 792 LINE",
"667 743 OFFCURVE",
"700 688 OFFCURVE",
"733 627 CURVE"
);
},
{
closed = 1;
nodes = (
"879 675 LINE",
"854 722 OFFCURVE",
"819 779 OFFCURVE",
"774 846 CURVE",
"758 834 LINE",
"792 783 OFFCURVE",
"826 727 OFFCURVE",
"861 665 CURVE"
);
}
);
vertWidth = 1000;
width = 1000;
}
);
note = uni3069;
unicode = 3069;
},
{
glyphname = "na-hira";
lastChange = "2020-06-28 11:58:54 +0000";
layers = (
{
layerId = "53C12EC5-7AF6-4A76-BF07-F72C20CC49D7";
paths = (
{
closed = 1;
nodes = (
"707 -50 OFFCURVE",
"790 32 OFFCURVE",
"790 195 CURVE SMOOTH",
"790 545 LINE",
"836 543 OFFCURVE",
"883 538 OFFCURVE",
"930 530 CURVE",
"950 690 LINE",
"851 703 OFFCURVE",
"738 710 OFFCURVE",
"610 710 CURVE",
"610 195 LINE SMOOTH",
"610 120 OFFCURVE",
"593 100 OFFCURVE",
"540 100 CURVE SMOOTH",
"489 100 OFFCURVE",
"460 123 OFFCURVE",
"460 160 CURVE SMOOTH",
"460 196 OFFCURVE",
"488 220 OFFCURVE",
"540 220 CURVE SMOOTH",
"616 220 OFFCURVE",
"722 118 OFFCURVE",
"850 0 CURVE",
"960 120 LINE",
"797 287 OFFCURVE",
"657 370 OFFCURVE",
"540 370 CURVE SMOOTH",
"373 370 OFFCURVE",
"280 287 OFFCURVE",
"280 160 CURVE SMOOTH",
"280 31 OFFCURVE",
"376 -50 OFFCURVE",
"540 -50 CURVE SMOOTH"
);
},
{
closed = 1;
nodes = (
"291 294 OFFCURVE",
"363 549 OFFCURVE",
"415 820 CURVE",
"245 840 LINE",
"191 585 OFFCURVE",
"121 342 OFFCURVE",
"35 110 CURVE",
"200 55 LINE"
);
},
{
closed = 1;
nodes = (
"540 550 LINE",
"540 710 LINE",
"60 710 LINE",
"60 550 LINE"
);
}
);
vertWidth = 1000;
width = 1000;
},
{
layerId = "14B87609-B57D-449B-8E42-0E3479D6265D";
paths = (
{
closed = 1;
nodes = (
"639 -10 OFFCURVE",
"690 37 OFFCURVE",
"690 180 CURVE SMOOTH",
"690 650 LINE",
"779 649 OFFCURVE",
"859 642 OFFCURVE",
"928 630 CURVE",
"932 650 LINE",
"856 663 OFFCURVE",
"769 670 OFFCURVE",
"670 670 CURVE",
"670 180 LINE SMOOTH",
"670 49 OFFCURVE",
"627 10 OFFCURVE",
"490 10 CURVE SMOOTH",
"382 10 OFFCURVE",
"320 57 OFFCURVE",
"320 140 CURVE SMOOTH",
"320 220 OFFCURVE",
"377 260 OFFCURVE",
"490 260 CURVE SMOOTH",
"606 260 OFFCURVE",
"733 204 OFFCURVE",
"914 72 CURVE",
"926 88 LINE",
"742 223 OFFCURVE",
"610 280 OFFCURVE",
"490 280 CURVE SMOOTH",
"367 280 OFFCURVE",
"300 231 OFFCURVE",
"300 140 CURVE SMOOTH",
"300 47 OFFCURVE",
"371 -10 OFFCURVE",
"490 -10 CURVE SMOOTH"
);
},
{
closed = 1;
nodes = (
"195 385 OFFCURVE",
"285 615 OFFCURVE",
"350 827 CURVE",
"330 833 LINE",
"264 618 OFFCURVE",
"174 388 OFFCURVE",
"61 144 CURVE",
"79 136 LINE"
);
},
{
closed = 1;
nodes = (
"510 650 LINE",
"510 670 LINE",
"80 670 LINE",
"80 650 LINE"
);
}
);
vertWidth = 1000;
width = 1000;
}
);
note = uni306A;
unicode = 306A;
},
{
glyphname = "ni-hira";
lastChange = "2020-06-28 11:59:03 +0000";
layers = (
{
layerId = "53C12EC5-7AF6-4A76-BF07-F72C20CC49D7";
paths = (
{
closed = 1;
nodes = (
"755 -5 OFFCURVE",
"837 5 OFFCURVE",
"915 25 CURVE",
"890 190 LINE",
"810 173 OFFCURVE",
"737 165 OFFCURVE",
"670 165 CURVE SMOOTH",
"608 165 OFFCURVE",
"545 173 OFFCURVE",
"545 225 CURVE SMOOTH",
"545 248 OFFCURVE",
"568 284 OFFCURVE",
"615 335 CURVE",
"485 435 LINE",
"410 364 OFFCURVE",
"360 270 OFFCURVE",
"360 210 CURVE SMOOTH",
"360 78 OFFCURVE",
"475 -5 OFFCURVE",
"670 -5 CURVE SMOOTH"
);
},
{
closed = 1;
nodes = (
"337 -20 LINE",
"306 104 OFFCURVE",
"290 237 OFFCURVE",
"290 380 CURVE SMOOTH",
"290 523 OFFCURVE",
"306 656 OFFCURVE",
"337 780 CURVE",
"150 800 LINE",
"117 667 OFFCURVE",
"100 527 OFFCURVE",
"100 380 CURVE SMOOTH",
"100 233 OFFCURVE",
"117 93 OFFCURVE",
"150 -40 CURVE"
);
},
{
closed = 1;
nodes = (
"885 570 LINE",
"885 735 LINE",
"450 735 LINE",
"450 570 LINE"
);
}
);
vertWidth = 1000;
width = 1000;
},
{
layerId = "14B87609-B57D-449B-8E42-0E3479D6265D";
paths = (
{
closed = 1;
nodes = (
"733 30 OFFCURVE",
"808 40 OFFCURVE",
"883 60 CURVE",
"877 80 LINE",
"803 60 OFFCURVE",
"731 50 OFFCURVE",
"660 50 CURVE SMOOTH",
"496 50 OFFCURVE",
"390 109 OFFCURVE",
"390 200 CURVE SMOOTH",
"390 251 OFFCURVE",
"440 319 OFFCURVE",
"516 372 CURVE",
"504 388 LINE",
"423 331 OFFCURVE",
"370 257 OFFCURVE",
"370 200 CURVE SMOOTH",
"370 97 OFFCURVE",
"484 30 OFFCURVE",
"660 30 CURVE SMOOTH"
);
},
{
closed = 1;
nodes = (
"200 -17 LINE",
"167 109 OFFCURVE",
"150 241 OFFCURVE",
"150 380 CURVE SMOOTH",
"150 519 OFFCURVE",
"167 651 OFFCURVE",
"200 777 CURVE",
"180 783 LINE",
"147 657 OFFCURVE",
"130 523 OFFCURVE",
"130 380 CURVE SMOOTH",
"130 237 OFFCURVE",
"147 103 OFFCURVE",
"180 -23 CURVE"
);
},
{
closed = 1;
nodes = (
"860 660 LINE",
"860 680 LINE",
"440 680 LINE",
"440 660 LINE"
);
}
);
vertWidth = 1000;
width = 1000;
}
);
note = uni306B;
unicode = 306B;
},
{
glyphname = "nu-hira";
lastChange = "2020-06-28 11:59:53 +0000";
layers = (
{
layerId = "53C12EC5-7AF6-4A76-BF07-F72C20CC49D7";
paths = (
{
closed = 1;
nodes = (
"826 -40 OFFCURVE",
"940 108 OFFCURVE",
"940 340 CURVE SMOOTH",
"940 553 OFFCURVE",
"767 710 OFFCURVE",
"520 710 CURVE SMOOTH",
"249 710 OFFCURVE",
"50 523 OFFCURVE",
"50 280 CURVE SMOOTH",
"50 92 OFFCURVE",
"130 -10 OFFCURVE",
"250 -10 CURVE SMOOTH",
"323 -10 OFFCURVE",
"405 58 OFFCURVE",
"496 195 CURVE SMOOTH",
"587 332 OFFCURVE",
"671 535 OFFCURVE",
"750 805 CURVE",
"580 835 LINE",
"520 635 OFFCURVE",
"449 452 OFFCURVE",
"352 287 CURVE SMOOTH",
"324 240 OFFCURVE",
"277 170 OFFCURVE",
"250 170 CURVE SMOOTH",
"231 170 OFFCURVE",
"220 233 OFFCURVE",
"220 280 CURVE SMOOTH",
"220 429 OFFCURVE",
"345 540 OFFCURVE",
"520 540 CURVE SMOOTH",
"659 540 OFFCURVE",
"760 451 OFFCURVE",
"760 340 CURVE SMOOTH",
"760 228 OFFCURVE",
"759 100 OFFCURVE",
"690 100 CURVE SMOOTH",
"673 100 OFFCURVE",
"660 113 OFFCURVE",
"660 130 CURVE SMOOTH",
"660 149 OFFCURVE",
"679 165 OFFCURVE",
"700 165 CURVE SMOOTH",
"745 165 OFFCURVE",
"790 91 OFFCURVE",
"870 -15 CURVE",
"990 80 LINE",
"863 264 OFFCURVE",
"812 300 OFFCURVE",
"700 300 CURVE SMOOTH",
"588 300 OFFCURVE",
"510 226 OFFCURVE",
"510 130 CURVE SMOOTH",
"510 30 OFFCURVE",
"586 -40 OFFCURVE",
"690 -40 CURVE SMOOTH"
);
},
{
closed = 1;
nodes = (
"480 200 LINE",
"408 398 OFFCURVE",
"348 600 OFFCURVE",
"300 805 CURVE",
"140 770 LINE",
"187 565 OFFCURVE",
"251 358 OFFCURVE",
"330 150 CURVE"
);
}
);
vertWidth = 1000;
width = 1000;
},
{
layerId = "14B87609-B57D-449B-8E42-0E3479D6265D";
paths = (
{
closed = 1;
nodes = (
"821 -10 OFFCURVE",
"900 110 OFFCURVE",
"900 310 CURVE SMOOTH",
"900 513 OFFCURVE",
"747 650 OFFCURVE",
"520 650 CURVE SMOOTH",
"271 650 OFFCURVE",
"90 485 OFFCURVE",
"90 260 CURVE SMOOTH",
"90 119 OFFCURVE",
"161 30 OFFCURVE",
"240 30 CURVE SMOOTH",
"311 30 OFFCURVE",
"390 97 OFFCURVE",
"477 232 CURVE SMOOTH",
"564 367 OFFCURVE",
"641 562 OFFCURVE",
"710 817 CURVE",
"690 823 LINE",
"622 568 OFFCURVE",
"535 357 OFFCURVE",
"455 236 CURVE SMOOTH",
"375 115 OFFCURVE",
"300 50 OFFCURVE",
"240 50 CURVE SMOOTH",
"172 50 OFFCURVE",
"110 132 OFFCURVE",
"110 260 CURVE SMOOTH",
"110 475 OFFCURVE",
"283 630 OFFCURVE",
"520 630 CURVE SMOOTH",
"735 630 OFFCURVE",
"880 501 OFFCURVE",
"880 310 CURVE SMOOTH",
"880 122 OFFCURVE",
"809 10 OFFCURVE",
"690 10 CURVE SMOOTH",
"613 10 OFFCURVE",
"560 55 OFFCURVE",
"560 120 CURVE SMOOTH",
"560 181 OFFCURVE",
"610 220 OFFCURVE",
"690 220 CURVE SMOOTH",
"775 220 OFFCURVE",
"841 179 OFFCURVE",
"932 64 CURVE",
"948 76 LINE",
"853 195 OFFCURVE",
"782 240 OFFCURVE",
"690 240 CURVE SMOOTH",
"599 240 OFFCURVE",
"540 193 OFFCURVE",
"540 120 CURVE SMOOTH",
"540 45 OFFCURVE",
"603 -10 OFFCURVE",
"690 -10 CURVE SMOOTH"
);
},
{
closed = 1;
nodes = (
"409 143 LINE",
"333 363 OFFCURVE",
"273 576 OFFCURVE",
"230 782 CURVE",
"210 778 LINE",
"251 583 OFFCURVE",
"312 370 OFFCURVE",
"391 137 CURVE"
);
}
);
vertWidth = 1000;
width = 1000;
}
);
note = uni306C;
unicode = 306C;
},
{
glyphname = "ne-hira";
lastChange = "2020-06-28 12:00:08 +0000";
layers = (
{
layerId = "53C12EC5-7AF6-4A76-BF07-F72C20CC49D7";
paths = (
{
closed = 1;
nodes = (
"819 -20 OFFCURVE",
"930 111 OFFCURVE",
"930 350 CURVE SMOOTH",
"930 627 OFFCURVE",
"846 730 OFFCURVE",
"650 730 CURVE SMOOTH",
"549 730 OFFCURVE",
"459 689 OFFCURVE",
"307 550 CURVE SMOOTH",
"230 480 OFFCURVE",
"136 382 OFFCURVE",
"25 255 CURVE",
"150 140 LINE",
"295 301 OFFCURVE",
"403 411 OFFCURVE",
"474 469 CURVE SMOOTH",
"544 526 OFFCURVE",
"599 555 OFFCURVE",
"640 555 CURVE SMOOTH",
"738 555 OFFCURVE",
"745 486 OFFCURVE",
"745 350 CURVE SMOOTH",
"745 225 OFFCURVE",
"743 130 OFFCURVE",
"650 130 CURVE SMOOTH",
"613 130 OFFCURVE",
"590 150 OFFCURVE",
"590 185 CURVE SMOOTH",
"590 214 OFFCURVE",
"615 235 OFFCURVE",
"660 235 CURVE SMOOTH",
"720 235 OFFCURVE",
"783 140 OFFCURVE",
"875 5 CURVE",
"990 110 LINE",
"853 310 OFFCURVE",
"758 380 OFFCURVE",
"650 380 CURVE SMOOTH",
"517 380 OFFCURVE",
"430 300 OFFCURVE",
"430 180 CURVE SMOOTH",
"430 60 OFFCURVE",
"518 -20 OFFCURVE",
"650 -20 CURVE SMOOTH"
);
},
{
closed = 1;
nodes = (
"400 -50 LINE",
"400 820 LINE",
"230 820 LINE",
"230 690 LINE",
"60 690 LINE",
"60 540 LINE",
"230 540 LINE",
"230 -50 LINE"
);
}
);
vertWidth = 1000;
width = 1000;
},
{
layerId = "14B87609-B57D-449B-8E42-0E3479D6265D";
paths = (
{
closed = 1;
nodes = (
"814 0 OFFCURVE",
"900 131 OFFCURVE",
"900 350 CURVE SMOOTH",
"900 569 OFFCURVE",
"818 690 OFFCURVE",
"670 690 CURVE SMOOTH",
"574 690 OFFCURVE",
"494 655 OFFCURVE",
"343 500 CURVE SMOOTH",
"267 423 OFFCURVE",
"177 315 OFFCURVE",
"72 176 CURVE",
"88 164 LINE",
"244 369 OFFCURVE",
"362 504 OFFCURVE",
"453 576 CURVE SMOOTH",
"544 647 OFFCURVE",
"603 670 OFFCURVE",
"670 670 CURVE SMOOTH",
"807 670 OFFCURVE",
"880 559 OFFCURVE",
"880 350 CURVE SMOOTH",
"880 143 OFFCURVE",
"801 20 OFFCURVE",
"670 20 CURVE SMOOTH",
"587 20 OFFCURVE",
"530 69 OFFCURVE",
"530 140 CURVE SMOOTH",
"530 207 OFFCURVE",
"585 250 OFFCURVE",
"670 250 CURVE SMOOTH",
"753 250 OFFCURVE",
"813 215 OFFCURVE",
"922 74 CURVE",
"938 86 LINE",
"831 223 OFFCURVE",
"763 270 OFFCURVE",
"670 270 CURVE SMOOTH",
"574 270 OFFCURVE",
"510 217 OFFCURVE",
"510 140 CURVE SMOOTH",
"510 59 OFFCURVE",
"577 0 OFFCURVE",
"670 0 CURVE SMOOTH"
);
},
{
closed = 1;
nodes = (
"320 -30 LINE",
"320 800 LINE",
"300 800 LINE",
"300 620 LINE",
"80 620 LINE",
"80 600 LINE",
"300 600 LINE",
"300 -30 LINE"
);
}
);
vertWidth = 1000;
width = 1000;
}
);
note = uni306D;
unicode = 306D;
},
{
glyphname = "no-hira";
lastChange = "2020-06-28 12:00:45 +0000";
layers = (
{
layerId = "53C12EC5-7AF6-4A76-BF07-F72C20CC49D7";
paths = (
{
closed = 1;
nodes = (
"817 -13 OFFCURVE",
"950 139 OFFCURVE",
"950 380 CURVE SMOOTH",
"950 613 OFFCURVE",
"776 780 OFFCURVE",
"540 780 CURVE SMOOTH",
"247 780 OFFCURVE",
"50 597 OFFCURVE",
"50 330 CURVE SMOOTH",
"50 142 OFFCURVE",
"171 -10 OFFCURVE",
"290 -10 CURVE SMOOTH",
"433 -10 OFFCURVE",
"501 115 OFFCURVE",
"549 291 CURVE SMOOTH",
"578 395 OFFCURVE",
"603 534 OFFCURVE",
"625 710 CURVE",
"440 730 LINE",
"430 650 OFFCURVE",
"399 461 OFFCURVE",
"363 325 CURVE SMOOTH",
"339 236 OFFCURVE",
"313 170 OFFCURVE",
"290 170 CURVE SMOOTH",
"269 170 OFFCURVE",
"230 254 OFFCURVE",
"230 330 CURVE SMOOTH",
"230 501 OFFCURVE",
"348 610 OFFCURVE",
"540 610 CURVE SMOOTH",
"673 610 OFFCURVE",
"770 515 OFFCURVE",
"770 380 CURVE SMOOTH",
"770 241 OFFCURVE",
"703 161 OFFCURVE",
"570 140 CURVE",
"610 -30 LINE"
);
}
);
vertWidth = 1000;
width = 1000;
},
{
layerId = "14B87609-B57D-449B-8E42-0E3479D6265D";
paths = (
{
closed = 1;
nodes = (
"796 26 OFFCURVE",
"910 168 OFFCURVE",
"910 380 CURVE SMOOTH",
"910 583 OFFCURVE",
"755 730 OFFCURVE",
"540 730 CURVE SMOOTH",
"275 730 OFFCURVE",
"90 561 OFFCURVE",
"90 320 CURVE SMOOTH",
"90 163 OFFCURVE",
"175 40 OFFCURVE",
"260 40 CURVE SMOOTH",
"358 40 OFFCURVE",
"417 172 OFFCURVE",
"451 295 CURVE SMOOTH",
"484 411 OFFCURVE",
"507 571 OFFCURVE",
"520 719 CURVE",
"500 721 LINE",
"484 537 OFFCURVE",
"459 386 OFFCURVE",
"431 294 CURVE SMOOTH",
"401 200 OFFCURVE",
"351 60 OFFCURVE",
"260 60 CURVE SMOOTH",
"189 60 OFFCURVE",
"110 169 OFFCURVE",
"110 320 CURVE SMOOTH",
"110 549 OFFCURVE",
"287 710 OFFCURVE",
"540 710 CURVE SMOOTH",
"743 710 OFFCURVE",
"890 571 OFFCURVE",
"890 380 CURVE SMOOTH",
"890 179 OFFCURVE",
"782 45 OFFCURVE",
"609 30 CURVE",
"611 10 LINE"
);
}
);
vertWidth = 1000;
width = 1000;
}
);
note = uni306E;
unicode = 306E;
},
{
glyphname = "ha-hira";
lastChange = "2020-06-28 12:01:04 +0000";
layers = (
{
layerId = "53C12EC5-7AF6-4A76-BF07-F72C20CC49D7";
paths = (
{
closed = 1;
nodes = (
"704 -40 OFFCURVE",
"790 37 OFFCURVE",
"790 170 CURVE SMOOTH",
"790 510 LINE",
"940 510 LINE",
"940 670 LINE",
"790 670 LINE",
"790 810 LINE",
"610 810 LINE",
"610 670 LINE",
"350 670 LINE",
"350 510 LINE",
"610 510 LINE",
"610 180 LINE SMOOTH",
"610 137 OFFCURVE",
"593 120 OFFCURVE",
"550 120 CURVE SMOOTH",
"503 120 OFFCURVE",
"480 137 OFFCURVE",
"480 170 CURVE SMOOTH",
"480 203 OFFCURVE",
"503 220 OFFCURVE",
"550 220 CURVE SMOOTH",
"631 220 OFFCURVE",
"723 117 OFFCURVE",
"835 -5 CURVE",
"950 110 LINE",
"806 265 OFFCURVE",
"700 380 OFFCURVE",
"560 380 CURVE SMOOTH",
"400 380 OFFCURVE",
"310 299 OFFCURVE",
"310 170 CURVE SMOOTH",
"310 38 OFFCURVE",
"403 -40 OFFCURVE",
"560 -40 CURVE SMOOTH"
);
},
{
closed = 1;
nodes = (
"297 -20 LINE",
"266 104 OFFCURVE",
"250 237 OFFCURVE",
"250 380 CURVE SMOOTH",
"250 523 OFFCURVE",
"266 656 OFFCURVE",
"297 780 CURVE",
"120 800 LINE",
"87 667 OFFCURVE",
"70 527 OFFCURVE",
"70 380 CURVE SMOOTH",
"70 233 OFFCURVE",
"87 93 OFFCURVE",
"120 -40 CURVE"
);
}
);
vertWidth = 1000;
width = 1000;
},
{
layerId = "14B87609-B57D-449B-8E42-0E3479D6265D";
paths = (
{
closed = 1;
nodes = (
"674 -20 OFFCURVE",
"730 39 OFFCURVE",
"730 170 CURVE SMOOTH",
"730 600 LINE",
"920 600 LINE",
"920 620 LINE",
"730 620 LINE",
"730 800 LINE",
"710 800 LINE",
"710 620 LINE",
"370 620 LINE",
"370 600 LINE",
"710 600 LINE",
"710 170 LINE SMOOTH",
"710 51 OFFCURVE",
"662 0 OFFCURVE",
"550 0 CURVE SMOOTH",
"435 0 OFFCURVE",
"370 51 OFFCURVE",
"370 140 CURVE SMOOTH",
"370 220 OFFCURVE",
"430 260 OFFCURVE",
"550 260 CURVE SMOOTH",
"651 260 OFFCURVE",
"754 203 OFFCURVE",
"903 63 CURVE",
"917 77 LINE",
"764 221 OFFCURVE",
"657 280 OFFCURVE",
"550 280 CURVE SMOOTH",
"421 280 OFFCURVE",
"350 231 OFFCURVE",
"350 140 CURVE SMOOTH",
"350 39 OFFCURVE",
"423 -20 OFFCURVE",
"550 -20 CURVE SMOOTH"
);
},
{
closed = 1;
nodes = (
"180 -17 LINE",
"147 109 OFFCURVE",
"130 241 OFFCURVE",
"130 380 CURVE SMOOTH",
"130 519 OFFCURVE",
"147 651 OFFCURVE",
"180 777 CURVE",
"160 783 LINE",
"127 657 OFFCURVE",
"110 523 OFFCURVE",
"110 380 CURVE SMOOTH",
"110 237 OFFCURVE",
"127 103 OFFCURVE",
"160 -23 CURVE"
);
}
);
vertWidth = 1000;
width = 1000;
}
);
note = uni306F;
unicode = 306F;
},
{
glyphname = "ba-hira";
lastChange = "2020-06-28 12:01:08 +0000";
layers = (
{
layerId = "53C12EC5-7AF6-4A76-BF07-F72C20CC49D7";
paths = (
{
closed = 1;
nodes = (
"694 -50 OFFCURVE",
"780 27 OFFCURVE",
"780 160 CURVE SMOOTH",
"780 470 LINE",
"930 470 LINE",
"930 630 LINE",
"780 630 LINE",
"780 800 LINE",
"600 800 LINE",
"600 630 LINE",
"340 630 LINE",
"340 470 LINE",
"600 470 LINE",
"600 170 LINE SMOOTH",
"600 127 OFFCURVE",
"583 110 OFFCURVE",
"540 110 CURVE SMOOTH",
"493 110 OFFCURVE",
"470 127 OFFCURVE",
"470 160 CURVE SMOOTH",
"470 193 OFFCURVE",
"493 210 OFFCURVE",
"540 210 CURVE SMOOTH",
"621 210 OFFCURVE",
"713 107 OFFCURVE",
"825 -15 CURVE",
"940 100 LINE",
"796 255 OFFCURVE",
"690 370 OFFCURVE",
"550 370 CURVE SMOOTH",
"390 370 OFFCURVE",
"300 289 OFFCURVE",
"300 160 CURVE SMOOTH",
"300 28 OFFCURVE",
"393 -50 OFFCURVE",
"550 -50 CURVE SMOOTH"
);
},
{
closed = 1;
nodes = (
"287 -30 LINE",
"256 94 OFFCURVE",
"240 227 OFFCURVE",
"240 370 CURVE SMOOTH",
"240 513 OFFCURVE",
"256 646 OFFCURVE",
"287 770 CURVE",
"110 790 LINE",
"77 657 OFFCURVE",
"60 517 OFFCURVE",
"60 370 CURVE SMOOTH",
"60 223 OFFCURVE",
"77 83 OFFCURVE",
"110 -50 CURVE"
);
},
{
closed = 1;
nodes = (
"841 698 LINE",
"818 745 OFFCURVE",
"792 794 OFFCURVE",
"765 845 CURVE",
"671 798 LINE",
"700 745 OFFCURVE",
"726 697 OFFCURVE",
"747 653 CURVE"
);
},
{
closed = 1;
nodes = (
"990 720 LINE",
"969 764 OFFCURVE",
"943 814 OFFCURVE",
"912 870 CURVE",
"816 822 LINE",
"832 793 OFFCURVE",
"858 743 OFFCURVE",
"894 674 CURVE"
);
}
);
vertWidth = 1000;
width = 1000;
},
{
layerId = "14B87609-B57D-449B-8E42-0E3479D6265D";
paths = (
{
closed = 1;
nodes = (
"654 -30 OFFCURVE",
"710 29 OFFCURVE",
"710 160 CURVE SMOOTH",
"710 590 LINE",
"910 590 LINE",
"910 610 LINE",
"710 610 LINE",
"710 790 LINE",
"690 790 LINE",
"690 610 LINE",
"350 610 LINE",
"350 590 LINE",
"690 590 LINE",
"690 160 LINE SMOOTH",
"690 41 OFFCURVE",
"642 -10 OFFCURVE",
"530 -10 CURVE SMOOTH",
"415 -10 OFFCURVE",
"350 41 OFFCURVE",
"350 130 CURVE SMOOTH",
"350 210 OFFCURVE",
"410 250 OFFCURVE",
"530 250 CURVE SMOOTH",
"631 250 OFFCURVE",
"734 193 OFFCURVE",
"883 53 CURVE",
"897 67 LINE",
"744 211 OFFCURVE",
"637 270 OFFCURVE",
"530 270 CURVE SMOOTH",
"401 270 OFFCURVE",
"330 221 OFFCURVE",
"330 130 CURVE SMOOTH",
"330 29 OFFCURVE",
"403 -30 OFFCURVE",
"530 -30 CURVE SMOOTH"
);
},
{
closed = 1;
nodes = (
"170 -27 LINE",
"137 99 OFFCURVE",
"120 231 OFFCURVE",
"120 370 CURVE SMOOTH",
"120 509 OFFCURVE",
"137 641 OFFCURVE",
"170 767 CURVE",
"150 773 LINE",
"117 647 OFFCURVE",
"100 513 OFFCURVE",
"100 370 CURVE SMOOTH",
"100 227 OFFCURVE",
"117 93 OFFCURVE",
"150 -33 CURVE"
);
},
{
closed = 1;
nodes = (
"866 695 LINE",
"837 748 OFFCURVE",
"806 799 OFFCURVE",
"773 846 CURVE",
"757 834 LINE",
"791 783 OFFCURVE",
"821 733 OFFCURVE",
"848 685 CURVE"
);
},
{
closed = 1;
nodes = (
"989 711 LINE",
"956 769 OFFCURVE",
"925 821 OFFCURVE",
"894 866 CURVE",
"878 854 LINE",
"913 801 OFFCURVE",
"944 750 OFFCURVE",
"971 701 CURVE"
);
}
);
vertWidth = 1000;
width = 1000;
}
);
note = uni3070;
unicode = 3070;
},
{
glyphname = "pa-hira";
lastChange = "2020-06-28 12:01:22 +0000";
layers = (
{
layerId = "53C12EC5-7AF6-4A76-BF07-F72C20CC49D7";
paths = (
{
closed = 1;
nodes = (
"684 -50 OFFCURVE",
"770 27 OFFCURVE",
"770 160 CURVE SMOOTH",
"770 470 LINE",
"920 470 LINE",
"920 630 LINE",
"770 630 LINE",
"770 800 LINE",
"590 800 LINE",
"590 630 LINE",
"330 630 LINE",
"330 470 LINE",
"590 470 LINE",
"590 170 LINE SMOOTH",
"590 127 OFFCURVE",
"573 110 OFFCURVE",
"530 110 CURVE SMOOTH",
"483 110 OFFCURVE",
"460 127 OFFCURVE",
"460 160 CURVE SMOOTH",
"460 193 OFFCURVE",
"483 210 OFFCURVE",
"530 210 CURVE SMOOTH",
"611 210 OFFCURVE",
"703 107 OFFCURVE",
"815 -15 CURVE",
"930 100 LINE",
"786 255 OFFCURVE",
"680 370 OFFCURVE",
"540 370 CURVE SMOOTH",
"380 370 OFFCURVE",
"290 289 OFFCURVE",
"290 160 CURVE SMOOTH",
"290 28 OFFCURVE",
"383 -50 OFFCURVE",
"540 -50 CURVE SMOOTH"
);
},
{
closed = 1;
nodes = (
"287 -30 LINE",
"256 94 OFFCURVE",
"240 227 OFFCURVE",
"240 370 CURVE SMOOTH",
"240 513 OFFCURVE",
"256 646 OFFCURVE",
"287 770 CURVE",
"110 790 LINE",
"77 657 OFFCURVE",
"60 517 OFFCURVE",
"60 370 CURVE SMOOTH",
"60 223 OFFCURVE",
"77 83 OFFCURVE",
"110 -50 CURVE"
);
},
{
closed = 1;
nodes = (
"690 523 OFFCURVE",
"990 523 OFFCURVE",
"990 720 CURVE SMOOTH",
"990 917 OFFCURVE",
"690 917 OFFCURVE",
"690 720 CURVE SMOOTH"
);
},
{
closed = 1;
nodes = (
"775 806 OFFCURVE",
"905 806 OFFCURVE",
"905 720 CURVE SMOOTH",
"905 634 OFFCURVE",
"775 634 OFFCURVE",
"775 720 CURVE SMOOTH"
);
}
);
vertWidth = 1000;
width = 1000;
},
{
layerId = "14B87609-B57D-449B-8E42-0E3479D6265D";
paths = (
{
closed = 1;
nodes = (
"654 -30 OFFCURVE",
"710 29 OFFCURVE",
"710 160 CURVE SMOOTH",
"710 580 LINE",
"910 580 LINE",
"910 600 LINE",
"710 600 LINE",
"710 790 LINE",
"690 790 LINE",
"690 600 LINE",
"350 600 LINE",
"350 580 LINE",
"690 580 LINE",
"690 160 LINE SMOOTH",
"690 41 OFFCURVE",
"642 -10 OFFCURVE",
"530 -10 CURVE SMOOTH",
"415 -10 OFFCURVE",
"350 41 OFFCURVE",
"350 130 CURVE SMOOTH",
"350 210 OFFCURVE",
"410 250 OFFCURVE",
"530 250 CURVE SMOOTH",
"631 250 OFFCURVE",
"734 193 OFFCURVE",
"883 53 CURVE",
"897 67 LINE",
"744 211 OFFCURVE",
"637 270 OFFCURVE",
"530 270 CURVE SMOOTH",
"401 270 OFFCURVE",
"330 221 OFFCURVE",
"330 130 CURVE SMOOTH",
"330 29 OFFCURVE",
"403 -30 OFFCURVE",
"530 -30 CURVE SMOOTH"
);
},
{
closed = 1;
nodes = (
"170 -27 LINE",
"137 99 OFFCURVE",
"120 231 OFFCURVE",
"120 370 CURVE SMOOTH",
"120 509 OFFCURVE",
"137 641 OFFCURVE",
"170 767 CURVE",
"150 773 LINE",
"117 647 OFFCURVE",
"100 513 OFFCURVE",
"100 370 CURVE SMOOTH",
"100 227 OFFCURVE",
"117 93 OFFCURVE",
"150 -33 CURVE"
);
},
{
closed = 1;
nodes = (
"770 615 OFFCURVE",
"990 615 OFFCURVE",
"990 760 CURVE SMOOTH",
"990 905 OFFCURVE",
"770 905 OFFCURVE",
"770 760 CURVE SMOOTH"
);
},
{
closed = 1;
nodes = (
"790 879 OFFCURVE",
"970 879 OFFCURVE",
"970 760 CURVE SMOOTH",
"970 641 OFFCURVE",
"790 641 OFFCURVE",
"790 760 CURVE SMOOTH"
);
}
);
vertWidth = 1000;
width = 1000;
}
);
note = uni3071;
unicode = 3071;
},
{
glyphname = "hi-hira";
lastChange = "2020-06-28 11:55:53 +0000";
layers = (
{
layerId = "53C12EC5-7AF6-4A76-BF07-F72C20CC49D7";
paths = (
{
closed = 1;
nodes = (
"675 -40 OFFCURVE",
"810 77 OFFCURVE",
"810 280 CURVE SMOOTH",
"810 343 OFFCURVE",
"800 408 OFFCURVE",
"781 474 CURVE",
"783 475 LINE",
"814 447 OFFCURVE",
"849 417 OFFCURVE",
"890 385 CURVE",
"990 520 LINE",
"882 604 OFFCURVE",
"779 697 OFFCURVE",
"680 800 CURVE",
"550 690 LINE",
"610 542 OFFCURVE",
"625 470 OFFCURVE",
"625 330 CURVE SMOOTH",
"625 190 OFFCURVE",
"567 120 OFFCURVE",
"450 120 CURVE SMOOTH",
"355 120 OFFCURVE",
"295 181 OFFCURVE",
"295 290 CURVE SMOOTH",
"295 398 OFFCURVE",
"369 531 OFFCURVE",
"470 600 CURVE",
"470 770 LINE",
"90 770 LINE",
"90 610 LINE",
"270 610 LINE",
"271 608 LINE",
"168 513 OFFCURVE",
"105 385 OFFCURVE",
"105 280 CURVE SMOOTH",
"105 81 OFFCURVE",
"239 -40 OFFCURVE",
"450 -40 CURVE SMOOTH"
);
}
);
vertWidth = 1000;
width = 1000;
},
{
layerId = "14B87609-B57D-449B-8E42-0E3479D6265D";
paths = (
{
closed = 1;
nodes = (
"655 -20 OFFCURVE",
"780 113 OFFCURVE",
"780 320 CURVE SMOOTH",
"780 428 OFFCURVE",
"754 544 OFFCURVE",
"703 668 CURVE",
"705 669 LINE",
"783 579 OFFCURVE",
"863 503 OFFCURVE",
"944 442 CURVE",
"956 458 LINE",
"849 538 OFFCURVE",
"729 659 OFFCURVE",
"668 746 CURVE",
"651 735 LINE",
"718 611 OFFCURVE",
"760 448 OFFCURVE",
"760 320 CURVE SMOOTH",
"760 125 OFFCURVE",
"641 0 OFFCURVE",
"460 0 CURVE SMOOTH",
"277 0 OFFCURVE",
"180 93 OFFCURVE",
"180 270 CURVE SMOOTH",
"180 437 OFFCURVE",
"291 610 OFFCURVE",
"455 701 CURVE",
"455 720 LINE",
"100 720 LINE",
"100 700 LINE",
"414 700 LINE",
"415 698 LINE",
"260 598 OFFCURVE",
"160 431 OFFCURVE",
"160 270 CURVE SMOOTH",
"160 83 OFFCURVE",
"267 -20 OFFCURVE",
"460 -20 CURVE SMOOTH"
);
}
);
vertWidth = 1000;
width = 1000;
}
);
note = uni3072;
unicode = 3072;
},
{
glyphname = "bi-hira";
lastChange = "2020-06-28 11:55:53 +0000";
layers = (
{
layerId = "53C12EC5-7AF6-4A76-BF07-F72C20CC49D7";
paths = (
{
closed = 1;
nodes = (
"660 -50 OFFCURVE",
"800 64 OFFCURVE",
"800 220 CURVE SMOOTH",
"800 273 OFFCURVE",
"790 328 OFFCURVE",
"771 384 CURVE",
"773 385 LINE",
"804 357 OFFCURVE",
"839 327 OFFCURVE",
"880 295 CURVE",
"980 430 LINE",
"872 514 OFFCURVE",
"769 607 OFFCURVE",
"670 710 CURVE",
"540 600 LINE",
"608 431 OFFCURVE",
"615 401 OFFCURVE",
"615 280 CURVE SMOOTH",
"615 171 OFFCURVE",
"552 110 OFFCURVE",
"440 110 CURVE SMOOTH",
"345 110 OFFCURVE",
"285 171 OFFCURVE",
"285 280 CURVE SMOOTH",
"285 388 OFFCURVE",
"359 521 OFFCURVE",
"460 590 CURVE",
"460 760 LINE",
"80 760 LINE",
"80 600 LINE",
"260 600 LINE",
"261 598 LINE",
"158 503 OFFCURVE",
"95 375 OFFCURVE",
"95 270 CURVE SMOOTH",
"95 71 OFFCURVE",
"229 -50 OFFCURVE",
"440 -50 CURVE SMOOTH"
);
},
{
closed = 1;
nodes = (
"818 673 LINE",
"792 724 OFFCURVE",
"764 778 OFFCURVE",
"733 835 CURVE",
"630 783 LINE",
"661 730 OFFCURVE",
"689 677 OFFCURVE",
"715 624 CURVE"
);
},
{
closed = 1;
nodes = (
"980 705 LINE",
"946 772 OFFCURVE",
"917 827 OFFCURVE",
"893 870 CURVE",
"788 817 LINE",
"816 767 OFFCURVE",
"845 713 OFFCURVE",
"875 655 CURVE"
);
}
);
vertWidth = 1000;
width = 1000;
},
{
layerId = "14B87609-B57D-449B-8E42-0E3479D6265D";
paths = (
{
closed = 1;
nodes = (
"645 -30 OFFCURVE",
"770 103 OFFCURVE",
"770 310 CURVE SMOOTH",
"770 418 OFFCURVE",
"744 534 OFFCURVE",
"693 658 CURVE",
"695 659 LINE",
"773 569 OFFCURVE",
"853 493 OFFCURVE",
"934 432 CURVE",
"946 448 LINE",
"839 528 OFFCURVE",
"719 649 OFFCURVE",
"658 736 CURVE",
"641 725 LINE",
"708 601 OFFCURVE",
"750 438 OFFCURVE",
"750 310 CURVE SMOOTH",
"750 115 OFFCURVE",
"631 -10 OFFCURVE",
"450 -10 CURVE SMOOTH",
"267 -10 OFFCURVE",
"170 83 OFFCURVE",
"170 260 CURVE SMOOTH",
"170 427 OFFCURVE",
"281 600 OFFCURVE",
"445 691 CURVE",
"445 710 LINE",
"90 710 LINE",
"90 690 LINE",
"404 690 LINE",
"405 688 LINE",
"250 588 OFFCURVE",
"150 421 OFFCURVE",
"150 260 CURVE SMOOTH",
"150 73 OFFCURVE",
"257 -30 OFFCURVE",
"450 -30 CURVE SMOOTH"
);
},
{
closed = 1;
nodes = (
"851 657 LINE",
"826 703 OFFCURVE",
"793 759 OFFCURVE",
"750 824 CURVE",
"734 812 LINE",
"767 763 OFFCURVE",
"800 708 OFFCURVE",
"833 647 CURVE"
);
},
{
closed = 1;
nodes = (
"979 695 LINE",
"954 742 OFFCURVE",
"919 799 OFFCURVE",
"874 866 CURVE",
"858 854 LINE",
"892 803 OFFCURVE",
"926 747 OFFCURVE",
"961 685 CURVE"
);
}
);
vertWidth = 1000;
width = 1000;
}
);
note = uni3073;
unicode = 3073;
},
{
glyphname = "pi-hira";
lastChange = "2020-06-28 12:01:36 +0000";
layers = (
{
layerId = "53C12EC5-7AF6-4A76-BF07-F72C20CC49D7";
paths = (
{
closed = 1;
nodes = (
"660 -50 OFFCURVE",
"800 64 OFFCURVE",
"800 220 CURVE SMOOTH",
"800 273 OFFCURVE",
"790 328 OFFCURVE",
"771 384 CURVE",
"773 385 LINE",
"804 357 OFFCURVE",
"839 327 OFFCURVE",
"880 295 CURVE",
"980 430 LINE",
"872 514 OFFCURVE",
"769 607 OFFCURVE",
"670 710 CURVE",
"540 600 LINE",
"608 431 OFFCURVE",
"615 401 OFFCURVE",
"615 280 CURVE SMOOTH",
"615 171 OFFCURVE",
"552 110 OFFCURVE",
"440 110 CURVE SMOOTH",
"345 110 OFFCURVE",
"285 171 OFFCURVE",
"285 280 CURVE SMOOTH",
"285 388 OFFCURVE",
"359 521 OFFCURVE",
"460 590 CURVE",
"460 760 LINE",
"80 760 LINE",
"80 600 LINE",
"260 600 LINE",
"261 598 LINE",
"158 503 OFFCURVE",
"95 375 OFFCURVE",
"95 270 CURVE SMOOTH",
"95 71 OFFCURVE",
"229 -50 OFFCURVE",
"440 -50 CURVE SMOOTH"
);
},
{
closed = 1;
nodes = (
"650 523 OFFCURVE",
"950 523 OFFCURVE",
"950 720 CURVE SMOOTH",
"950 917 OFFCURVE",
"650 917 OFFCURVE",
"650 720 CURVE SMOOTH"
);
},
{
closed = 1;
nodes = (
"735 806 OFFCURVE",
"865 806 OFFCURVE",
"865 720 CURVE SMOOTH",
"865 634 OFFCURVE",
"735 634 OFFCURVE",
"735 720 CURVE SMOOTH"
);
}
);
vertWidth = 1000;
width = 1000;
},
{
layerId = "14B87609-B57D-449B-8E42-0E3479D6265D";
paths = (
{
closed = 1;
nodes = (
"645 -30 OFFCURVE",
"770 103 OFFCURVE",
"770 310 CURVE SMOOTH",
"770 418 OFFCURVE",
"744 534 OFFCURVE",
"693 658 CURVE",
"695 659 LINE",
"773 569 OFFCURVE",
"853 493 OFFCURVE",
"934 432 CURVE",
"946 448 LINE",
"839 528 OFFCURVE",
"719 649 OFFCURVE",
"658 736 CURVE",
"641 725 LINE",
"708 601 OFFCURVE",
"750 438 OFFCURVE",
"750 310 CURVE SMOOTH",
"750 115 OFFCURVE",
"631 -10 OFFCURVE",
"450 -10 CURVE SMOOTH",
"267 -10 OFFCURVE",
"170 83 OFFCURVE",
"170 260 CURVE SMOOTH",
"170 427 OFFCURVE",
"281 600 OFFCURVE",
"445 691 CURVE",
"445 710 LINE",
"90 710 LINE",
"90 690 LINE",
"404 690 LINE",
"405 688 LINE",
"250 588 OFFCURVE",
"150 421 OFFCURVE",
"150 260 CURVE SMOOTH",
"150 73 OFFCURVE",
"257 -30 OFFCURVE",
"450 -30 CURVE SMOOTH"
);
},
{
closed = 1;
nodes = (
"760 605 OFFCURVE",
"980 605 OFFCURVE",
"980 750 CURVE SMOOTH",
"980 895 OFFCURVE",
"760 895 OFFCURVE",
"760 750 CURVE SMOOTH"
);
},
{
closed = 1;
nodes = (
"780 869 OFFCURVE",
"960 869 OFFCURVE",
"960 750 CURVE SMOOTH",
"960 631 OFFCURVE",
"780 631 OFFCURVE",
"780 750 CURVE SMOOTH"
);
}
);
vertWidth = 1000;
width = 1000;
}
);
note = uni3074;
unicode = 3074;
},
{
glyphname = "hu-hira";
lastChange = "2020-06-28 12:06:58 +0000";
layers = (
{
layerId = "53C12EC5-7AF6-4A76-BF07-F72C20CC49D7";
paths = (
{
closed = 1;
nodes = (
"598 -50 OFFCURVE",
"710 42 OFFCURVE",
"710 180 CURVE SMOOTH",
"710 247 OFFCURVE",
"685 296 OFFCURVE",
"615 381 CURVE SMOOTH",
"582 421 OFFCURVE",
"550 464 OFFCURVE",
"550 500 CURVE SMOOTH",
"550 557 OFFCURVE",
"635 615 OFFCURVE",
"770 630 CURVE",
"770 790 LINE",
"210 790 LINE",
"210 630 LINE",
"432 630 LINE",
"432 628 LINE",
"377 575 OFFCURVE",
"350 533 OFFCURVE",
"350 480 CURVE SMOOTH",
"350 431 OFFCURVE",
"373 377 OFFCURVE",
"433 310 CURVE SMOOTH",
"481 256 OFFCURVE",
"505 203 OFFCURVE",
"505 171 CURVE SMOOTH",
"505 137 OFFCURVE",
"477 120 OFFCURVE",
"440 120 CURVE SMOOTH",
"410 120 OFFCURVE",
"376 132 OFFCURVE",
"320 155 CURVE",
"260 0 LINE",
"313 -29 OFFCURVE",
"379 -50 OFFCURVE",
"450 -50 CURVE SMOOTH"
);
},
{
closed = 1;
nodes = (
"231 181 OFFCURVE",
"277 304 OFFCURVE",
"310 425 CURVE",
"140 465 LINE",
"106 348 OFFCURVE",
"63 233 OFFCURVE",
"10 120 CURVE",
"170 55 LINE"
);
},
{
closed = 1;
nodes = (
"990 115 LINE",
"947 248 OFFCURVE",
"897 371 OFFCURVE",
"840 485 CURVE",
"680 415 LINE",
"739 304 OFFCURVE",
"787 188 OFFCURVE",
"825 65 CURVE"
);
}
);
vertWidth = 1000;
width = 1000;
},
{
layerId = "14B87609-B57D-449B-8E42-0E3479D6265D";
paths = (
{
closed = 1;
nodes = (
"587 -20 OFFCURVE",
"680 51 OFFCURVE",
"680 150 CURVE SMOOTH",
"680 218 OFFCURVE",
"650 270 OFFCURVE",
"557 363 CURVE SMOOTH",
"472 448 OFFCURVE",
"440 501 OFFCURVE",
"440 560 CURVE SMOOTH",
"440 648 OFFCURVE",
"564 730 OFFCURVE",
"740 730 CURVE",
"740 750 LINE",
"250 750 LINE",
"250 730 LINE",
"594 730 LINE",
"595 728 LINE",
"486 696 OFFCURVE",
"420 629 OFFCURVE",
"420 560 CURVE SMOOTH",
"420 496 OFFCURVE",
"454 438 OFFCURVE",
"543 349 CURVE SMOOTH",
"636 256 OFFCURVE",
"660 209 OFFCURVE",
"660 150 CURVE SMOOTH",
"660 63 OFFCURVE",
"576 0 OFFCURVE",
"460 0 CURVE SMOOTH",
"403 0 OFFCURVE",
"351 13 OFFCURVE",
"305 39 CURVE",
"295 21 LINE",
"344 -6 OFFCURVE",
"399 -20 OFFCURVE",
"460 -20 CURVE SMOOTH"
);
},
{
closed = 1;
nodes = (
"131 208 OFFCURVE",
"178 319 OFFCURVE",
"210 437 CURVE",
"190 443 LINE",
"159 328 OFFCURVE",
"113 218 OFFCURVE",
"51 115 CURVE",
"69 105 LINE"
);
},
{
closed = 1;
nodes = (
"950 113 LINE",
"917 221 OFFCURVE",
"852 355 OFFCURVE",
"788 446 CURVE",
"772 434 LINE",
"833 345 OFFCURVE",
"897 215 OFFCURVE",
"930 107 CURVE"
);
}
);
vertWidth = 1000;
width = 1000;
}
);
note = uni3075;
unicode = 3075;
},
{
glyphname = "bu-hira";
lastChange = "2020-06-28 12:03:50 +0000";
layers = (
{
layerId = "53C12EC5-7AF6-4A76-BF07-F72C20CC49D7";
paths = (
{
closed = 1;
nodes = (
"592 -60 OFFCURVE",
"705 26 OFFCURVE",
"705 170 CURVE SMOOTH",
"705 231 OFFCURVE",
"681 286 OFFCURVE",
"610 371 CURVE SMOOTH",
"577 411 OFFCURVE",
"545 454 OFFCURVE",
"545 490 CURVE SMOOTH",
"545 529 OFFCURVE",
"584 568 OFFCURVE",
"655 595 CURVE",
"655 780 LINE",
"205 780 LINE",
"205 620 LINE",
"427 620 LINE",
"428 618 LINE",
"373 565 OFFCURVE",
"345 523 OFFCURVE",
"345 470 CURVE SMOOTH",
"345 422 OFFCURVE",
"368 367 OFFCURVE",
"428 300 CURVE SMOOTH",
"477 245 OFFCURVE",
"501 189 OFFCURVE",
"501 159 CURVE SMOOTH",
"501 124 OFFCURVE",
"470 110 OFFCURVE",
"435 110 CURVE SMOOTH",
"404 110 OFFCURVE",
"371 122 OFFCURVE",
"315 145 CURVE",
"255 -10 LINE",
"308 -39 OFFCURVE",
"373 -60 OFFCURVE",
"445 -60 CURVE SMOOTH"
);
},
{
closed = 1;
nodes = (
"231 171 OFFCURVE",
"277 294 OFFCURVE",
"310 415 CURVE",
"140 455 LINE",
"106 338 OFFCURVE",
"63 223 OFFCURVE",
"10 110 CURVE",
"170 45 LINE"
);
},
{
closed = 1;
nodes = (
"990 105 LINE",
"947 238 OFFCURVE",
"897 361 OFFCURVE",
"840 475 CURVE",
"680 405 LINE",
"739 294 OFFCURVE",
"787 178 OFFCURVE",
"825 55 CURVE"
);
},
{
closed = 1;
nodes = (
"830 668 LINE",
"804 719 OFFCURVE",
"776 773 OFFCURVE",
"745 830 CURVE",
"642 778 LINE",
"673 725 OFFCURVE",
"701 672 OFFCURVE",
"727 619 CURVE"
);
},
{
closed = 1;
nodes = (
"990 705 LINE",
"956 772 OFFCURVE",
"927 827 OFFCURVE",
"903 870 CURVE",
"798 817 LINE",
"826 767 OFFCURVE",
"855 713 OFFCURVE",
"885 655 CURVE"
);
}
);
vertWidth = 1000;
width = 1000;
},
{
layerId = "14B87609-B57D-449B-8E42-0E3479D6265D";
paths = (
{
closed = 1;
nodes = (
"577 -30 OFFCURVE",
"670 41 OFFCURVE",
"670 140 CURVE SMOOTH",
"670 208 OFFCURVE",
"640 260 OFFCURVE",
"547 353 CURVE SMOOTH",
"462 438 OFFCURVE",
"430 491 OFFCURVE",
"430 550 CURVE SMOOTH",
"430 638 OFFCURVE",
"554 720 OFFCURVE",
"730 720 CURVE",
"730 740 LINE",
"240 740 LINE",
"240 720 LINE",
"584 720 LINE",
"585 718 LINE",
"476 686 OFFCURVE",
"410 619 OFFCURVE",
"410 550 CURVE SMOOTH",
"410 486 OFFCURVE",
"444 428 OFFCURVE",
"533 339 CURVE SMOOTH",
"626 246 OFFCURVE",
"650 199 OFFCURVE",
"650 140 CURVE SMOOTH",
"650 53 OFFCURVE",
"566 -10 OFFCURVE",
"450 -10 CURVE SMOOTH",
"393 -10 OFFCURVE",
"341 3 OFFCURVE",
"295 29 CURVE",
"285 11 LINE",
"334 -16 OFFCURVE",
"389 -30 OFFCURVE",
"450 -30 CURVE SMOOTH"
);
},
{
closed = 1;
nodes = (
"121 198 OFFCURVE",
"168 309 OFFCURVE",
"200 427 CURVE",
"180 433 LINE",
"149 318 OFFCURVE",
"103 208 OFFCURVE",
"41 105 CURVE",
"59 95 LINE"
);
},
{
closed = 1;
nodes = (
"940 103 LINE",
"907 211 OFFCURVE",
"842 345 OFFCURVE",
"778 436 CURVE",
"762 424 LINE",
"823 335 OFFCURVE",
"887 205 OFFCURVE",
"920 97 CURVE"
);
},
{
closed = 1;
nodes = (
"861 657 LINE",
"836 703 OFFCURVE",
"803 759 OFFCURVE",
"760 824 CURVE",
"744 812 LINE",
"777 763 OFFCURVE",
"810 708 OFFCURVE",
"843 647 CURVE"
);
},
{
closed = 1;
nodes = (
"989 695 LINE",
"964 742 OFFCURVE",
"929 799 OFFCURVE",
"884 866 CURVE",
"868 854 LINE",
"902 803 OFFCURVE",
"936 747 OFFCURVE",
"971 685 CURVE"
);
}
);
vertWidth = 1000;
width = 1000;
}
);
note = uni3076;
unicode = 3076;
},
{
glyphname = "pu-hira";
lastChange = "2020-06-28 12:04:50 +0000";
layers = (
{
layerId = "53C12EC5-7AF6-4A76-BF07-F72C20CC49D7";
paths = (
{
closed = 1;
nodes = (
"592 -60 OFFCURVE",
"705 30 OFFCURVE",
"705 170 CURVE SMOOTH",
"705 235 OFFCURVE",
"681 286 OFFCURVE",
"610 371 CURVE SMOOTH",
"577 411 OFFCURVE",
"545 454 OFFCURVE",
"545 490 CURVE SMOOTH",
"545 529 OFFCURVE",
"584 568 OFFCURVE",
"655 595 CURVE",
"655 780 LINE",
"205 780 LINE",
"205 620 LINE",
"427 620 LINE",
"428 618 LINE",
"373 565 OFFCURVE",
"345 523 OFFCURVE",
"345 470 CURVE SMOOTH",
"345 422 OFFCURVE",
"376 358 OFFCURVE",
"428 300 CURVE SMOOTH",
"488 233 OFFCURVE",
"501 181 OFFCURVE",
"501 158 CURVE SMOOTH",
"501 120 OFFCURVE",
"461 110 OFFCURVE",
"435 110 CURVE SMOOTH",
"398 110 OFFCURVE",
"371 122 OFFCURVE",
"315 145 CURVE",
"255 -10 LINE",
"308 -39 OFFCURVE",
"373 -60 OFFCURVE",
"445 -60 CURVE SMOOTH"
);
},
{
closed = 1;
nodes = (
"231 171 OFFCURVE",
"277 294 OFFCURVE",
"310 415 CURVE",
"140 455 LINE",
"106 338 OFFCURVE",
"63 223 OFFCURVE",
"10 110 CURVE",
"170 45 LINE"
);
},
{
closed = 1;
nodes = (
"990 105 LINE",
"947 238 OFFCURVE",
"897 361 OFFCURVE",
"840 475 CURVE",
"680 405 LINE",
"739 294 OFFCURVE",
"787 178 OFFCURVE",
"825 55 CURVE"
);
},
{
closed = 1;
nodes = (
"605 503 OFFCURVE",
"905 503 OFFCURVE",
"905 700 CURVE SMOOTH",
"905 897 OFFCURVE",
"605 897 OFFCURVE",
"605 700 CURVE SMOOTH"
);
},
{
closed = 1;
nodes = (
"690 786 OFFCURVE",
"820 786 OFFCURVE",
"820 700 CURVE SMOOTH",
"820 614 OFFCURVE",
"690 614 OFFCURVE",
"690 700 CURVE SMOOTH"
);
}
);
vertWidth = 1000;
width = 1000;
},
{
layerId = "14B87609-B57D-449B-8E42-0E3479D6265D";
paths = (
{
closed = 1;
nodes = (
"587 -30 OFFCURVE",
"680 41 OFFCURVE",
"680 140 CURVE SMOOTH",
"680 208 OFFCURVE",
"650 260 OFFCURVE",
"557 353 CURVE SMOOTH",
"472 438 OFFCURVE",
"440 491 OFFCURVE",
"440 550 CURVE SMOOTH",
"440 634 OFFCURVE",
"553 715 OFFCURVE",
"720 720 CURVE",
"720 740 LINE",
"250 740 LINE",
"250 720 LINE",
"594 720 LINE",
"595 718 LINE",
"486 686 OFFCURVE",
"420 619 OFFCURVE",
"420 550 CURVE SMOOTH",
"420 486 OFFCURVE",
"454 428 OFFCURVE",
"543 339 CURVE SMOOTH",
"636 246 OFFCURVE",
"660 199 OFFCURVE",
"660 140 CURVE SMOOTH",
"660 53 OFFCURVE",
"576 -10 OFFCURVE",
"460 -10 CURVE SMOOTH",
"403 -10 OFFCURVE",
"351 3 OFFCURVE",
"305 29 CURVE",
"295 11 LINE",
"344 -16 OFFCURVE",
"399 -30 OFFCURVE",
"460 -30 CURVE SMOOTH"
);
},
{
closed = 1;
nodes = (
"131 198 OFFCURVE",
"178 309 OFFCURVE",
"210 427 CURVE",
"190 433 LINE",
"159 318 OFFCURVE",
"113 208 OFFCURVE",
"51 105 CURVE",
"69 95 LINE"
);
},
{
closed = 1;
nodes = (
"950 103 LINE",
"917 211 OFFCURVE",
"852 345 OFFCURVE",
"788 436 CURVE",
"772 424 LINE",
"833 335 OFFCURVE",
"897 205 OFFCURVE",
"930 97 CURVE"
);
},
{
closed = 1;
nodes = (
"705 585 OFFCURVE",
"925 585 OFFCURVE",
"925 730 CURVE SMOOTH",
"925 875 OFFCURVE",
"705 875 OFFCURVE",
"705 730 CURVE SMOOTH"
);
},
{
closed = 1;
nodes = (
"725 849 OFFCURVE",
"905 849 OFFCURVE",
"905 730 CURVE SMOOTH",
"905 611 OFFCURVE",
"725 611 OFFCURVE",
"725 730 CURVE SMOOTH"
);
}
);
vertWidth = 1000;
width = 1000;
}
);
note = uni3077;
unicode = 3077;
},
{
glyphname = "he-hira";
lastChange = "2020-06-28 12:06:20 +0000";
layers = (
{
layerId = "53C12EC5-7AF6-4A76-BF07-F72C20CC49D7";
paths = (
{
closed = 1;
nodes = (
"990 190 LINE",
"914 260 OFFCURVE",
"744 422 OFFCURVE",
"641 521 CURVE SMOOTH",
"552 606 OFFCURVE",
"496 650 OFFCURVE",
"410 650 CURVE SMOOTH",
"323 650 OFFCURVE",
"282 623 OFFCURVE",
"224 550 CURVE SMOOTH",
"151 457 OFFCURVE",
"36 311 OFFCURVE",
"10 280 CURVE",
"150 150 LINE",
"203 216 OFFCURVE",
"257 286 OFFCURVE",
"311 360 CURVE SMOOTH",
"346 409 OFFCURVE",
"377 450 OFFCURVE",
"405 450 CURVE SMOOTH",
"434 450 OFFCURVE",
"473 407 OFFCURVE",
"529 352 CURVE SMOOTH",
"642 243 OFFCURVE",
"753 139 OFFCURVE",
"860 40 CURVE"
);
}
);
vertWidth = 1000;
width = 1000;
},
{
layerId = "14B87609-B57D-449B-8E42-0E3479D6265D";
paths = (
{
closed = 1;
nodes = (
"947 148 LINE",
"816 262 OFFCURVE",
"690 377 OFFCURVE",
"569 492 CURVE SMOOTH",
"497 560 OFFCURVE",
"465 600 OFFCURVE",
"410 600 CURVE SMOOTH",
"356 600 OFFCURVE",
"325 555 OFFCURVE",
"258 474 CURVE SMOOTH",
"180 381 OFFCURVE",
"112 302 OFFCURVE",
"53 237 CURVE",
"67 223 LINE",
"126 289 OFFCURVE",
"195 369 OFFCURVE",
"273 462 CURVE SMOOTH",
"340 542 OFFCURVE",
"373 581 OFFCURVE",
"411 581 CURVE SMOOTH",
"446 581 OFFCURVE",
"484 546 OFFCURVE",
"555 478 CURVE SMOOTH",
"691 348 OFFCURVE",
"817 233 OFFCURVE",
"933 132 CURVE"
);
}
);
vertWidth = 1000;
width = 1000;
}
);
note = uni3078;
unicode = 3078;
},
{
glyphname = "be-hira";
lastChange = "2020-06-28 12:07:24 +0000";
layers = (
{
layerId = "53C12EC5-7AF6-4A76-BF07-F72C20CC49D7";
paths = (
{
closed = 1;
nodes = (
"773 614 LINE",
"741 677 OFFCURVE",
"710 735 OFFCURVE",
"680 790 CURVE",
"567 733 LINE",
"602 670 OFFCURVE",
"633 612 OFFCURVE",
"660 560 CURVE"
);
},
{
closed = 1;
nodes = (
"950 650 LINE",
"929 691 OFFCURVE",
"898 751 OFFCURVE",
"855 830 CURVE",
"740 772 LINE",
"775 709 OFFCURVE",
"807 650 OFFCURVE",
"835 595 CURVE"
);
},
{
closed = 1;
nodes = (
"990 180 LINE",
"914 250 OFFCURVE",
"744 412 OFFCURVE",
"641 511 CURVE SMOOTH",
"552 596 OFFCURVE",
"496 640 OFFCURVE",
"410 640 CURVE SMOOTH",
"323 640 OFFCURVE",
"282 613 OFFCURVE",
"224 540 CURVE SMOOTH",
"150 447 OFFCURVE",
"36 301 OFFCURVE",
"10 270 CURVE",
"150 140 LINE",
"203 206 OFFCURVE",
"258 275 OFFCURVE",
"311 350 CURVE SMOOTH",
"346 399 OFFCURVE",
"377 440 OFFCURVE",
"405 440 CURVE SMOOTH",
"434 440 OFFCURVE",
"473 397 OFFCURVE",
"529 342 CURVE SMOOTH",
"641 232 OFFCURVE",
"753 129 OFFCURVE",
"860 30 CURVE"
);
}
);
vertWidth = 1000;
width = 1000;
},
{
layerId = "14B87609-B57D-449B-8E42-0E3479D6265D";
paths = (
{
closed = 1;
nodes = (
"731 539 LINE",
"700 596 OFFCURVE",
"663 656 OFFCURVE",
"620 721 CURVE",
"604 709 LINE",
"639 656 OFFCURVE",
"676 596 OFFCURVE",
"713 529 CURVE"
);
},
{
closed = 1;
nodes = (
"869 580 LINE",
"835 641 OFFCURVE",
"797 703 OFFCURVE",
"755 766 CURVE",
"739 754 LINE",
"774 702 OFFCURVE",
"812 641 OFFCURVE",
"851 570 CURVE"
);
},
{
closed = 1;
nodes = (
"947 138 LINE",
"816 252 OFFCURVE",
"690 367 OFFCURVE",
"569 482 CURVE SMOOTH",
"497 550 OFFCURVE",
"465 590 OFFCURVE",
"410 590 CURVE SMOOTH",
"356 590 OFFCURVE",
"325 545 OFFCURVE",
"258 464 CURVE SMOOTH",
"181 370 OFFCURVE",
"112 292 OFFCURVE",
"53 227 CURVE",
"67 213 LINE",
"126 279 OFFCURVE",
"195 359 OFFCURVE",
"273 452 CURVE SMOOTH",
"340 532 OFFCURVE",
"373 571 OFFCURVE",
"411 571 CURVE SMOOTH",
"446 571 OFFCURVE",
"484 536 OFFCURVE",
"555 468 CURVE SMOOTH",
"691 338 OFFCURVE",
"817 223 OFFCURVE",
"933 122 CURVE"
);
}
);
vertWidth = 1000;
width = 1000;
}
);
note = uni3079;
unicode = 3079;
},
{
glyphname = "pe-hira";
lastChange = "2020-06-28 12:08:12 +0000";
layers = (
{
layerId = "53C12EC5-7AF6-4A76-BF07-F72C20CC49D7";
paths = (
{
closed = 1;
nodes = (
"990 180 LINE",
"914 250 OFFCURVE",
"744 412 OFFCURVE",
"641 511 CURVE SMOOTH",
"552 596 OFFCURVE",
"496 640 OFFCURVE",
"410 640 CURVE SMOOTH",
"323 640 OFFCURVE",
"282 613 OFFCURVE",
"224 540 CURVE SMOOTH",
"150 447 OFFCURVE",
"36 301 OFFCURVE",
"10 270 CURVE",
"150 140 LINE",
"203 206 OFFCURVE",
"258 275 OFFCURVE",
"311 350 CURVE SMOOTH",
"346 399 OFFCURVE",
"377 440 OFFCURVE",
"405 440 CURVE SMOOTH",
"434 440 OFFCURVE",
"473 397 OFFCURVE",
"529 342 CURVE SMOOTH",
"641 232 OFFCURVE",
"753 129 OFFCURVE",
"860 30 CURVE"
);
},
{
closed = 1;
nodes = (
"630 470 OFFCURVE",
"950 470 OFFCURVE",
"950 680 CURVE SMOOTH",
"950 890 OFFCURVE",
"630 890 OFFCURVE",
"630 680 CURVE SMOOTH"
);
},
{
closed = 1;
nodes = (
"720 772 OFFCURVE",
"860 772 OFFCURVE",
"860 680 CURVE SMOOTH",
"860 588 OFFCURVE",
"720 588 OFFCURVE",
"720 680 CURVE SMOOTH"
);
}
);
vertWidth = 1000;
width = 1000;
},
{
layerId = "14B87609-B57D-449B-8E42-0E3479D6265D";
paths = (
{
closed = 1;
nodes = (
"947 138 LINE",
"816 252 OFFCURVE",
"690 367 OFFCURVE",
"569 482 CURVE SMOOTH",
"497 550 OFFCURVE",
"465 590 OFFCURVE",
"410 590 CURVE SMOOTH",
"356 590 OFFCURVE",
"325 545 OFFCURVE",
"258 464 CURVE SMOOTH",
"181 370 OFFCURVE",
"112 292 OFFCURVE",
"53 227 CURVE",
"67 213 LINE",
"126 279 OFFCURVE",
"195 359 OFFCURVE",
"273 452 CURVE SMOOTH",
"340 532 OFFCURVE",
"373 571 OFFCURVE",
"411 571 CURVE SMOOTH",
"446 571 OFFCURVE",
"484 536 OFFCURVE",
"555 468 CURVE SMOOTH",
"691 338 OFFCURVE",
"817 223 OFFCURVE",
"933 122 CURVE"
);
},
{
closed = 1;
nodes = (
"635 484 OFFCURVE",
"865 484 OFFCURVE",
"865 635 CURVE SMOOTH",
"865 786 OFFCURVE",
"635 786 OFFCURVE",
"635 635 CURVE SMOOTH"
);
},
{
closed = 1;
nodes = (
"655 760 OFFCURVE",
"845 760 OFFCURVE",
"845 635 CURVE SMOOTH",
"845 510 OFFCURVE",
"655 510 OFFCURVE",
"655 635 CURVE SMOOTH"
);
}
);
vertWidth = 1000;
width = 1000;
}
);
note = uni307A;
unicode = 307A;
},
{
glyphname = "ho-hira";
lastChange = "2020-06-28 12:08:23 +0000";
layers = (
{
layerId = "53C12EC5-7AF6-4A76-BF07-F72C20CC49D7";
paths = (
{
closed = 1;
nodes = (
"687 -45 OFFCURVE",
"770 34 OFFCURVE",
"770 165 CURVE SMOOTH",
"770 400 LINE",
"930 400 LINE",
"930 555 LINE",
"770 555 LINE",
"770 615 LINE",
"930 615 LINE",
"930 775 LINE",
"350 775 LINE",
"350 615 LINE",
"590 615 LINE",
"590 555 LINE",
"350 555 LINE",
"350 400 LINE",
"590 400 LINE",
"590 175 LINE SMOOTH",
"590 135 OFFCURVE",
"573 115 OFFCURVE",
"540 115 CURVE SMOOTH",
"496 115 OFFCURVE",
"480 127 OFFCURVE",
"480 155 CURVE SMOOTH",
"480 182 OFFCURVE",
"503 195 OFFCURVE",
"550 195 CURVE SMOOTH",
"644 195 OFFCURVE",
"727 107 OFFCURVE",
"835 -10 CURVE",
"950 105 LINE",
"767 304 OFFCURVE",
"688 350 OFFCURVE",
"560 350 CURVE SMOOTH",
"393 350 OFFCURVE",
"310 285 OFFCURVE",
"310 155 CURVE SMOOTH",
"310 22 OFFCURVE",
"393 -45 OFFCURVE",
"560 -45 CURVE SMOOTH"
);
},
{
closed = 1;
nodes = (
"297 -20 LINE",
"266 104 OFFCURVE",
"250 237 OFFCURVE",
"250 380 CURVE SMOOTH",
"250 523 OFFCURVE",
"266 656 OFFCURVE",
"297 780 CURVE",
"120 800 LINE",
"87 667 OFFCURVE",
"70 527 OFFCURVE",
"70 380 CURVE SMOOTH",
"70 233 OFFCURVE",
"87 93 OFFCURVE",
"120 -40 CURVE"
);
}
);
vertWidth = 1000;
width = 1000;
},
{
layerId = "14B87609-B57D-449B-8E42-0E3479D6265D";
paths = (
{
closed = 1;
nodes = (
"674 -20 OFFCURVE",
"730 39 OFFCURVE",
"730 170 CURVE SMOOTH",
"730 500 LINE",
"920 500 LINE",
"920 520 LINE",
"730 520 LINE",
"730 730 LINE",
"920 730 LINE",
"920 750 LINE",
"380 750 LINE",
"380 730 LINE",
"710 730 LINE",
"710 520 LINE",
"380 520 LINE",
"380 500 LINE",
"710 500 LINE",
"710 170 LINE SMOOTH",
"710 51 OFFCURVE",
"662 0 OFFCURVE",
"550 0 CURVE SMOOTH",
"442 0 OFFCURVE",
"380 47 OFFCURVE",
"380 130 CURVE SMOOTH",
"380 203 OFFCURVE",
"437 240 OFFCURVE",
"550 240 CURVE SMOOTH",
"651 240 OFFCURVE",
"754 183 OFFCURVE",
"903 43 CURVE",
"917 57 LINE",
"764 201 OFFCURVE",
"657 260 OFFCURVE",
"550 260 CURVE SMOOTH",
"417 260 OFFCURVE",
"360 206 OFFCURVE",
"360 130 CURVE SMOOTH",
"360 37 OFFCURVE",
"431 -20 OFFCURVE",
"550 -20 CURVE SMOOTH"
);
},
{
closed = 1;
nodes = (
"180 -17 LINE",
"147 109 OFFCURVE",
"130 241 OFFCURVE",
"130 380 CURVE SMOOTH",
"130 519 OFFCURVE",
"147 651 OFFCURVE",
"180 777 CURVE",
"160 783 LINE",
"127 657 OFFCURVE",
"110 523 OFFCURVE",
"110 380 CURVE SMOOTH",
"110 237 OFFCURVE",
"127 103 OFFCURVE",
"160 -23 CURVE"
);
}
);
vertWidth = 1000;
width = 1000;
}
);
note = uni307B;
unicode = 307B;
},
{
glyphname = "bo-hira";
lastChange = "2020-06-28 12:09:53 +0000";
layers = (
{
layerId = "53C12EC5-7AF6-4A76-BF07-F72C20CC49D7";
paths = (
{
closed = 1;
nodes = (
"677 -55 OFFCURVE",
"760 24 OFFCURVE",
"760 155 CURVE SMOOTH",
"760 390 LINE",
"920 390 LINE",
"920 545 LINE",
"760 545 LINE",
"760 605 LINE",
"760 605 LINE",
"760 765 LINE",
"340 765 LINE",
"340 605 LINE",
"580 605 LINE",
"580 545 LINE",
"340 545 LINE",
"340 390 LINE",
"580 390 LINE",
"580 165 LINE SMOOTH",
"580 125 OFFCURVE",
"563 105 OFFCURVE",
"530 105 CURVE SMOOTH",
"486 105 OFFCURVE",
"470 117 OFFCURVE",
"470 145 CURVE SMOOTH",
"470 172 OFFCURVE",
"493 185 OFFCURVE",
"540 185 CURVE SMOOTH",
"634 185 OFFCURVE",
"717 97 OFFCURVE",
"825 -20 CURVE",
"940 95 LINE",
"757 294 OFFCURVE",
"678 340 OFFCURVE",
"550 340 CURVE SMOOTH",
"383 340 OFFCURVE",
"300 275 OFFCURVE",
"300 145 CURVE SMOOTH",
"300 12 OFFCURVE",
"383 -55 OFFCURVE",
"550 -55 CURVE SMOOTH"
);
},
{
closed = 1;
nodes = (
"287 -30 LINE",
"256 94 OFFCURVE",
"240 227 OFFCURVE",
"240 370 CURVE SMOOTH",
"240 513 OFFCURVE",
"256 646 OFFCURVE",
"287 770 CURVE",
"110 790 LINE",
"77 657 OFFCURVE",
"60 517 OFFCURVE",
"60 370 CURVE SMOOTH",
"60 223 OFFCURVE",
"77 83 OFFCURVE",
"110 -50 CURVE"
);
},
{
closed = 1;
nodes = (
"833 653 LINE",
"807 704 OFFCURVE",
"779 758 OFFCURVE",
"748 815 CURVE",
"645 763 LINE",
"676 710 OFFCURVE",
"704 657 OFFCURVE",
"730 604 CURVE"
);
},
{
closed = 1;
nodes = (
"990 695 LINE",
"956 762 OFFCURVE",
"927 817 OFFCURVE",
"903 860 CURVE",
"798 807 LINE",
"826 757 OFFCURVE",
"855 703 OFFCURVE",
"885 645 CURVE"
);
}
);
vertWidth = 1000;
width = 1000;
},
{
layerId = "14B87609-B57D-449B-8E42-0E3479D6265D";
paths = (
{
closed = 1;
nodes = (
"654 -30 OFFCURVE",
"710 29 OFFCURVE",
"710 160 CURVE SMOOTH",
"710 490 LINE",
"910 490 LINE",
"910 510 LINE",
"710 510 LINE",
"710 720 LINE",
"835 720 LINE",
"835 740 LINE",
"360 740 LINE",
"360 720 LINE",
"690 720 LINE",
"690 510 LINE",
"360 510 LINE",
"360 490 LINE",
"690 490 LINE",
"690 160 LINE SMOOTH",
"690 41 OFFCURVE",
"642 -10 OFFCURVE",
"530 -10 CURVE SMOOTH",
"422 -10 OFFCURVE",
"360 37 OFFCURVE",
"360 120 CURVE SMOOTH",
"360 193 OFFCURVE",
"417 230 OFFCURVE",
"530 230 CURVE SMOOTH",
"631 230 OFFCURVE",
"734 173 OFFCURVE",
"883 33 CURVE",
"897 47 LINE",
"744 191 OFFCURVE",
"637 250 OFFCURVE",
"530 250 CURVE SMOOTH",
"397 250 OFFCURVE",
"340 196 OFFCURVE",
"340 120 CURVE SMOOTH",
"340 27 OFFCURVE",
"411 -30 OFFCURVE",
"530 -30 CURVE SMOOTH"
);
},
{
closed = 1;
nodes = (
"170 -27 LINE",
"137 99 OFFCURVE",
"120 231 OFFCURVE",
"120 370 CURVE SMOOTH",
"120 509 OFFCURVE",
"137 641 OFFCURVE",
"170 767 CURVE",
"150 773 LINE",
"117 647 OFFCURVE",
"100 513 OFFCURVE",
"100 370 CURVE SMOOTH",
"100 227 OFFCURVE",
"117 93 OFFCURVE",
"150 -33 CURVE"
);
},
{
closed = 1;
nodes = (
"866 695 LINE",
"837 748 OFFCURVE",
"806 799 OFFCURVE",
"773 846 CURVE",
"757 834 LINE",
"791 783 OFFCURVE",
"821 733 OFFCURVE",
"848 685 CURVE"
);
},
{
closed = 1;
nodes = (
"989 711 LINE",
"956 769 OFFCURVE",
"925 821 OFFCURVE",
"894 866 CURVE",
"878 854 LINE",
"913 801 OFFCURVE",
"944 750 OFFCURVE",
"971 701 CURVE"
);
}
);
vertWidth = 1000;
width = 1000;
}
);
note = uni307C;
unicode = 307C;
},
{
glyphname = "po-hira";
lastChange = "2020-06-28 12:10:24 +0000";
layers = (
{
layerId = "53C12EC5-7AF6-4A76-BF07-F72C20CC49D7";
paths = (
{
closed = 1;
nodes = (
"677 -55 OFFCURVE",
"760 24 OFFCURVE",
"760 155 CURVE SMOOTH",
"760 380 LINE",
"920 380 LINE",
"920 535 LINE",
"760 535 LINE",
"760 605 LINE",
"760 605 LINE",
"760 765 LINE",
"340 765 LINE",
"340 605 LINE",
"580 605 LINE",
"580 535 LINE",
"340 535 LINE",
"340 380 LINE",
"580 380 LINE",
"580 165 LINE SMOOTH",
"580 125 OFFCURVE",
"563 105 OFFCURVE",
"530 105 CURVE SMOOTH",
"486 105 OFFCURVE",
"470 117 OFFCURVE",
"470 145 CURVE SMOOTH",
"470 172 OFFCURVE",
"493 185 OFFCURVE",
"540 185 CURVE SMOOTH",
"634 185 OFFCURVE",
"717 97 OFFCURVE",
"825 -20 CURVE",
"940 95 LINE",
"757 294 OFFCURVE",
"678 340 OFFCURVE",
"550 340 CURVE SMOOTH",
"383 340 OFFCURVE",
"300 275 OFFCURVE",
"300 145 CURVE SMOOTH",
"300 12 OFFCURVE",
"383 -55 OFFCURVE",
"550 -55 CURVE SMOOTH"
);
},
{
closed = 1;
nodes = (
"287 -30 LINE",
"256 94 OFFCURVE",
"240 227 OFFCURVE",
"240 370 CURVE SMOOTH",
"240 513 OFFCURVE",
"256 646 OFFCURVE",
"287 770 CURVE",
"110 790 LINE",
"77 657 OFFCURVE",
"60 517 OFFCURVE",
"60 370 CURVE SMOOTH",
"60 223 OFFCURVE",
"77 83 OFFCURVE",
"110 -50 CURVE"
);
},
{
closed = 1;
nodes = (
"690 523 OFFCURVE",
"990 523 OFFCURVE",
"990 720 CURVE SMOOTH",
"990 917 OFFCURVE",
"690 917 OFFCURVE",
"690 720 CURVE SMOOTH"
);
},
{
closed = 1;
nodes = (
"775 806 OFFCURVE",
"905 806 OFFCURVE",
"905 720 CURVE SMOOTH",
"905 634 OFFCURVE",
"775 634 OFFCURVE",
"775 720 CURVE SMOOTH"
);
}
);
vertWidth = 1000;
width = 1000;
},
{
layerId = "14B87609-B57D-449B-8E42-0E3479D6265D";
paths = (
{
closed = 1;
nodes = (
"654 -30 OFFCURVE",
"710 29 OFFCURVE",
"710 160 CURVE SMOOTH",
"710 490 LINE",
"910 490 LINE",
"910 510 LINE",
"710 510 LINE",
"710 720 LINE",
"785 720 LINE",
"785 740 LINE",
"360 740 LINE",
"360 720 LINE",
"690 720 LINE",
"690 510 LINE",
"360 510 LINE",
"360 490 LINE",
"690 490 LINE",
"690 160 LINE SMOOTH",
"690 41 OFFCURVE",
"642 -10 OFFCURVE",
"530 -10 CURVE SMOOTH",
"422 -10 OFFCURVE",
"360 37 OFFCURVE",
"360 120 CURVE SMOOTH",
"360 193 OFFCURVE",
"417 230 OFFCURVE",
"530 230 CURVE SMOOTH",
"631 230 OFFCURVE",
"734 173 OFFCURVE",
"883 33 CURVE",
"897 47 LINE",
"744 191 OFFCURVE",
"637 250 OFFCURVE",
"530 250 CURVE SMOOTH",
"397 250 OFFCURVE",
"340 196 OFFCURVE",
"340 120 CURVE SMOOTH",
"340 27 OFFCURVE",
"411 -30 OFFCURVE",
"530 -30 CURVE SMOOTH"
);
},
{
closed = 1;
nodes = (
"170 -27 LINE",
"137 99 OFFCURVE",
"120 231 OFFCURVE",
"120 370 CURVE SMOOTH",
"120 509 OFFCURVE",
"137 641 OFFCURVE",
"170 767 CURVE",
"150 773 LINE",
"117 647 OFFCURVE",
"100 513 OFFCURVE",
"100 370 CURVE SMOOTH",
"100 227 OFFCURVE",
"117 93 OFFCURVE",
"150 -33 CURVE"
);
},
{
closed = 1;
nodes = (
"770 615 OFFCURVE",
"990 615 OFFCURVE",
"990 760 CURVE SMOOTH",
"990 905 OFFCURVE",
"770 905 OFFCURVE",
"770 760 CURVE SMOOTH"
);
},
{
closed = 1;
nodes = (
"790 879 OFFCURVE",
"970 879 OFFCURVE",
"970 760 CURVE SMOOTH",
"970 641 OFFCURVE",
"790 641 OFFCURVE",
"790 760 CURVE SMOOTH"
);
}
);
vertWidth = 1000;
width = 1000;
}
);
note = uni307D;
unicode = 307D;
},
{
glyphname = "ma-hira";
lastChange = "2020-06-28 12:10:43 +0000";
layers = (
{
layerId = "53C12EC5-7AF6-4A76-BF07-F72C20CC49D7";
paths = (
{
closed = 1;
nodes = (
"582 -50 OFFCURVE",
"660 18 OFFCURVE",
"660 190 CURVE SMOOTH",
"660 385 LINE",
"860 385 LINE",
"860 540 LINE",
"660 540 LINE",
"660 580 LINE",
"900 580 LINE",
"900 740 LINE",
"660 740 LINE",
"660 820 LINE",
"480 820 LINE",
"480 740 LINE",
"100 740 LINE",
"100 580 LINE",
"480 580 LINE",
"480 540 LINE",
"140 540 LINE",
"140 385 LINE",
"480 385 LINE",
"480 190 LINE SMOOTH",
"480 123 OFFCURVE",
"465 110 OFFCURVE",
"390 110 CURVE SMOOTH",
"350 110 OFFCURVE",
"330 123 OFFCURVE",
"330 150 CURVE SMOOTH",
"330 177 OFFCURVE",
"357 190 OFFCURVE",
"410 190 CURVE SMOOTH",
"495 190 OFFCURVE",
"615 117 OFFCURVE",
"770 -30 CURVE",
"880 90 LINE",
"688 271 OFFCURVE",
"542 345 OFFCURVE",
"390 345 CURVE SMOOTH",
"235 345 OFFCURVE",
"150 273 OFFCURVE",
"150 150 CURVE SMOOTH",
"150 23 OFFCURVE",
"239 -50 OFFCURVE",
"390 -50 CURVE SMOOTH"
);
}
);
vertWidth = 1000;
width = 1000;
},
{
layerId = "14B87609-B57D-449B-8E42-0E3479D6265D";
paths = (
{
closed = 1;
nodes = (
"527 -20 OFFCURVE",
"580 39 OFFCURVE",
"580 190 CURVE SMOOTH",
"580 470 LINE",
"840 470 LINE",
"840 490 LINE",
"580 490 LINE",
"580 670 LINE",
"870 670 LINE",
"870 690 LINE",
"580 690 LINE",
"580 820 LINE",
"560 820 LINE",
"560 690 LINE",
"130 690 LINE",
"130 670 LINE",
"560 670 LINE",
"560 490 LINE",
"160 490 LINE",
"160 470 LINE",
"560 470 LINE",
"560 190 LINE SMOOTH",
"560 50 OFFCURVE",
"515 0 OFFCURVE",
"390 0 CURVE SMOOTH",
"281 0 OFFCURVE",
"210 55 OFFCURVE",
"210 140 CURVE SMOOTH",
"210 220 OFFCURVE",
"270 260 OFFCURVE",
"390 260 CURVE SMOOTH",
"493 260 OFFCURVE",
"641 181 OFFCURVE",
"834 22 CURVE",
"846 38 LINE",
"650 199 OFFCURVE",
"498 280 OFFCURVE",
"390 280 CURVE SMOOTH",
"276 280 OFFCURVE",
"190 241 OFFCURVE",
"190 140 CURVE SMOOTH",
"190 43 OFFCURVE",
"269 -20 OFFCURVE",
"390 -20 CURVE SMOOTH"
);
}
);
vertWidth = 1000;
width = 1000;
}
);
note = uni307E;
unicode = 307E;
},
{
glyphname = "mi-hira";
lastChange = "2020-06-28 11:55:53 +0000";
layers = (
{
layerId = "53C12EC5-7AF6-4A76-BF07-F72C20CC49D7";
paths = (
{
closed = 1;
nodes = (
"374 -30 OFFCURVE",
"416 -10 OFFCURVE",
"463 81 CURVE SMOOTH",
"510 171 OFFCURVE",
"542 336 OFFCURVE",
"575 620 CURVE",
"380 630 LINE",
"369 488 OFFCURVE",
"349 296 OFFCURVE",
"319 214 CURVE SMOOTH",
"308 184 OFFCURVE",
"296 160 OFFCURVE",
"275 160 CURVE SMOOTH",
"258 160 OFFCURVE",
"230 199 OFFCURVE",
"230 230 CURVE SMOOTH",
"230 313 OFFCURVE",
"364 335 OFFCURVE",
"490 335 CURVE SMOOTH",
"621 335 OFFCURVE",
"771 288 OFFCURVE",
"895 205 CURVE",
"970 360 LINE",
"820 453 OFFCURVE",
"660 500 OFFCURVE",
"490 500 CURVE SMOOTH",
"214 500 OFFCURVE",
"50 389 OFFCURVE",
"50 230 CURVE SMOOTH",
"50 95 OFFCURVE",
"172 -30 OFFCURVE",
"295 -30 CURVE SMOOTH"
);
},
{
closed = 1;
nodes = (
"692 6 OFFCURVE",
"751 50 OFFCURVE",
"788 157 CURVE SMOOTH",
"808 215 OFFCURVE",
"815 264 OFFCURVE",
"822 360 CURVE SMOOTH",
"829 456 OFFCURVE",
"830 548 OFFCURVE",
"830 700 CURVE",
"650 700 LINE",
"650 624 OFFCURVE",
"650 501 OFFCURVE",
"648 451 CURVE SMOOTH",
"646 392 OFFCURVE",
"645 333 OFFCURVE",
"639 294 CURVE SMOOTH",
"623 185 OFFCURVE",
"600 155 OFFCURVE",
"490 90 CURVE",
"580 -60 LINE"
);
},
{
closed = 1;
nodes = (
"575 620 LINE",
"575 780 LINE",
"125 780 LINE",
"125 620 LINE"
);
}
);
vertWidth = 1000;
width = 1000;
},
{
layerId = "14B87609-B57D-449B-8E42-0E3479D6265D";
paths = (
{
closed = 1;
nodes = (
"341 10 OFFCURVE",
"374 84 OFFCURVE",
"397 167 CURVE SMOOTH",
"437 313 OFFCURVE",
"467 505 OFFCURVE",
"490 730 CURVE",
"470 732 LINE",
"444 456 OFFCURVE",
"410 260 OFFCURVE",
"376 161 CURVE SMOOTH",
"347 78 OFFCURVE",
"319 30 OFFCURVE",
"270 30 CURVE SMOOTH",
"201 30 OFFCURVE",
"100 148 OFFCURVE",
"100 245 CURVE SMOOTH",
"100 334 OFFCURVE",
"235 420 OFFCURVE",
"430 420 CURVE SMOOTH",
"608 420 OFFCURVE",
"776 371 OFFCURVE",
"935 272 CURVE",
"945 288 LINE",
"782 389 OFFCURVE",
"611 440 OFFCURVE",
"430 440 CURVE SMOOTH",
"225 440 OFFCURVE",
"80 345 OFFCURVE",
"80 245 CURVE SMOOTH",
"80 137 OFFCURVE",
"190 10 OFFCURVE",
"270 10 CURVE SMOOTH"
);
},
{
closed = 1;
nodes = (
"642 12 OFFCURVE",
"701 54 OFFCURVE",
"730 147 CURVE SMOOTH",
"748 205 OFFCURVE",
"763 308 OFFCURVE",
"767 434 CURVE SMOOTH",
"769 497 OFFCURVE",
"770 575 OFFCURVE",
"770 670 CURVE",
"750 670 LINE",
"750 594 OFFCURVE",
"750 513 OFFCURVE",
"747 438 CURVE SMOOTH",
"743 330 OFFCURVE",
"733 230 OFFCURVE",
"712 158 CURVE SMOOTH",
"686 71 OFFCURVE",
"633 29 OFFCURVE",
"546 -11 CURVE",
"554 -29 LINE"
);
},
{
closed = 1;
nodes = (
"490 730 LINE",
"490 750 LINE",
"150 750 LINE",
"150 730 LINE"
);
}
);
vertWidth = 1000;
width = 1000;
}
);
note = uni307F;
unicode = 307F;
},
{
glyphname = "mu-hira";
lastChange = "2020-06-28 12:14:07 +0000";
layers = (
{
layerId = "53C12EC5-7AF6-4A76-BF07-F72C20CC49D7";
paths = (
{
closed = 1;
nodes = (
"753 -50 OFFCURVE",
"860 -30 OFFCURVE",
"860 135 CURVE SMOOTH",
"860 198 OFFCURVE",
"847 289 OFFCURVE",
"820 410 CURVE",
"645 375 LINE",
"665 268 OFFCURVE",
"675 202 OFFCURVE",
"675 175 CURVE SMOOTH",
"675 111 OFFCURVE",
"641 110 OFFCURVE",
"550 110 CURVE SMOOTH",
"477 110 OFFCURVE",
"420 104 OFFCURVE",
"420 130 CURVE SMOOTH",
"420 138 OFFCURVE",
"423 155 OFFCURVE",
"430 180 CURVE SMOOTH",
"443 226 OFFCURVE",
"450 276 OFFCURVE",
"450 330 CURVE SMOOTH",
"450 580 LINE",
"590 580 LINE",
"590 740 LINE",
"450 740 LINE",
"450 830 LINE",
"270 830 LINE",
"270 740 LINE",
"70 740 LINE",
"70 580 LINE",
"270 580 LINE",
"270 540 LINE",
"268 539 LINE",
"244 546 OFFCURVE",
"221 550 OFFCURVE",
"200 550 CURVE SMOOTH",
"97 550 OFFCURVE",
"40 481 OFFCURVE",
"40 340 CURVE SMOOTH",
"40 199 OFFCURVE",
"99 130 OFFCURVE",
"200 130 CURVE SMOOTH",
"215 130 OFFCURVE",
"232 133 OFFCURVE",
"250 140 CURVE",
"251 139 LINE",
"249 130 OFFCURVE",
"244 116 OFFCURVE",
"235 97 CURVE SMOOTH",
"225 75 OFFCURVE",
"220 56 OFFCURVE",
"220 40 CURVE SMOOTH",
"220 -54 OFFCURVE",
"370 -50 OFFCURVE",
"550 -50 CURVE SMOOTH"
);
},
{
closed = 1;
nodes = (
"200 394 OFFCURVE",
"220 422 OFFCURVE",
"240 422 CURVE SMOOTH",
"260 422 OFFCURVE",
"280 396 OFFCURVE",
"280 340 CURVE SMOOTH",
"280 282 OFFCURVE",
"258 258 OFFCURVE",
"238 258 CURVE SMOOTH",
"215 258 OFFCURVE",
"200 288 OFFCURVE",
"200 340 CURVE SMOOTH"
);
},
{
closed = 1;
nodes = (
"980 600 LINE",
"889 659 OFFCURVE",
"803 712 OFFCURVE",
"720 760 CURVE",
"630 620 LINE",
"711 573 OFFCURVE",
"798 520 OFFCURVE",
"890 460 CURVE"
);
}
);
vertWidth = 1000;
width = 1000;
},
{
layerId = "14B87609-B57D-449B-8E42-0E3479D6265D";
paths = (
{
closed = 1;
nodes = (
"719 -20 OFFCURVE",
"830 -12 OFFCURVE",
"830 110 CURVE SMOOTH",
"830 177 OFFCURVE",
"813 262 OFFCURVE",
"780 363 CURVE",
"760 357 LINE",
"793 255 OFFCURVE",
"810 173 OFFCURVE",
"810 110 CURVE SMOOTH",
"810 5 OFFCURVE",
"708 0 OFFCURVE",
"550 0 CURVE SMOOTH",
"421 0 OFFCURVE",
"290 -3 OFFCURVE",
"290 74 CURVE SMOOTH",
"290 93 OFFCURVE",
"296 116 OFFCURVE",
"307 148 CURVE SMOOTH",
"336 231 OFFCURVE",
"350 309 OFFCURVE",
"350 380 CURVE SMOOTH",
"350 660 LINE",
"560 660 LINE",
"560 680 LINE",
"350 680 LINE",
"350 820 LINE",
"330 820 LINE",
"330 680 LINE",
"100 680 LINE",
"100 660 LINE",
"330 660 LINE",
"330 482 LINE",
"328 482 LINE",
"307 527 OFFCURVE",
"274 550 OFFCURVE",
"230 550 CURVE SMOOTH",
"137 550 OFFCURVE",
"90 493 OFFCURVE",
"90 380 CURVE SMOOTH",
"90 267 OFFCURVE",
"137 210 OFFCURVE",
"224 210 CURVE SMOOTH",
"266 210 OFFCURVE",
"296 228 OFFCURVE",
"320 265 CURVE",
"322 264 LINE",
"311 224 OFFCURVE",
"300 188 OFFCURVE",
"288 154 CURVE SMOOTH",
"276 118 OFFCURVE",
"270 93 OFFCURVE",
"270 74 CURVE SMOOTH",
"270 -17 OFFCURVE",
"392 -20 OFFCURVE",
"550 -20 CURVE SMOOTH"
);
},
{
closed = 1;
nodes = (
"150 230 OFFCURVE",
"110 280 OFFCURVE",
"110 377 CURVE SMOOTH",
"110 480 OFFCURVE",
"150 530 OFFCURVE",
"230 530 CURVE SMOOTH",
"291 530 OFFCURVE",
"330 471 OFFCURVE",
"330 380 CURVE SMOOTH",
"330 275 OFFCURVE",
"281 230 OFFCURVE",
"219 230 CURVE SMOOTH"
);
},
{
closed = 1;
nodes = (
"936 538 LINE",
"872 592 OFFCURVE",
"798 645 OFFCURVE",
"715 698 CURVE",
"705 682 LINE",
"780 635 OFFCURVE",
"853 581 OFFCURVE",
"924 522 CURVE"
);
}
);
vertWidth = 1000;
width = 1000;
}
);
note = uni3080;
unicode = 3080;
},
{
glyphname = "me-hira";
lastChange = "2020-06-28 12:14:50 +0000";
layers = (
{
layerId = "53C12EC5-7AF6-4A76-BF07-F72C20CC49D7";
paths = (
{
closed = 1;
nodes = (
"839 -15 OFFCURVE",
"950 109 OFFCURVE",
"950 340 CURVE SMOOTH",
"950 557 OFFCURVE",
"777 710 OFFCURVE",
"520 710 CURVE SMOOTH",
"248 710 OFFCURVE",
"50 522 OFFCURVE",
"50 270 CURVE SMOOTH",
"50 91 OFFCURVE",
"131 -10 OFFCURVE",
"250 -10 CURVE SMOOTH",
"346 -10 OFFCURVE",
"447 57 OFFCURVE",
"540 186 CURVE SMOOTH",
"633 315 OFFCURVE",
"721 533 OFFCURVE",
"780 804 CURVE",
"610 840 LINE",
"565 632 OFFCURVE",
"497 445 OFFCURVE",
"434 337 CURVE SMOOTH",
"381 247 OFFCURVE",
"316 165 OFFCURVE",
"270 165 CURVE SMOOTH",
"237 165 OFFCURVE",
"220 200 OFFCURVE",
"220 270 CURVE SMOOTH",
"220 426 OFFCURVE",
"341 530 OFFCURVE",
"520 530 CURVE SMOOTH",
"673 530 OFFCURVE",
"770 452 OFFCURVE",
"770 340 CURVE SMOOTH",
"770 204 OFFCURVE",
"710 136 OFFCURVE",
"575 115 CURVE",
"620 -50 LINE"
);
},
{
closed = 1;
nodes = (
"510 200 LINE",
"438 398 OFFCURVE",
"378 600 OFFCURVE",
"330 805 CURVE",
"160 770 LINE",
"207 565 OFFCURVE",
"271 358 OFFCURVE",
"350 150 CURVE"
);
}
);
vertWidth = 1000;
width = 1000;
},
{
layerId = "14B87609-B57D-449B-8E42-0E3479D6265D";
paths = (
{
closed = 1;
nodes = (
"782 6 OFFCURVE",
"910 141 OFFCURVE",
"910 320 CURVE SMOOTH",
"910 517 OFFCURVE",
"753 650 OFFCURVE",
"520 650 CURVE SMOOTH",
"271 650 OFFCURVE",
"90 485 OFFCURVE",
"90 260 CURVE SMOOTH",
"90 119 OFFCURVE",
"161 30 OFFCURVE",
"240 30 CURVE SMOOTH",
"324 30 OFFCURVE",
"410 127 OFFCURVE",
"472 222 CURVE SMOOTH",
"576 379 OFFCURVE",
"664 619 OFFCURVE",
"720 817 CURVE",
"700 823 LINE",
"628 572 OFFCURVE",
"550 381 OFFCURVE",
"465 249 CURVE SMOOTH",
"380 116 OFFCURVE",
"305 50 OFFCURVE",
"240 50 CURVE SMOOTH",
"172 50 OFFCURVE",
"110 132 OFFCURVE",
"110 260 CURVE SMOOTH",
"110 475 OFFCURVE",
"283 630 OFFCURVE",
"520 630 CURVE SMOOTH",
"741 630 OFFCURVE",
"890 505 OFFCURVE",
"890 320 CURVE SMOOTH",
"890 149 OFFCURVE",
"772 25 OFFCURVE",
"599 10 CURVE",
"601 -10 LINE"
);
},
{
closed = 1;
nodes = (
"429 163 LINE",
"352 374 OFFCURVE",
"293 580 OFFCURVE",
"250 782 CURVE",
"230 778 LINE",
"273 579 OFFCURVE",
"333 372 OFFCURVE",
"411 157 CURVE"
);
}
);
vertWidth = 1000;
width = 1000;
}
);
note = uni3081;
unicode = 3081;
},
{
glyphname = "mo-hira";
lastChange = "2020-06-28 12:16:00 +0000";
layers = (
{
layerId = "53C12EC5-7AF6-4A76-BF07-F72C20CC49D7";
paths = (
{
closed = 1;
nodes = (
"844 -50 OFFCURVE",
"940 22 OFFCURVE",
"940 190 CURVE SMOOTH",
"940 223 OFFCURVE",
"933 270 OFFCURVE",
"920 330 CURVE",
"745 290 LINE",
"755 251 OFFCURVE",
"760 222 OFFCURVE",
"760 205 CURVE SMOOTH",
"760 125 OFFCURVE",
"713 120 OFFCURVE",
"600 120 CURVE SMOOTH",
"487 120 OFFCURVE",
"470 134 OFFCURVE",
"470 230 CURVE SMOOTH",
"470 362 OFFCURVE",
"480 557 OFFCURVE",
"500 815 CURVE",
"310 820 LINE",
"290 556 OFFCURVE",
"280 359 OFFCURVE",
"280 230 CURVE SMOOTH",
"280 21 OFFCURVE",
"361 -50 OFFCURVE",
"600 -50 CURVE SMOOTH"
);
},
{
closed = 1;
nodes = (
"730 325 LINE",
"730 485 LINE",
"80 485 LINE",
"80 325 LINE"
);
},
{
closed = 1;
nodes = (
"810 560 LINE",
"810 720 LINE",
"110 720 LINE",
"110 560 LINE"
);
}
);
vertWidth = 1000;
width = 1000;
},
{
layerId = "14B87609-B57D-449B-8E42-0E3479D6265D";
paths = (
{
closed = 1;
nodes = (
"771 -20 OFFCURVE",
"880 61 OFFCURVE",
"880 200 CURVE SMOOTH",
"880 227 OFFCURVE",
"877 255 OFFCURVE",
"870 282 CURVE",
"850 277 LINE",
"857 250 OFFCURVE",
"860 225 OFFCURVE",
"860 200 CURVE SMOOTH",
"860 75 OFFCURVE",
"759 0 OFFCURVE",
"590 0 CURVE SMOOTH",
"409 0 OFFCURVE",
"370 41 OFFCURVE",
"370 230 CURVE SMOOTH",
"370 339 OFFCURVE",
"380 532 OFFCURVE",
"400 809 CURVE",
"380 811 LINE",
"360 533 OFFCURVE",
"350 339 OFFCURVE",
"350 230 CURVE SMOOTH",
"350 29 OFFCURVE",
"397 -20 OFFCURVE",
"590 -20 CURVE SMOOTH"
);
},
{
closed = 1;
nodes = (
"770 400 LINE",
"770 420 LINE",
"110 420 LINE",
"110 400 LINE"
);
},
{
closed = 1;
nodes = (
"820 640 LINE",
"820 660 LINE",
"130 660 LINE",
"130 640 LINE"
);
}
);
vertWidth = 1000;
width = 1000;
}
);
note = uni3082;
unicode = 3082;
},
{
glyphname = "ya-hira";
lastChange = "2020-06-28 12:16:14 +0000";
layers = (
{
layerId = "53C12EC5-7AF6-4A76-BF07-F72C20CC49D7";
paths = (
{
closed = 1;
nodes = (
"861 175 OFFCURVE",
"970 278 OFFCURVE",
"970 450 CURVE SMOOTH",
"970 601 OFFCURVE",
"868 700 OFFCURVE",
"720 700 CURVE SMOOTH",
"664 700 OFFCURVE",
"588 685 OFFCURVE",
"491 656 CURVE SMOOTH",
"394 626 OFFCURVE",
"237 567 OFFCURVE",
"20 480 CURVE",
"85 320 LINE",
"283 400 OFFCURVE",
"434 457 OFFCURVE",
"537 491 CURVE SMOOTH",
"615 517 OFFCURVE",
"666 530 OFFCURVE",
"690 530 CURVE SMOOTH",
"750 530 OFFCURVE",
"780 500 OFFCURVE",
"780 440 CURVE SMOOTH",
"780 384 OFFCURVE",
"734 347 OFFCURVE",
"670 347 CURVE SMOOTH",
"643 347 OFFCURVE",
"613 349 OFFCURVE",
"580 353 CURVE",
"565 185 LINE",
"603 178 OFFCURVE",
"645 175 OFFCURVE",
"690 175 CURVE SMOOTH"
);
},
{
closed = 1;
nodes = (
"555 -20 LINE",
"487 246 OFFCURVE",
"409 516 OFFCURVE",
"320 790 CURVE",
"140 735 LINE",
"227 468 OFFCURVE",
"304 201 OFFCURVE",
"370 -65 CURVE"
);
},
{
closed = 1;
nodes = (
"710 425 LINE",
"667 584 OFFCURVE",
"629 719 OFFCURVE",
"595 830 CURVE",
"415 780 LINE",
"460 640 OFFCURVE",
"502 505 OFFCURVE",
"540 375 CURVE"
);
}
);
vertWidth = 1000;
width = 1000;
},
{
layerId = "14B87609-B57D-449B-8E42-0E3479D6265D";
paths = (
{
closed = 1;
nodes = (
"843 260 OFFCURVE",
"920 333 OFFCURVE",
"920 450 CURVE SMOOTH",
"920 567 OFFCURVE",
"847 640 OFFCURVE",
"730 640 CURVE SMOOTH",
"684 640 OFFCURVE",
"620 627 OFFCURVE",
"538 601 CURVE SMOOTH",
"455 575 OFFCURVE",
"298 518 OFFCURVE",
"66 429 CURVE",
"74 411 LINE",
"303 499 OFFCURVE",
"459 556 OFFCURVE",
"541 582 CURVE SMOOTH",
"622 607 OFFCURVE",
"685 620 OFFCURVE",
"730 620 CURVE SMOOTH",
"837 620 OFFCURVE",
"900 557 OFFCURVE",
"900 450 CURVE SMOOTH",
"900 343 OFFCURVE",
"833 280 OFFCURVE",
"720 280 CURVE SMOOTH",
"677 280 OFFCURVE",
"632 287 OFFCURVE",
"583 300 CURVE",
"577 280 LINE",
"628 267 OFFCURVE",
"675 260 OFFCURVE",
"720 260 CURVE SMOOTH"
);
},
{
closed = 1;
nodes = (
"490 -27 LINE",
"417 244 OFFCURVE",
"341 504 OFFCURVE",
"260 753 CURVE",
"240 747 LINE",
"319 503 OFFCURVE",
"396 243 OFFCURVE",
"470 -33 CURVE"
);
},
{
closed = 1;
nodes = (
"640 442 LINE",
"613 562 OFFCURVE",
"583 682 OFFCURVE",
"550 803 CURVE",
"530 797 LINE",
"565 670 OFFCURVE",
"595 550 OFFCURVE",
"620 438 CURVE"
);
}
);
vertWidth = 1000;
width = 1000;
}
);
note = uni3084;
unicode = 3084;
},
{
glyphname = "yasmall-hira";
lastChange = "2020-06-28 13:14:38 +0000";
layers = (
{
layerId = "53C12EC5-7AF6-4A76-BF07-F72C20CC49D7";
paths = (
{
closed = 1;
nodes = (
"787 132 OFFCURVE",
"876 213 OFFCURVE",
"876 356 CURVE SMOOTH",
"876 476 OFFCURVE",
"793 556 OFFCURVE",
"676 556 CURVE SMOOTH",
"631 556 OFFCURVE",
"570 544 OFFCURVE",
"493 521 CURVE SMOOTH",
"416 497 OFFCURVE",
"290 450 OFFCURVE",
"116 380 CURVE",
"168 242 LINE",
"345 313 OFFCURVE",
"462 358 OFFCURVE",
"519 379 CURVE SMOOTH",
"576 400 OFFCURVE",
"617 410 OFFCURVE",
"642 410 CURVE SMOOTH",
"689 410 OFFCURVE",
"714 387 OFFCURVE",
"714 348 CURVE SMOOTH",
"714 303 OFFCURVE",
"684 274 OFFCURVE",
"636 274 CURVE SMOOTH",
"621 274 OFFCURVE",
"599 276 OFFCURVE",
"572 280 CURVE",
"556 140 LINE",
"583 135 OFFCURVE",
"609 132 OFFCURVE",
"636 132 CURVE SMOOTH"
);
},
{
closed = 1;
nodes = (
"544 -20 LINE",
"489 197 OFFCURVE",
"427 413 OFFCURVE",
"356 628 CURVE",
"202 584 LINE",
"270 376 OFFCURVE",
"331 163 OFFCURVE",
"386 -56 CURVE"
);
},
{
closed = 1;
nodes = (
"672 328 LINE",
"647 421 OFFCURVE",
"617 529 OFFCURVE",
"580 652 CURVE",
"426 612 LINE",
"457 516 OFFCURVE",
"490 408 OFFCURVE",
"526 288 CURVE"
);
}
);
vertWidth = 1000;
width = 1000;
},
{
layerId = "14B87609-B57D-449B-8E42-0E3479D6265D";
paths = (
{
closed = 1;
nodes = (
"776 202 OFFCURVE",
"838 261 OFFCURVE",
"838 356 CURVE SMOOTH",
"838 451 OFFCURVE",
"779 510 OFFCURVE",
"684 510 CURVE SMOOTH",
"647 510 OFFCURVE",
"596 500 OFFCURVE",
"529 479 CURVE SMOOTH",
"462 458 OFFCURVE",
"337 412 OFFCURVE",
"152 341 CURVE",
"160 323 LINE",
"345 394 OFFCURVE",
"469 439 OFFCURVE",
"534 460 CURVE SMOOTH",
"599 480 OFFCURVE",
"649 490 OFFCURVE",
"684 490 CURVE SMOOTH",
"773 490 OFFCURVE",
"820 424 OFFCURVE",
"820 359 CURVE SMOOTH",
"820 290 OFFCURVE",
"774 222 OFFCURVE",
"676 222 CURVE SMOOTH",
"643 222 OFFCURVE",
"607 227 OFFCURVE",
"567 238 CURVE",
"561 218 LINE",
"603 207 OFFCURVE",
"641 202 OFFCURVE",
"676 202 CURVE SMOOTH"
);
},
{
closed = 1;
nodes = (
"494 -25 LINE",
"440 178 OFFCURVE",
"379 386 OFFCURVE",
"310 599 CURVE",
"290 593 LINE",
"355 390 OFFCURVE",
"417 182 OFFCURVE",
"474 -31 CURVE"
);
},
{
closed = 1;
nodes = (
"614 350 LINE",
"591 448 OFFCURVE",
"567 544 OFFCURVE",
"542 639 CURVE",
"522 633 LINE",
"549 530 OFFCURVE",
"573 434 OFFCURVE",
"594 346 CURVE"
);
}
);
vertWidth = 1000;
width = 1000;
}
);
note = uni3083;
unicode = 3083;
},
{
glyphname = "yu-hira";
lastChange = "2020-06-28 13:15:04 +0000";
layers = (
{
layerId = "53C12EC5-7AF6-4A76-BF07-F72C20CC49D7";
paths = (
{
closed = 1;
nodes = (
"827 120 OFFCURVE",
"955 226 OFFCURVE",
"955 430 CURVE SMOOTH",
"955 634 OFFCURVE",
"827 740 OFFCURVE",
"590 740 CURVE SMOOTH",
"455 740 OFFCURVE",
"321 674 OFFCURVE",
"242 570 CURVE",
"240 570 LINE",
"240 730 LINE",
"70 730 LINE",
"70 130 LINE",
"235 130 LINE",
"235 393 OFFCURVE",
"389 570 OFFCURVE",
"590 570 CURVE SMOOTH",
"710 570 OFFCURVE",
"765 525 OFFCURVE",
"765 430 CURVE SMOOTH",
"765 335 OFFCURVE",
"710 290 OFFCURVE",
"590 290 CURVE SMOOTH",
"517 290 OFFCURVE",
"449 318 OFFCURVE",
"385 375 CURVE",
"285 240 LINE",
"370 160 OFFCURVE",
"471 120 OFFCURVE",
"590 120 CURVE SMOOTH"
);
},
{
closed = 1;
nodes = (
"595 -7 OFFCURVE",
"660 86 OFFCURVE",
"660 310 CURVE SMOOTH",
"660 830 LINE",
"475 830 LINE",
"475 310 LINE SMOOTH",
"475 171 OFFCURVE",
"445 127 OFFCURVE",
"325 80 CURVE",
"410 -70 LINE"
);
}
);
vertWidth = 1000;
width = 1000;
},
{
layerId = "14B87609-B57D-449B-8E42-0E3479D6265D";
paths = (
{
closed = 1;
nodes = (
"789 160 OFFCURVE",
"910 255 OFFCURVE",
"910 420 CURVE SMOOTH",
"910 588 OFFCURVE",
"797 680 OFFCURVE",
"590 680 CURVE SMOOTH",
"366 680 OFFCURVE",
"191 536 OFFCURVE",
"132 300 CURVE",
"130 301 LINE",
"130 710 LINE",
"110 710 LINE",
"110 130 LINE",
"130 130 LINE",
"130 442 OFFCURVE",
"319 660 OFFCURVE",
"590 660 CURVE SMOOTH",
"783 660 OFFCURVE",
"890 575 OFFCURVE",
"890 420 CURVE SMOOTH",
"890 265 OFFCURVE",
"780 180 OFFCURVE",
"580 180 CURVE SMOOTH",
"463 180 OFFCURVE",
"354 240 OFFCURVE",
"299 335 CURVE",
"281 325 LINE",
"340 225 OFFCURVE",
"456 160 OFFCURVE",
"580 160 CURVE SMOOTH"
);
},
{
closed = 1;
nodes = (
"545 20 OFFCURVE",
"600 107 OFFCURVE",
"600 320 CURVE SMOOTH",
"600 820 LINE",
"580 820 LINE",
"580 320 LINE SMOOTH",
"580 115 OFFCURVE",
"530 35 OFFCURVE",
"367 -21 CURVE",
"373 -39 LINE"
);
}
);
vertWidth = 1000;
width = 1000;
}
);
note = uni3086;
unicode = 3086;
},
{
glyphname = "yusmall-hira";
lastChange = "2020-06-28 11:55:53 +0000";
layers = (
{
layerId = "53C12EC5-7AF6-4A76-BF07-F72C20CC49D7";
paths = (
{
closed = 1;
nodes = (
"298 100 LINE",
"298 299 OFFCURVE",
"421 442 OFFCURVE",
"572 442 CURVE SMOOTH",
"659 442 OFFCURVE",
"702 408 OFFCURVE",
"702 340 CURVE SMOOTH",
"702 272 OFFCURVE",
"659 238 OFFCURVE",
"572 238 CURVE SMOOTH",
"513 238 OFFCURVE",
"459 261 OFFCURVE",
"408 306 CURVE",
"328 188 LINE",
"454 70 OFFCURVE",
"681 64 OFFCURVE",
"787 155 CURVE SMOOTH",
"836 196 OFFCURVE",
"860 258 OFFCURVE",
"860 340 CURVE SMOOTH",
"860 504 OFFCURVE",
"761 588 OFFCURVE",
"572 588 CURVE SMOOTH",
"472 588 OFFCURVE",
"366 535 OFFCURVE",
"303 452 CURVE",
"302 452 LINE",
"302 580 LINE",
"156 580 LINE",
"156 100 LINE"
);
},
{
closed = 1;
nodes = (
"576 -11 OFFCURVE",
"628 65 OFFCURVE",
"628 244 CURVE SMOOTH",
"628 660 LINE",
"470 660 LINE",
"470 244 LINE SMOOTH",
"470 133 OFFCURVE",
"446 97 OFFCURVE",
"350 60 CURVE",
"428 -60 LINE"
);
}
);
vertWidth = 1000;
width = 1000;
},
{
layerId = "14B87609-B57D-449B-8E42-0E3479D6265D";
paths = (
{
closed = 1;
nodes = (
"206 100 LINE",
"206 348 OFFCURVE",
"357 522 OFFCURVE",
"572 522 CURVE SMOOTH",
"725 522 OFFCURVE",
"810 455 OFFCURVE",
"810 332 CURVE SMOOTH",
"810 209 OFFCURVE",
"723 142 OFFCURVE",
"564 142 CURVE SMOOTH",
"471 142 OFFCURVE",
"384 190 OFFCURVE",
"341 265 CURVE",
"323 255 LINE",
"370 174 OFFCURVE",
"464 122 OFFCURVE",
"564 122 CURVE SMOOTH",
"733 122 OFFCURVE",
"830 199 OFFCURVE",
"830 332 CURVE SMOOTH",
"830 467 OFFCURVE",
"737 542 OFFCURVE",
"572 542 CURVE SMOOTH",
"393 542 OFFCURVE",
"256 430 OFFCURVE",
"207 251 CURVE",
"206 251 LINE",
"206 564 LINE",
"186 564 LINE",
"186 100 LINE"
);
},
{
closed = 1;
nodes = (
"538 11 OFFCURVE",
"582 81 OFFCURVE",
"582 252 CURVE SMOOTH",
"582 652 LINE",
"562 652 LINE",
"562 252 LINE SMOOTH",
"562 89 OFFCURVE",
"522 26 OFFCURVE",
"393 -19 CURVE",
"399 -37 LINE"
);
}
);
vertWidth = 1000;
width = 1000;
}
);
note = uni3085;
unicode = 3085;
},
{
glyphname = "yo-hira";
lastChange = "2020-06-28 13:15:54 +0000";
layers = (
{
layerId = "53C12EC5-7AF6-4A76-BF07-F72C20CC49D7";
paths = (
{
closed = 1;
nodes = (
"529 -50 OFFCURVE",
"610 27 OFFCURVE",
"610 190 CURVE SMOOTH",
"610 520 LINE",
"890 520 LINE",
"890 680 LINE",
"610 680 LINE",
"610 820 LINE",
"420 820 LINE",
"420 190 LINE SMOOTH",
"420 127 OFFCURVE",
"405 110 OFFCURVE",
"360 110 CURVE SMOOTH",
"296 110 OFFCURVE",
"270 129 OFFCURVE",
"270 170 CURVE SMOOTH",
"270 210 OFFCURVE",
"300 230 OFFCURVE",
"360 230 CURVE SMOOTH",
"510 230 OFFCURVE",
"609 145 OFFCURVE",
"795 -5 CURVE",
"910 125 LINE",
"647 337 OFFCURVE",
"533 390 OFFCURVE",
"360 390 CURVE SMOOTH",
"273 390 OFFCURVE",
"207 370 OFFCURVE",
"160 331 CURVE SMOOTH",
"67 252 OFFCURVE",
"67 87 OFFCURVE",
"161 9 CURVE SMOOTH",
"208 -30 OFFCURVE",
"275 -50 OFFCURVE",
"360 -50 CURVE SMOOTH"
);
}
);
vertWidth = 1000;
width = 1000;
},
{
layerId = "14B87609-B57D-449B-8E42-0E3479D6265D";
paths = (
{
closed = 1;
nodes = (
"466 -20 OFFCURVE",
"520 47 OFFCURVE",
"520 190 CURVE SMOOTH",
"520 590 LINE",
"870 590 LINE",
"870 610 LINE",
"520 610 LINE",
"520 810 LINE",
"500 810 LINE",
"500 190 LINE SMOOTH",
"500 57 OFFCURVE",
"455 0 OFFCURVE",
"350 0 CURVE SMOOTH",
"217 0 OFFCURVE",
"150 50 OFFCURVE",
"150 150 CURVE SMOOTH",
"150 237 OFFCURVE",
"217 280 OFFCURVE",
"350 280 CURVE SMOOTH",
"475 280 OFFCURVE",
"647 201 OFFCURVE",
"864 42 CURVE",
"876 58 LINE",
"656 219 OFFCURVE",
"481 300 OFFCURVE",
"350 300 CURVE SMOOTH",
"203 300 OFFCURVE",
"130 250 OFFCURVE",
"130 150 CURVE SMOOTH",
"130 106 OFFCURVE",
"142 72 OFFCURVE",
"172 37 CURVE SMOOTH",
"202 1 OFFCURVE",
"263 -20 OFFCURVE",
"350 -20 CURVE SMOOTH"
);
}
);
vertWidth = 1000;
width = 1000;
}
);
note = uni3088;
unicode = 3088;
},
{
glyphname = "yosmall-hira";
lastChange = "2020-06-28 13:16:05 +0000";
layers = (
{
layerId = "53C12EC5-7AF6-4A76-BF07-F72C20CC49D7";
paths = (
{
closed = 1;
nodes = (
"532 -44 OFFCURVE",
"598 17 OFFCURVE",
"598 148 CURVE SMOOTH",
"598 402 LINE",
"812 402 LINE",
"812 540 LINE",
"598 540 LINE",
"598 652 LINE",
"436 652 LINE",
"436 148 LINE SMOOTH",
"436 99 OFFCURVE",
"424 84 OFFCURVE",
"388 84 CURVE SMOOTH",
"348 84 OFFCURVE",
"326 107 OFFCURVE",
"326 142 CURVE SMOOTH",
"326 174 OFFCURVE",
"347 190 OFFCURVE",
"388 190 CURVE SMOOTH",
"510 190 OFFCURVE",
"589 121 OFFCURVE",
"736 2 CURVE",
"828 116 LINE",
"619 285 OFFCURVE",
"527 328 OFFCURVE",
"388 328 CURVE SMOOTH",
"249 328 OFFCURVE",
"172 259 OFFCURVE",
"172 142 CURVE SMOOTH",
"172 23 OFFCURVE",
"251 -44 OFFCURVE",
"388 -44 CURVE SMOOTH"
);
}
);
vertWidth = 1000;
width = 1000;
},
{
layerId = "14B87609-B57D-449B-8E42-0E3479D6265D";
paths = (
{
closed = 1;
nodes = (
"475 -22 OFFCURVE",
"518 32 OFFCURVE",
"518 148 CURVE SMOOTH",
"518 466 LINE",
"796 466 LINE",
"796 486 LINE",
"518 486 LINE",
"518 644 LINE",
"498 644 LINE",
"498 148 LINE SMOOTH",
"498 43 OFFCURVE",
"463 -2 OFFCURVE",
"380 -2 CURVE SMOOTH",
"275 -2 OFFCURVE",
"222 37 OFFCURVE",
"222 116 CURVE SMOOTH",
"222 189 OFFCURVE",
"275 226 OFFCURVE",
"380 226 CURVE SMOOTH",
"484 226 OFFCURVE",
"621 160 OFFCURVE",
"790 28 CURVE",
"802 44 LINE",
"629 179 OFFCURVE",
"489 246 OFFCURVE",
"380 246 CURVE SMOOTH",
"254 246 OFFCURVE",
"202 191 OFFCURVE",
"202 116 CURVE SMOOTH",
"202 33 OFFCURVE",
"256 -22 OFFCURVE",
"380 -22 CURVE SMOOTH"
);
}
);
vertWidth = 1000;
width = 1000;
}
);
note = uni3087;
unicode = 3087;
},
{
glyphname = "ra-hira";
lastChange = "2020-06-28 11:55:53 +0000";
layers = (
{
layerId = "53C12EC5-7AF6-4A76-BF07-F72C20CC49D7";
paths = (
{
closed = 1;
nodes = (
"736 -40 OFFCURVE",
"895 71 OFFCURVE",
"895 250 CURVE SMOOTH",
"895 422 OFFCURVE",
"806 500 OFFCURVE",
"595 500 CURVE SMOOTH",
"514 500 OFFCURVE",
"426 472 OFFCURVE",
"331 415 CURVE",
"330 415 LINE",
"339 480 OFFCURVE",
"346 530 OFFCURVE",
"350 565 CURVE",
"165 580 LINE",
"150 482 OFFCURVE",
"134 379 OFFCURVE",
"115 270 CURVE",
"285 235 LINE",
"410 305 OFFCURVE",
"504 340 OFFCURVE",
"565 340 CURVE SMOOTH",
"642 340 OFFCURVE",
"680 310 OFFCURVE",
"680 250 CURVE SMOOTH",
"680 174 OFFCURVE",
"595 120 OFFCURVE",
"455 120 CURVE SMOOTH",
"383 120 OFFCURVE",
"303 125 OFFCURVE",
"215 135 CURVE",
"200 -25 LINE",
"285 -35 OFFCURVE",
"370 -40 OFFCURVE",
"455 -40 CURVE SMOOTH"
);
},
{
closed = 1;
nodes = (
"775 760 LINE",
"607 760 OFFCURVE",
"439 770 OFFCURVE",
"270 790 CURVE",
"250 630 LINE",
"421 610 OFFCURVE",
"596 600 OFFCURVE",
"775 600 CURVE"
);
}
);
vertWidth = 1000;
width = 1000;
},
{
layerId = "14B87609-B57D-449B-8E42-0E3479D6265D";
paths = (
{
closed = 1;
nodes = (
"707 -10 OFFCURVE",
"850 77 OFFCURVE",
"850 250 CURVE SMOOTH",
"850 385 OFFCURVE",
"753 460 OFFCURVE",
"580 460 CURVE SMOOTH",
"460 460 OFFCURVE",
"299 397 OFFCURVE",
"206 316 CURVE",
"204 317 LINE",
"221 408 OFFCURVE",
"236 506 OFFCURVE",
"250 609 CURVE",
"230 611 LINE",
"215 500 OFFCURVE",
"199 393 OFFCURVE",
"180 292 CURVE",
"197 283 LINE",
"278 368 OFFCURVE",
"455 440 OFFCURVE",
"580 440 CURVE SMOOTH",
"744 440 OFFCURVE",
"830 374 OFFCURVE",
"830 250 CURVE SMOOTH",
"830 90 OFFCURVE",
"693 10 OFFCURVE",
"420 10 CURVE SMOOTH",
"363 10 OFFCURVE",
"303 13 OFFCURVE",
"241 20 CURVE",
"239 0 LINE",
"302 -7 OFFCURVE",
"362 -10 OFFCURVE",
"420 -10 CURVE SMOOTH"
);
},
{
closed = 1;
nodes = (
"710 730 LINE",
"575 730 OFFCURVE",
"435 740 OFFCURVE",
"291 760 CURVE",
"289 740 LINE",
"434 720 OFFCURVE",
"574 710 OFFCURVE",
"710 710 CURVE"
);
}
);
vertWidth = 1000;
width = 1000;
}
);
note = uni3089;
unicode = 3089;
},
{
glyphname = "ri-hira";
lastChange = "2020-06-28 13:16:18 +0000";
layers = (
{
layerId = "53C12EC5-7AF6-4A76-BF07-F72C20CC49D7";
paths = (
{
closed = 1;
nodes = (
"697 -50 OFFCURVE",
"880 97 OFFCURVE",
"880 430 CURVE SMOOTH",
"880 645 OFFCURVE",
"767 770 OFFCURVE",
"590 770 CURVE SMOOTH",
"495 770 OFFCURVE",
"412 730 OFFCURVE",
"341 650 CURVE",
"340 650 LINE",
"340 790 LINE",
"155 790 LINE",
"155 280 LINE",
"335 280 LINE",
"335 456 OFFCURVE",
"443 590 OFFCURVE",
"570 590 CURVE SMOOTH",
"643 590 OFFCURVE",
"680 537 OFFCURVE",
"680 430 CURVE SMOOTH",
"680 177 OFFCURVE",
"549 120 OFFCURVE",
"260 120 CURVE",
"270 -50 LINE"
);
}
);
vertWidth = 1000;
width = 1000;
},
{
layerId = "14B87609-B57D-449B-8E42-0E3479D6265D";
paths = (
{
closed = 1;
nodes = (
"655 -10 OFFCURVE",
"820 133 OFFCURVE",
"820 440 CURVE SMOOTH",
"820 640 OFFCURVE",
"741 750 OFFCURVE",
"600 750 CURVE SMOOTH",
"457 750 OFFCURVE",
"298 597 OFFCURVE",
"242 384 CURVE",
"240 384 LINE",
"240 770 LINE",
"220 770 LINE",
"220 270 LINE",
"240 269 LINE",
"261 522 OFFCURVE",
"440 730 OFFCURVE",
"600 730 CURVE SMOOTH",
"731 730 OFFCURVE",
"800 629 OFFCURVE",
"800 440 CURVE SMOOTH",
"800 147 OFFCURVE",
"641 10 OFFCURVE",
"300 10 CURVE",
"300 -10 LINE"
);
}
);
vertWidth = 1000;
width = 1000;
}
);
note = uni308A;
unicode = 308A;
},
{
glyphname = "ru-hira";
lastChange = "2020-06-28 13:16:34 +0000";
layers = (
{
layerId = "53C12EC5-7AF6-4A76-BF07-F72C20CC49D7";
paths = (
{
closed = 1;
nodes = (
"751 -50 OFFCURVE",
"900 63 OFFCURVE",
"900 255 CURVE SMOOTH",
"900 394 OFFCURVE",
"789 490 OFFCURVE",
"620 490 CURVE SMOOTH",
"600 490 OFFCURVE",
"577 488 OFFCURVE",
"550 484 CURVE",
"550 485 LINE",
"820 620 LINE",
"820 780 LINE",
"150 780 LINE",
"150 625 LINE",
"480 625 LINE",
"480 624 LINE",
"85 400 LINE",
"150 270 LINE",
"302 337 OFFCURVE",
"386 355 OFFCURVE",
"530 355 CURVE SMOOTH",
"643 355 OFFCURVE",
"705 312 OFFCURVE",
"705 245 CURVE SMOOTH",
"705 149 OFFCURVE",
"629 95 OFFCURVE",
"490 95 CURVE SMOOTH",
"397 95 OFFCURVE",
"350 110 OFFCURVE",
"350 140 CURVE SMOOTH",
"350 167 OFFCURVE",
"373 180 OFFCURVE",
"420 180 CURVE SMOOTH",
"466 180 OFFCURVE",
"495 176 OFFCURVE",
"495 140 CURVE SMOOTH",
"495 123 OFFCURVE",
"488 98 OFFCURVE",
"475 65 CURVE",
"630 50 LINE",
"643 89 OFFCURVE",
"650 126 OFFCURVE",
"650 160 CURVE SMOOTH",
"650 261 OFFCURVE",
"582 310 OFFCURVE",
"430 310 CURVE SMOOTH",
"281 310 OFFCURVE",
"180 236 OFFCURVE",
"180 140 CURVE SMOOTH",
"180 13 OFFCURVE",
"283 -50 OFFCURVE",
"490 -50 CURVE SMOOTH"
);
}
);
vertWidth = 1000;
width = 1000;
},
{
layerId = "14B87609-B57D-449B-8E42-0E3479D6265D";
paths = (
{
closed = 1;
nodes = (
"739 -10 OFFCURVE",
"865 87 OFFCURVE",
"865 270 CURVE SMOOTH",
"865 403 OFFCURVE",
"759 480 OFFCURVE",
"575 480 CURVE SMOOTH",
"491 480 OFFCURVE",
"397 459 OFFCURVE",
"293 417 CURVE",
"292 419 LINE",
"770 732 LINE",
"765 750 LINE",
"195 750 LINE",
"195 730 LINE",
"732 730 LINE",
"732 728 LINE",
"120 328 LINE",
"130 312 LINE",
"274 405 OFFCURVE",
"442 460 OFFCURVE",
"575 460 CURVE SMOOTH",
"747 460 OFFCURVE",
"845 391 OFFCURVE",
"845 270 CURVE SMOOTH",
"845 99 OFFCURVE",
"725 10 OFFCURVE",
"500 10 CURVE SMOOTH",
"333 10 OFFCURVE",
"250 50 OFFCURVE",
"250 130 CURVE SMOOTH",
"250 183 OFFCURVE",
"314 230 OFFCURVE",
"430 230 CURVE SMOOTH",
"550 230 OFFCURVE",
"610 193 OFFCURVE",
"610 120 CURVE SMOOTH",
"610 91 OFFCURVE",
"597 52 OFFCURVE",
"571 5 CURVE",
"589 -5 LINE",
"616 44 OFFCURVE",
"630 86 OFFCURVE",
"630 120 CURVE SMOOTH",
"630 202 OFFCURVE",
"566 250 OFFCURVE",
"430 250 CURVE SMOOTH",
"301 250 OFFCURVE",
"230 195 OFFCURVE",
"230 130 CURVE SMOOTH",
"230 37 OFFCURVE",
"320 -10 OFFCURVE",
"500 -10 CURVE SMOOTH"
);
}
);
vertWidth = 1000;
width = 1000;
}
);
note = uni308B;
unicode = 308B;
},
{
glyphname = "re-hira";
lastChange = "2020-06-28 13:19:56 +0000";
layers = (
{
layerId = "53C12EC5-7AF6-4A76-BF07-F72C20CC49D7";
paths = (
{
closed = 1;
nodes = (
"827 -10 OFFCURVE",
"918 35 OFFCURVE",
"990 110 CURVE",
"900 240 LINE",
"854 200 OFFCURVE",
"824 180 OFFCURVE",
"810 180 CURVE SMOOTH",
"793 180 OFFCURVE",
"785 203 OFFCURVE",
"785 250 CURVE SMOOTH",
"785 285 OFFCURVE",
"790 324 OFFCURVE",
"800 365 CURVE SMOOTH",
"810 409 OFFCURVE",
"815 447 OFFCURVE",
"815 478 CURVE SMOOTH",
"815 664 OFFCURVE",
"769 720 OFFCURVE",
"650 720 CURVE SMOOTH",
"543 720 OFFCURVE",
"468 655 OFFCURVE",
"352 545 CURVE SMOOTH",
"255 452 OFFCURVE",
"159 358 OFFCURVE",
"20 220 CURVE",
"140 100 LINE",
"277 237 OFFCURVE",
"339 299 OFFCURVE",
"438 392 CURVE SMOOTH",
"524 472 OFFCURVE",
"580 527 OFFCURVE",
"600 527 CURVE SMOOTH",
"617 527 OFFCURVE",
"625 507 OFFCURVE",
"625 460 CURVE SMOOTH",
"625 427 OFFCURVE",
"620 389 OFFCURVE",
"610 345 CURVE SMOOTH",
"600 304 OFFCURVE",
"595 265 OFFCURVE",
"595 209 CURVE SMOOTH",
"595 53 OFFCURVE",
"644 -10 OFFCURVE",
"755 -10 CURVE SMOOTH"
);
},
{
closed = 1;
nodes = (
"430 -50 LINE",
"430 820 LINE",
"250 820 LINE",
"250 690 LINE",
"50 690 LINE",
"50 530 LINE",
"250 530 LINE",
"250 -50 LINE"
);
}
);
vertWidth = 1000;
width = 1000;
},
{
layerId = "14B87609-B57D-449B-8E42-0E3479D6265D";
paths = (
{
closed = 1;
nodes = (
"853 20 OFFCURVE",
"922 67 OFFCURVE",
"978 134 CURVE",
"962 146 LINE",
"906 79 OFFCURVE",
"843 40 OFFCURVE",
"810 40 CURVE SMOOTH",
"765 40 OFFCURVE",
"750 87 OFFCURVE",
"750 190 CURVE SMOOTH",
"750 231 OFFCURVE",
"753 284 OFFCURVE",
"760 349 CURVE SMOOTH",
"767 414 OFFCURVE",
"770 467 OFFCURVE",
"770 510 CURVE SMOOTH",
"770 604 OFFCURVE",
"760 680 OFFCURVE",
"690 680 CURVE SMOOTH",
"647 680 OFFCURVE",
"572 636 OFFCURVE",
"464 548 CURVE SMOOTH",
"356 459 OFFCURVE",
"222 332 OFFCURVE",
"63 167 CURVE",
"77 153 LINE",
"245 326 OFFCURVE",
"389 462 OFFCURVE",
"474 531 CURVE SMOOTH",
"567 606 OFFCURVE",
"647 660 OFFCURVE",
"690 660 CURVE SMOOTH",
"735 660 OFFCURVE",
"750 613 OFFCURVE",
"750 510 CURVE SMOOTH",
"750 469 OFFCURVE",
"747 416 OFFCURVE",
"740 351 CURVE SMOOTH",
"733 286 OFFCURVE",
"730 233 OFFCURVE",
"730 190 CURVE SMOOTH",
"730 96 OFFCURVE",
"741 20 OFFCURVE",
"810 20 CURVE SMOOTH"
);
},
{
closed = 1;
nodes = (
"340 -40 LINE",
"340 810 LINE",
"320 810 LINE",
"320 620 LINE",
"70 620 LINE",
"70 600 LINE",
"320 600 LINE",
"320 -40 LINE"
);
}
);
vertWidth = 1000;
width = 1000;
}
);
note = uni308C;
unicode = 308C;
},
{
glyphname = "ro-hira";
lastChange = "2020-06-28 13:20:16 +0000";
layers = (
{
layerId = "53C12EC5-7AF6-4A76-BF07-F72C20CC49D7";
paths = (
{
closed = 1;
nodes = (
"750 -35 OFFCURVE",
"890 74 OFFCURVE",
"890 265 CURVE SMOOTH",
"890 401 OFFCURVE",
"792 480 OFFCURVE",
"600 480 CURVE SMOOTH",
"580 480 OFFCURVE",
"557 478 OFFCURVE",
"530 474 CURVE",
"530 475 LINE",
"800 610 LINE",
"800 775 LINE",
"160 775 LINE",
"160 620 LINE",
"470 620 LINE",
"470 619 LINE",
"75 370 LINE",
"140 240 LINE",
"307 317 OFFCURVE",
"405 345 OFFCURVE",
"510 345 CURVE SMOOTH",
"633 345 OFFCURVE",
"680 314 OFFCURVE",
"680 250 CURVE SMOOTH",
"680 173 OFFCURVE",
"610 135 OFFCURVE",
"470 135 CURVE SMOOTH",
"395 135 OFFCURVE",
"318 138 OFFCURVE",
"240 145 CURVE",
"245 -25 LINE",
"332 -32 OFFCURVE",
"412 -35 OFFCURVE",
"485 -35 CURVE SMOOTH"
);
}
);
vertWidth = 1000;
width = 1000;
},
{
layerId = "14B87609-B57D-449B-8E42-0E3479D6265D";
paths = (
{
closed = 1;
nodes = (
"732 0 OFFCURVE",
"865 87 OFFCURVE",
"865 260 CURVE SMOOTH",
"865 410 OFFCURVE",
"749 470 OFFCURVE",
"575 470 CURVE SMOOTH",
"490 470 OFFCURVE",
"391 446 OFFCURVE",
"279 399 CURVE",
"278 401 LINE",
"761 722 LINE",
"755 740 LINE",
"205 740 LINE",
"205 720 LINE",
"722 720 LINE",
"722 718 LINE",
"119 318 LINE",
"130 302 LINE",
"277 394 OFFCURVE",
"447 450 OFFCURVE",
"575 450 CURVE SMOOTH",
"755 450 OFFCURVE",
"845 387 OFFCURVE",
"845 260 CURVE SMOOTH",
"845 100 OFFCURVE",
"718 20 OFFCURVE",
"465 20 CURVE SMOOTH",
"414 20 OFFCURVE",
"358 23 OFFCURVE",
"296 30 CURVE",
"294 10 LINE",
"357 3 OFFCURVE",
"414 0 OFFCURVE",
"465 0 CURVE SMOOTH"
);
}
);
vertWidth = 1000;
width = 1000;
}
);
note = uni308D;
unicode = 308D;
},
{
glyphname = "wa-hira";
lastChange = "2020-06-28 13:20:43 +0000";
layers = (
{
layerId = "53C12EC5-7AF6-4A76-BF07-F72C20CC49D7";
paths = (
{
closed = 1;
nodes = (
"819 -10 OFFCURVE",
"930 115 OFFCURVE",
"930 350 CURVE SMOOTH",
"930 623 OFFCURVE",
"850 720 OFFCURVE",
"650 720 CURVE SMOOTH",
"549 720 OFFCURVE",
"459 679 OFFCURVE",
"307 540 CURVE SMOOTH",
"230 470 OFFCURVE",
"136 372 OFFCURVE",
"25 245 CURVE",
"150 130 LINE",
"295 291 OFFCURVE",
"403 401 OFFCURVE",
"474 459 CURVE SMOOTH",
"544 516 OFFCURVE",
"599 545 OFFCURVE",
"640 545 CURVE SMOOTH",
"741 545 OFFCURVE",
"745 486 OFFCURVE",
"745 350 CURVE SMOOTH",
"745 218 OFFCURVE",
"708 165 OFFCURVE",
"640 165 CURVE SMOOTH",
"609 165 OFFCURVE",
"569 175 OFFCURVE",
"520 195 CURVE",
"465 35 LINE",
"520 5 OFFCURVE",
"579 -10 OFFCURVE",
"640 -10 CURVE SMOOTH"
);
},
{
closed = 1;
nodes = (
"410 -50 LINE",
"410 820 LINE",
"240 820 LINE",
"240 690 LINE",
"60 690 LINE",
"60 540 LINE",
"240 540 LINE",
"240 -50 LINE"
);
}
);
vertWidth = 1000;
width = 1000;
},
{
layerId = "14B87609-B57D-449B-8E42-0E3479D6265D";
paths = (
{
closed = 1;
nodes = (
"804 20 OFFCURVE",
"910 145 OFFCURVE",
"910 340 CURVE SMOOTH",
"910 559 OFFCURVE",
"828 680 OFFCURVE",
"680 680 CURVE SMOOTH",
"584 680 OFFCURVE",
"504 645 OFFCURVE",
"353 490 CURVE SMOOTH",
"277 413 OFFCURVE",
"187 305 OFFCURVE",
"82 166 CURVE",
"98 154 LINE",
"254 359 OFFCURVE",
"372 494 OFFCURVE",
"463 566 CURVE SMOOTH",
"554 637 OFFCURVE",
"613 660 OFFCURVE",
"680 660 CURVE SMOOTH",
"817 660 OFFCURVE",
"890 549 OFFCURVE",
"890 340 CURVE SMOOTH",
"890 157 OFFCURVE",
"792 40 OFFCURVE",
"640 40 CURVE SMOOTH",
"591 40 OFFCURVE",
"546 50 OFFCURVE",
"504 69 CURVE",
"496 51 LINE",
"541 30 OFFCURVE",
"589 20 OFFCURVE",
"640 20 CURVE SMOOTH"
);
},
{
closed = 1;
nodes = (
"340 -30 LINE",
"340 800 LINE",
"320 800 LINE",
"320 620 LINE",
"90 620 LINE",
"90 600 LINE",
"320 600 LINE",
"320 -30 LINE"
);
}
);
vertWidth = 1000;
width = 1000;
}
);
note = uni308F;
unicode = 308F;
},
{
glyphname = "wasmall-hira";
lastChange = "2020-06-28 13:22:17 +0000";
layers = (
{
layerId = "53C12EC5-7AF6-4A76-BF07-F72C20CC49D7";
paths = (
{
closed = 1;
nodes = (
"755 -12 OFFCURVE",
"844 88 OFFCURVE",
"844 276 CURVE SMOOTH",
"844 495 OFFCURVE",
"780 572 OFFCURVE",
"620 572 CURVE SMOOTH",
"559 572 OFFCURVE",
"493 546 OFFCURVE",
"422 494 CURVE SMOOTH",
"351 441 OFFCURVE",
"250 341 OFFCURVE",
"120 192 CURVE",
"220 90 LINE",
"335 218 OFFCURVE",
"421 305 OFFCURVE",
"477 352 CURVE SMOOTH",
"532 399 OFFCURVE",
"574 422 OFFCURVE",
"602 422 CURVE SMOOTH",
"670 422 OFFCURVE",
"686 400 OFFCURVE",
"686 276 CURVE SMOOTH",
"686 184 OFFCURVE",
"658 138 OFFCURVE",
"602 138 CURVE SMOOTH",
"577 138 OFFCURVE",
"545 146 OFFCURVE",
"506 162 CURVE",
"472 24 LINE",
"516 0 OFFCURVE",
"563 -12 OFFCURVE",
"612 -12 CURVE SMOOTH"
);
},
{
closed = 1;
nodes = (
"438 -44 LINE",
"438 652 LINE",
"292 652 LINE",
"292 548 LINE",
"148 548 LINE",
"148 418 LINE",
"292 418 LINE",
"292 -44 LINE"
);
}
);
vertWidth = 1000;
width = 1000;
},
{
layerId = "14B87609-B57D-449B-8E42-0E3479D6265D";
paths = (
{
closed = 1;
nodes = (
"744 10 OFFCURVE",
"830 111 OFFCURVE",
"830 268 CURVE SMOOTH",
"830 423 OFFCURVE",
"778 542 OFFCURVE",
"644 542 CURVE SMOOTH",
"556 542 OFFCURVE",
"470 483 OFFCURVE",
"389 401 CURVE SMOOTH",
"331 343 OFFCURVE",
"234 224 OFFCURVE",
"164 130 CURVE",
"180 118 LINE",
"272 239 OFFCURVE",
"365 353 OFFCURVE",
"472 448 CURVE SMOOTH",
"547 509 OFFCURVE",
"594 522 OFFCURVE",
"644 522 CURVE SMOOTH",
"753 522 OFFCURVE",
"810 435 OFFCURVE",
"810 268 CURVE SMOOTH",
"810 123 OFFCURVE",
"732 30 OFFCURVE",
"612 30 CURVE SMOOTH",
"573 30 OFFCURVE",
"537 38 OFFCURVE",
"504 53 CURVE",
"496 35 LINE",
"533 18 OFFCURVE",
"571 10 OFFCURVE",
"612 10 CURVE SMOOTH"
);
},
{
closed = 1;
nodes = (
"374 -28 LINE",
"374 636 LINE",
"354 636 LINE",
"354 494 LINE",
"172 494 LINE",
"172 474 LINE",
"354 474 LINE",
"354 -28 LINE"
);
}
);
vertWidth = 1000;
width = 1000;
}
);
note = uni308E;
unicode = 308E;
},
{
glyphname = "wi-hira";
lastChange = "2020-06-28 13:23:23 +0000";
layers = (
{
layerId = "53C12EC5-7AF6-4A76-BF07-F72C20CC49D7";
paths = (
{
closed = 1;
nodes = (
"839 -60 OFFCURVE",
"940 65 OFFCURVE",
"940 270 CURVE SMOOTH",
"940 474 OFFCURVE",
"781 610 OFFCURVE",
"530 610 CURVE SMOOTH",
"246 610 OFFCURVE",
"60 443 OFFCURVE",
"60 210 CURVE SMOOTH",
"60 58 OFFCURVE",
"147 -40 OFFCURVE",
"270 -40 CURVE SMOOTH",
"330 -40 OFFCURVE",
"384 -1 OFFCURVE",
"448 100 CURVE SMOOTH",
"511 200 OFFCURVE",
"582 387 OFFCURVE",
"655 655 CURVE",
"470 665 LINE",
"429 473 OFFCURVE",
"361 288 OFFCURVE",
"313 204 CURVE SMOOTH",
"289 161 OFFCURVE",
"271 140 OFFCURVE",
"260 140 CURVE SMOOTH",
"240 140 OFFCURVE",
"230 175 OFFCURVE",
"230 210 CURVE SMOOTH",
"230 353 OFFCURVE",
"346 450 OFFCURVE",
"530 450 CURVE SMOOTH",
"683 450 OFFCURVE",
"770 381 OFFCURVE",
"770 270 CURVE SMOOTH",
"770 183 OFFCURVE",
"762 85 OFFCURVE",
"700 85 CURVE SMOOTH",
"668 85 OFFCURVE",
"650 102 OFFCURVE",
"650 130 CURVE SMOOTH",
"650 154 OFFCURVE",
"669 170 OFFCURVE",
"700 170 CURVE SMOOTH",
"728 170 OFFCURVE",
"755 148 OFFCURVE",
"780 105 CURVE",
"880 160 LINE",
"820 263 OFFCURVE",
"762 305 OFFCURVE",
"690 305 CURVE SMOOTH",
"585 305 OFFCURVE",
"505 228 OFFCURVE",
"505 125 CURVE SMOOTH",
"505 13 OFFCURVE",
"585 -60 OFFCURVE",
"700 -60 CURVE SMOOTH"
);
},
{
closed = 1;
nodes = (
"655 655 LINE",
"655 800 LINE",
"170 800 LINE",
"170 655 LINE"
);
}
);
vertWidth = 1000;
width = 1000;
},
{
layerId = "14B87609-B57D-449B-8E42-0E3479D6265D";
paths = (
{
closed = 1;
nodes = (
"812 -10 OFFCURVE",
"910 95 OFFCURVE",
"910 280 CURVE SMOOTH",
"910 465 OFFCURVE",
"753 600 OFFCURVE",
"540 600 CURVE SMOOTH",
"283 600 OFFCURVE",
"90 441 OFFCURVE",
"90 230 CURVE SMOOTH",
"90 113 OFFCURVE",
"163 30 OFFCURVE",
"240 30 CURVE SMOOTH",
"273 30 OFFCURVE",
"307 44 OFFCURVE",
"351 138 CURVE SMOOTH",
"473 402 OFFCURVE",
"510 552 OFFCURVE",
"560 750 CURVE",
"541 755 LINE",
"493 564 OFFCURVE",
"452 410 OFFCURVE",
"337 152 CURVE SMOOTH",
"296 61 OFFCURVE",
"268 50 OFFCURVE",
"240 50 CURVE SMOOTH",
"173 50 OFFCURVE",
"110 125 OFFCURVE",
"110 230 CURVE SMOOTH",
"110 430 OFFCURVE",
"295 580 OFFCURVE",
"540 580 CURVE SMOOTH",
"743 580 OFFCURVE",
"890 453 OFFCURVE",
"890 280 CURVE SMOOTH",
"890 121 OFFCURVE",
"812 10 OFFCURVE",
"700 10 CURVE SMOOTH",
"623 10 OFFCURVE",
"570 55 OFFCURVE",
"570 120 CURVE SMOOTH",
"570 181 OFFCURVE",
"620 220 OFFCURVE",
"700 220 CURVE SMOOTH",
"760 220 OFFCURVE",
"825 186 OFFCURVE",
"872 133 CURVE",
"888 147 LINE",
"839 204 OFFCURVE",
"767 240 OFFCURVE",
"700 240 CURVE SMOOTH",
"609 240 OFFCURVE",
"550 193 OFFCURVE",
"550 120 CURVE SMOOTH",
"550 45 OFFCURVE",
"613 -10 OFFCURVE",
"700 -10 CURVE SMOOTH"
);
},
{
closed = 1;
nodes = (
"560 750 LINE",
"560 770 LINE",
"200 770 LINE",
"200 750 LINE"
);
}
);
vertWidth = 1000;
width = 1000;
}
);
note = uni3090;
unicode = 3090;
},
{
glyphname = "we-hira";
lastChange = "2020-06-28 13:25:27 +0000";
layers = (
{
layerId = "53C12EC5-7AF6-4A76-BF07-F72C20CC49D7";
paths = (
{
closed = 1;
nodes = (
"240 13 OFFCURVE",
"299 50 OFFCURVE",
"340 50 CURVE SMOOTH",
"377 50 OFFCURVE",
"401 39 OFFCURVE",
"438 4 CURVE SMOOTH",
"481 -37 OFFCURVE",
"511 -50 OFFCURVE",
"560 -50 CURVE SMOOTH",
"619 -50 OFFCURVE",
"672 -23 OFFCURVE",
"720 30 CURVE",
"640 150 LINE",
"600 113 OFFCURVE",
"585 105 OFFCURVE",
"560 105 CURVE SMOOTH",
"544 105 OFFCURVE",
"525 115 OFFCURVE",
"502 134 CURVE SMOOTH",
"469 161 OFFCURVE",
"439 175 OFFCURVE",
"410 175 CURVE SMOOTH",
"391 175 OFFCURVE",
"371 172 OFFCURVE",
"350 165 CURVE",
"349 166 LINE",
"371 188 OFFCURVE",
"408 211 OFFCURVE",
"460 235 CURVE SMOOTH",
"572 287 OFFCURVE",
"605 320 OFFCURVE",
"605 375 CURVE SMOOTH",
"605 448 OFFCURVE",
"523 485 OFFCURVE",
"360 485 CURVE SMOOTH",
"216 485 OFFCURVE",
"120 429 OFFCURVE",
"120 365 CURVE SMOOTH",
"120 250 OFFCURVE",
"295 215 OFFCURVE",
"460 215 CURVE SMOOTH",
"760 215 OFFCURVE",
"910 293 OFFCURVE",
"910 450 CURVE SMOOTH",
"910 553 OFFCURVE",
"829 620 OFFCURVE",
"700 620 CURVE SMOOTH",
"673 620 OFFCURVE",
"646 618 OFFCURVE",
"620 615 CURVE",
"620 616 LINE",
"840 670 LINE",
"840 800 LINE",
"170 800 LINE",
"170 665 LINE",
"425 665 LINE",
"425 663 LINE",
"80 580 LINE",
"110 465 LINE",
"295 510 OFFCURVE",
"363 520 OFFCURVE",
"510 520 CURVE SMOOTH",
"657 520 OFFCURVE",
"730 493 OFFCURVE",
"730 440 CURVE SMOOTH",
"730 362 OFFCURVE",
"583 335 OFFCURVE",
"460 335 CURVE SMOOTH",
"386 335 OFFCURVE",
"280 334 OFFCURVE",
"280 363 CURVE SMOOTH",
"280 381 OFFCURVE",
"307 390 OFFCURVE",
"360 390 CURVE SMOOTH",
"420 390 OFFCURVE",
"450 380 OFFCURVE",
"450 360 CURVE SMOOTH",
"450 351 OFFCURVE",
"435 340 OFFCURVE",
"404 326 CURVE SMOOTH",
"273 267 OFFCURVE",
"155 168 OFFCURVE",
"50 30 CURVE",
"195 -50 LINE"
);
},
{
closed = 1;
nodes = (
"950 -10 LINE",
"911 81 OFFCURVE",
"871 161 OFFCURVE",
"830 230 CURVE",
"680 180 LINE",
"719 111 OFFCURVE",
"758 34 OFFCURVE",
"795 -50 CURVE"
);
}
);
vertWidth = 1000;
width = 1000;
},
{
layerId = "14B87609-B57D-449B-8E42-0E3479D6265D";
paths = (
{
closed = 1;
nodes = (
"184 102 OFFCURVE",
"301 170 OFFCURVE",
"370 170 CURVE SMOOTH",
"405 170 OFFCURVE",
"417 147 OFFCURVE",
"434 88 CURVE SMOOTH",
"449 38 OFFCURVE",
"466 -10 OFFCURVE",
"520 -10 CURVE SMOOTH",
"584 -10 OFFCURVE",
"650 40 OFFCURVE",
"699 125 CURVE",
"681 135 LINE",
"636 56 OFFCURVE",
"576 10 OFFCURVE",
"520 10 CURVE SMOOTH",
"485 10 OFFCURVE",
"473 33 OFFCURVE",
"454 94 CURVE SMOOTH",
"439 145 OFFCURVE",
"423 190 OFFCURVE",
"370 190 CURVE SMOOTH",
"329 190 OFFCURVE",
"278 170 OFFCURVE",
"217 131 CURVE",
"216 133 LINE",
"288 204 OFFCURVE",
"365 267 OFFCURVE",
"448 320 CURVE SMOOTH",
"496 351 OFFCURVE",
"510 362 OFFCURVE",
"510 390 CURVE SMOOTH",
"510 437 OFFCURVE",
"460 460 OFFCURVE",
"360 460 CURVE SMOOTH",
"288 460 OFFCURVE",
"200 442 OFFCURVE",
"200 390 CURVE SMOOTH",
"200 319 OFFCURVE",
"341 300 OFFCURVE",
"460 300 CURVE SMOOTH",
"647 300 OFFCURVE",
"860 337 OFFCURVE",
"860 470 CURVE SMOOTH",
"860 571 OFFCURVE",
"722 590 OFFCURVE",
"570 590 CURVE SMOOTH",
"492 590 OFFCURVE",
"416 582 OFFCURVE",
"341 567 CURVE",
"340 569 LINE",
"803 741 LINE",
"803 760 LINE",
"220 760 LINE",
"220 740 LINE",
"745 740 LINE",
"745 738 LINE",
"127 509 LINE",
"133 490 LINE",
"328 554 OFFCURVE",
"435 570 OFFCURVE",
"570 570 CURVE SMOOTH",
"707 570 OFFCURVE",
"840 557 OFFCURVE",
"840 470 CURVE SMOOTH",
"840 354 OFFCURVE",
"635 320 OFFCURVE",
"460 320 CURVE SMOOTH",
"360 320 OFFCURVE",
"220 335 OFFCURVE",
"220 390 CURVE SMOOTH",
"220 423 OFFCURVE",
"300 440 OFFCURVE",
"360 440 CURVE SMOOTH",
"447 440 OFFCURVE",
"490 423 OFFCURVE",
"490 390 CURVE SMOOTH",
"490 369 OFFCURVE",
"472 359 OFFCURVE",
"437 336 CURVE SMOOTH",
"304 251 OFFCURVE",
"192 144 OFFCURVE",
"72 7 CURVE",
"88 -7 LINE"
);
},
{
closed = 1;
nodes = (
"928 6 LINE",
"881 73 OFFCURVE",
"773 181 OFFCURVE",
"706 228 CURVE",
"694 212 LINE",
"759 167 OFFCURVE",
"867 59 OFFCURVE",
"912 -6 CURVE"
);
}
);
vertWidth = 1000;
width = 1000;
}
);
note = uni3091;
unicode = 3091;
},
{
glyphname = "wo-hira";
lastChange = "2020-06-28 13:29:44 +0000";
layers = (
{
layerId = "53C12EC5-7AF6-4A76-BF07-F72C20CC49D7";
paths = (
{
closed = 1;
nodes = (
"710 180 LINE",
"710 456 OFFCURVE",
"632 560 OFFCURVE",
"460 560 CURVE SMOOTH",
"438 560 OFFCURVE",
"415 556 OFFCURVE",
"391 549 CURVE",
"390 550 LINE",
"428 622 OFFCURVE",
"465 709 OFFCURVE",
"500 810 CURVE",
"310 840 LINE",
"241 627 OFFCURVE",
"181 507 OFFCURVE",
"50 320 CURVE",
"200 240 LINE",
"277 346 OFFCURVE",
"328 420 OFFCURVE",
"410 420 CURVE SMOOTH",
"511 420 OFFCURVE",
"520 325 OFFCURVE",
"520 180 CURVE"
);
},
{
closed = 1;
nodes = (
"679 -40 OFFCURVE",
"769 -33 OFFCURVE",
"860 -20 CURVE",
"845 140 LINE",
"733 123 OFFCURVE",
"648 115 OFFCURVE",
"590 115 CURVE SMOOTH",
"504 115 OFFCURVE",
"420 118 OFFCURVE",
"420 170 CURVE SMOOTH",
"420 242 OFFCURVE",
"711 304 OFFCURVE",
"875 320 CURVE",
"860 475 LINE",
"570 446 OFFCURVE",
"230 355 OFFCURVE",
"230 150 CURVE SMOOTH",
"230 22 OFFCURVE",
"334 -40 OFFCURVE",
"590 -40 CURVE SMOOTH"
);
},
{
closed = 1;
nodes = (
"870 590 LINE",
"870 740 LINE",
"70 740 LINE",
"70 590 LINE"
);
}
);
vertWidth = 1000;
width = 1000;
},
{
layerId = "14B87609-B57D-449B-8E42-0E3479D6265D";
paths = (
{
closed = 1;
nodes = (
"600 150 LINE",
"600 356 OFFCURVE",
"588 540 OFFCURVE",
"450 540 CURVE SMOOTH",
"379 540 OFFCURVE",
"303 499 OFFCURVE",
"221 416 CURVE",
"219 417 LINE",
"295 545 OFFCURVE",
"358 678 OFFCURVE",
"409 817 CURVE",
"391 823 LINE",
"321 631 OFFCURVE",
"228 452 OFFCURVE",
"112 286 CURVE",
"128 274 LINE",
"243 438 OFFCURVE",
"351 520 OFFCURVE",
"450 520 CURVE SMOOTH",
"570 520 OFFCURVE",
"580 345 OFFCURVE",
"580 150 CURVE"
);
},
{
closed = 1;
nodes = (
"665 -10 OFFCURVE",
"746 -3 OFFCURVE",
"822 10 CURVE",
"818 30 LINE",
"743 17 OFFCURVE",
"663 10 OFFCURVE",
"580 10 CURVE SMOOTH",
"406 10 OFFCURVE",
"260 31 OFFCURVE",
"260 160 CURVE SMOOTH",
"260 287 OFFCURVE",
"450 377 OFFCURVE",
"831 430 CURVE",
"829 450 LINE",
"552 411 OFFCURVE",
"240 339 OFFCURVE",
"240 160 CURVE SMOOTH",
"240 41 OFFCURVE",
"343 -10 OFFCURVE",
"580 -10 CURVE SMOOTH"
);
},
{
closed = 1;
nodes = (
"810 670 LINE",
"810 690 LINE",
"110 690 LINE",
"110 670 LINE"
);
}
);
vertWidth = 1000;
width = 1000;
}
);
note = uni3092;
unicode = 3092;
},
{
glyphname = "n-hira";
lastChange = "2020-06-28 13:30:24 +0000";
layers = (
{
layerId = "53C12EC5-7AF6-4A76-BF07-F72C20CC49D7";
paths = (
{
closed = 1;
nodes = (
"285 80 OFFCURVE",
"328 169 OFFCURVE",
"360 218 CURVE SMOOTH",
"392 266 OFFCURVE",
"420 290 OFFCURVE",
"445 290 CURVE SMOOTH",
"471 290 OFFCURVE",
"478 246 OFFCURVE",
"484 201 CURVE SMOOTH",
"508 33 OFFCURVE",
"570 -30 OFFCURVE",
"695 -30 CURVE SMOOTH",
"776 -30 OFFCURVE",
"827 0 OFFCURVE",
"878 97 CURVE SMOOTH",
"903 145 OFFCURVE",
"927 213 OFFCURVE",
"950 300 CURVE",
"785 345 LINE",
"753 222 OFFCURVE",
"725 160 OFFCURVE",
"700 160 CURVE SMOOTH",
"672 160 OFFCURVE",
"666 212 OFFCURVE",
"661 262 CURVE SMOOTH",
"645 425 OFFCURVE",
"602 480 OFFCURVE",
"510 480 CURVE SMOOTH",
"490 480 OFFCURVE",
"464 473 OFFCURVE",
"431 459 CURVE",
"430 460 LINE",
"467 557 OFFCURVE",
"509 663 OFFCURVE",
"555 780 CURVE",
"380 830 LINE",
"290 606 OFFCURVE",
"183 333 OFFCURVE",
"60 10 CURVE",
"230 -50 LINE"
);
}
);
vertWidth = 1000;
width = 1000;
},
{
layerId = "14B87609-B57D-449B-8E42-0E3479D6265D";
paths = (
{
closed = 1;
nodes = (
"166 135 OFFCURVE",
"221 243 OFFCURVE",
"274 310 CURVE SMOOTH",
"326 377 OFFCURVE",
"381 410 OFFCURVE",
"440 410 CURVE SMOOTH",
"504 410 OFFCURVE",
"526 327 OFFCURVE",
"549 214 CURVE SMOOTH",
"571 107 OFFCURVE",
"597 -10 OFFCURVE",
"690 -10 CURVE SMOOTH",
"727 -10 OFFCURVE",
"763 6 OFFCURVE",
"804 48 CURVE SMOOTH",
"845 90 OFFCURVE",
"888 176 OFFCURVE",
"920 297 CURVE",
"900 303 LINE",
"849 114 OFFCURVE",
"775 10 OFFCURVE",
"690 10 CURVE SMOOTH",
"614 10 OFFCURVE",
"596 105 OFFCURVE",
"569 218 CURVE SMOOTH",
"545 330 OFFCURVE",
"523 430 OFFCURVE",
"440 430 CURVE SMOOTH",
"360 430 OFFCURVE",
"293 382 OFFCURVE",
"222 269 CURVE",
"220 270 LINE",
"275 407 OFFCURVE",
"344 576 OFFCURVE",
"429 776 CURVE",
"411 784 LINE",
"288 493 OFFCURVE",
"181 229 OFFCURVE",
"91 -6 CURVE",
"109 -14 LINE"
);
}
);
vertWidth = 1000;
width = 1000;
}
);
note = uni3093;
unicode = 3093;
},
{
glyphname = "vu-hira";
lastChange = "2020-06-28 13:30:47 +0000";
layers = (
{
layerId = "53C12EC5-7AF6-4A76-BF07-F72C20CC49D7";
paths = (
{
closed = 1;
nodes = (
"687 -13 OFFCURVE",
"880 107 OFFCURVE",
"880 320 CURVE SMOOTH",
"880 464 OFFCURVE",
"768 550 OFFCURVE",
"560 550 CURVE SMOOTH",
"441 550 OFFCURVE",
"242 520 OFFCURVE",
"90 480 CURVE",
"130 315 LINE",
"319 358 OFFCURVE",
"459 380 OFFCURVE",
"550 380 CURVE SMOOTH",
"622 380 OFFCURVE",
"690 370 OFFCURVE",
"690 310 CURVE SMOOTH",
"690 188 OFFCURVE",
"470 146 OFFCURVE",
"275 125 CURVE",
"300 -40 LINE"
);
},
{
closed = 1;
nodes = (
"670 780 LINE",
"525 780 OFFCURVE",
"381 790 OFFCURVE",
"240 810 CURVE",
"220 645 LINE",
"395 622 OFFCURVE",
"545 610 OFFCURVE",
"670 610 CURVE"
);
},
{
closed = 1;
nodes = (
"830 669 LINE",
"804 720 OFFCURVE",
"776 774 OFFCURVE",
"745 831 CURVE",
"642 779 LINE",
"673 726 OFFCURVE",
"701 673 OFFCURVE",
"727 620 CURVE"
);
},
{
closed = 1;
nodes = (
"990 705 LINE",
"956 772 OFFCURVE",
"927 827 OFFCURVE",
"903 870 CURVE",
"798 817 LINE",
"826 767 OFFCURVE",
"855 713 OFFCURVE",
"885 655 CURVE"
);
}
);
vertWidth = 1000;
width = 1000;
},
{
layerId = "14B87609-B57D-449B-8E42-0E3479D6265D";
paths = (
{
closed = 1;
nodes = (
"636 18 OFFCURVE",
"840 159 OFFCURVE",
"840 350 CURVE SMOOTH",
"840 488 OFFCURVE",
"723 540 OFFCURVE",
"560 540 CURVE SMOOTH",
"443 540 OFFCURVE",
"299 520 OFFCURVE",
"128 480 CURVE",
"132 460 LINE",
"307 500 OFFCURVE",
"450 520 OFFCURVE",
"560 520 CURVE SMOOTH",
"733 520 OFFCURVE",
"820 463 OFFCURVE",
"820 350 CURVE SMOOTH",
"820 173 OFFCURVE",
"619 35 OFFCURVE",
"319 10 CURVE",
"321 -10 LINE"
);
},
{
closed = 1;
nodes = (
"680 740 LINE",
"555 740 OFFCURVE",
"415 753 OFFCURVE",
"262 780 CURVE",
"258 760 LINE",
"407 733 OFFCURVE",
"547 720 OFFCURVE",
"680 720 CURVE"
);
},
{
closed = 1;
nodes = (
"831 657 LINE",
"806 703 OFFCURVE",
"773 759 OFFCURVE",
"730 824 CURVE",
"714 812 LINE",
"747 763 OFFCURVE",
"780 708 OFFCURVE",
"813 647 CURVE"
);
},
{
closed = 1;
nodes = (
"959 695 LINE",
"934 742 OFFCURVE",
"899 799 OFFCURVE",
"854 866 CURVE",
"838 854 LINE",
"872 803 OFFCURVE",
"906 747 OFFCURVE",
"941 685 CURVE"
);
}
);
vertWidth = 1000;
width = 1000;
}
);
note = uni3094;
unicode = 3094;
},
{
glyphname = "digraphyori-hira";
lastChange = "2020-06-28 13:31:08 +0000";
layers = (
{
layerId = "53C12EC5-7AF6-4A76-BF07-F72C20CC49D7";
paths = (
{
closed = 1;
nodes = (
"766 -80 OFFCURVE",
"890 24 OFFCURVE",
"890 200 CURVE SMOOTH",
"890 373 OFFCURVE",
"773 480 OFFCURVE",
"565 480 CURVE SMOOTH",
"426 480 OFFCURVE",
"294 405 OFFCURVE",
"215 280 CURVE",
"220 -30 LINE",
"296 217 OFFCURVE",
"394 310 OFFCURVE",
"545 310 CURVE SMOOTH",
"645 310 OFFCURVE",
"700 269 OFFCURVE",
"700 205 CURVE SMOOTH",
"700 134 OFFCURVE",
"648 90 OFFCURVE",
"555 90 CURVE SMOOTH",
"484 90 OFFCURVE",
"431 109 OFFCURVE",
"355 165 CURVE",
"310 -5 LINE",
"383 -55 OFFCURVE",
"465 -80 OFFCURVE",
"555 -80 CURVE SMOOTH"
);
},
{
closed = 1;
nodes = (
"306 257 OFFCURVE",
"388 544 OFFCURVE",
"465 830 CURVE",
"280 860 LINE",
"213 586 OFFCURVE",
"137 303 OFFCURVE",
"50 10 CURVE",
"220 -30 LINE"
);
},
{
closed = 1;
nodes = (
"398 589 OFFCURVE",
"585 595 OFFCURVE",
"835 595 CURVE",
"835 770 LINE",
"556 770 OFFCURVE",
"406 741 OFFCURVE",
"290 670 CURVE",
"265 485 LINE"
);
}
);
vertWidth = 1000;
width = 1000;
},
{
layerId = "14B87609-B57D-449B-8E42-0E3479D6265D";
paths = (
{
closed = 1;
nodes = (
"729 -50 OFFCURVE",
"835 41 OFFCURVE",
"835 190 CURVE SMOOTH",
"835 333 OFFCURVE",
"729 420 OFFCURVE",
"560 420 CURVE SMOOTH",
"342 420 OFFCURVE",
"186 284 OFFCURVE",
"91 13 CURVE",
"109 7 LINE",
"200 269 OFFCURVE",
"351 400 OFFCURVE",
"560 400 CURVE SMOOTH",
"720 400 OFFCURVE",
"815 322 OFFCURVE",
"815 190 CURVE SMOOTH",
"815 50 OFFCURVE",
"718 -30 OFFCURVE",
"550 -30 CURVE SMOOTH",
"442 -30 OFFCURVE",
"338 17 OFFCURVE",
"267 97 CURVE",
"253 83 LINE",
"328 -2 OFFCURVE",
"435 -50 OFFCURVE",
"550 -50 CURVE SMOOTH"
);
},
{
closed = 1;
nodes = (
"208 295 OFFCURVE",
"297 565 OFFCURVE",
"375 817 CURVE",
"355 823 LINE",
"263 526 OFFCURVE",
"175 256 OFFCURVE",
"91 13 CURVE",
"109 7 LINE"
);
},
{
closed = 1;
nodes = (
"397 645 OFFCURVE",
"517 670 OFFCURVE",
"800 670 CURVE",
"800 690 LINE",
"531 690 OFFCURVE",
"397 668 OFFCURVE",
"290 604 CURVE",
"300 586 LINE"
);
}
);
vertWidth = 1000;
width = 1000;
}
);
note = uni309F;
unicode = 309F;
},
{
glyphname = "a-kata";
lastChange = "2020-06-28 13:32:12 +0000";
layers = (
{
layerId = "53C12EC5-7AF6-4A76-BF07-F72C20CC49D7";
paths = (
{
closed = 1;
nodes = (
"484 82 OFFCURVE",
"520 223 OFFCURVE",
"520 530 CURVE",
"330 530 LINE",
"330 296 OFFCURVE",
"318 201 OFFCURVE",
"145 110 CURVE",
"250 -40 LINE"
);
},
{
closed = 1;
nodes = (
"935 595 LINE",
"935 760 LINE",
"105 760 LINE",
"105 595 LINE"
);
},
{
closed = 1;
nodes = (
"795 344 OFFCURVE",
"898 475 OFFCURVE",
"935 595 CURVE",
"740 625 LINE",
"721 551 OFFCURVE",
"659 478 OFFCURVE",
"555 405 CURVE",
"675 265 LINE"
);
}
);
vertWidth = 1000;
width = 1000;
},
{
layerId = "14B87609-B57D-449B-8E42-0E3479D6265D";
paths = (
{
closed = 1;
nodes = (
"397 74 OFFCURVE",
"480 250 OFFCURVE",
"480 590 CURVE",
"460 590 LINE",
"460 259 OFFCURVE",
"381 88 OFFCURVE",
"196 19 CURVE",
"204 1 LINE"
);
},
{
closed = 1;
nodes = (
"900 700 LINE",
"900 720 LINE",
"130 720 LINE",
"130 700 LINE"
);
},
{
closed = 1;
nodes = (
"762 433 OFFCURVE",
"857 543 OFFCURVE",
"900 700 CURVE",
"881 705 LINE",
"841 557 OFFCURVE",
"745 448 OFFCURVE",
"606 389 CURVE",
"614 371 LINE"
);
}
);
vertWidth = 1000;
width = 1000;
}
);
note = uni30A2;
unicode = 30A2;
},
{
glyphname = "asmall-kata";
lastChange = "2020-06-28 13:32:36 +0000";
layers = (
{
layerId = "53C12EC5-7AF6-4A76-BF07-F72C20CC49D7";
paths = (
{
closed = 1;
nodes = (
"487 61 OFFCURVE",
"516 174 OFFCURVE",
"516 420 CURVE",
"354 420 LINE",
"354 238 OFFCURVE",
"350 167 OFFCURVE",
"210 92 CURVE",
"300 -36 LINE"
);
},
{
closed = 1;
nodes = (
"848 462 LINE",
"848 604 LINE",
"184 604 LINE",
"184 462 LINE"
);
},
{
closed = 1;
nodes = (
"736 262 OFFCURVE",
"819 366 OFFCURVE",
"848 462 CURVE",
"685 494 LINE",
"668 433 OFFCURVE",
"619 374 OFFCURVE",
"538 318 CURVE",
"640 198 LINE"
);
}
);
vertWidth = 1000;
width = 1000;
},
{
layerId = "14B87609-B57D-449B-8E42-0E3479D6265D";
paths = (
{
closed = 1;
nodes = (
"420 54 OFFCURVE",
"486 195 OFFCURVE",
"486 468 CURVE",
"466 468 LINE",
"466 205 OFFCURVE",
"403 69 OFFCURVE",
"256 13 CURVE",
"264 -5 LINE"
);
},
{
closed = 1;
nodes = (
"820 554 LINE",
"820 574 LINE",
"204 574 LINE",
"204 554 LINE"
);
},
{
closed = 1;
nodes = (
"711 341 OFFCURVE",
"787 429 OFFCURVE",
"820 554 CURVE",
"801 559 LINE",
"768 439 OFFCURVE",
"696 356 OFFCURVE",
"584 309 CURVE",
"592 291 LINE"
);
}
);
vertWidth = 1000;
width = 1000;
}
);
note = uni30A1;
unicode = 30A1;
},
{
glyphname = "i-kata";
lastChange = "2020-06-28 11:55:53 +0000";
layers = (
{
layerId = "53C12EC5-7AF6-4A76-BF07-F72C20CC49D7";
paths = (
{
closed = 1;
nodes = (
"412 314 OFFCURVE",
"723 457 OFFCURVE",
"935 650 CURVE",
"820 785 LINE",
"632 610 OFFCURVE",
"355 484 OFFCURVE",
"75 445 CURVE",
"105 270 LINE"
);
},
{
closed = 1;
nodes = (
"655 -35 LINE",
"655 515 LINE",
"450 515 LINE",
"450 -35 LINE"
);
}
);
vertWidth = 1000;
width = 1000;
},
{
layerId = "14B87609-B57D-449B-8E42-0E3479D6265D";
paths = (
{
closed = 1;
nodes = (
"407 393 OFFCURVE",
"715 551 OFFCURVE",
"878 744 CURVE",
"862 756 LINE",
"702 565 OFFCURVE",
"400 411 OFFCURVE",
"109 370 CURVE",
"111 350 LINE"
);
},
{
closed = 1;
nodes = (
"570 -20 LINE",
"570 510 LINE",
"550 510 LINE",
"550 -20 LINE"
);
}
);
vertWidth = 1000;
width = 1000;
}
);
note = uni30A4;
unicode = 30A4;
},
{
glyphname = "ismall-kata";
lastChange = "2020-06-28 11:55:53 +0000";
layers = (
{
layerId = "53C12EC5-7AF6-4A76-BF07-F72C20CC49D7";
paths = (
{
closed = 1;
nodes = (
"429 237 OFFCURVE",
"677 351 OFFCURVE",
"848 506 CURVE",
"756 624 LINE",
"604 484 OFFCURVE",
"383 383 OFFCURVE",
"160 352 CURVE",
"184 202 LINE"
);
},
{
closed = 1;
nodes = (
"629 -32 LINE",
"629 408 LINE",
"455 408 LINE",
"455 -32 LINE"
);
}
);
vertWidth = 1000;
width = 1000;
},
{
layerId = "14B87609-B57D-449B-8E42-0E3479D6265D";
paths = (
{
closed = 1;
nodes = (
"425 307 OFFCURVE",
"673 435 OFFCURVE",
"804 590 CURVE",
"788 602 LINE",
"661 450 OFFCURVE",
"419 327 OFFCURVE",
"187 294 CURVE",
"189 274 LINE"
);
},
{
closed = 1;
nodes = (
"558 -20 LINE",
"558 404 LINE",
"538 404 LINE",
"538 -20 LINE"
);
}
);
vertWidth = 1000;
width = 1000;
}
);
note = uni30A3;
unicode = 30A3;
},
{
glyphname = "u-kata";
lastChange = "2020-06-28 11:55:53 +0000";
layers = (
{
layerId = "53C12EC5-7AF6-4A76-BF07-F72C20CC49D7";
paths = (
{
closed = 1;
nodes = (
"700 -12 OFFCURVE",
"900 158 OFFCURVE",
"900 480 CURVE SMOOTH",
"900 690 LINE",
"590 690 LINE",
"590 830 LINE",
"400 830 LINE",
"400 690 LINE",
"100 690 LINE",
"100 330 LINE",
"285 330 LINE",
"285 525 LINE",
"710 525 LINE",
"710 480 LINE SMOOTH",
"710 253 OFFCURVE",
"588 153 OFFCURVE",
"275 140 CURVE",
"300 -30 LINE"
);
}
);
vertWidth = 1000;
width = 1000;
},
{
layerId = "14B87609-B57D-449B-8E42-0E3479D6265D";
paths = (
{
closed = 1;
nodes = (
"660 14 OFFCURVE",
"860 203 OFFCURVE",
"860 510 CURVE SMOOTH",
"860 650 LINE",
"500 650 LINE",
"500 820 LINE",
"480 820 LINE",
"480 650 LINE",
"140 650 LINE",
"140 360 LINE",
"160 360 LINE",
"160 630 LINE",
"840 630 LINE",
"840 510 LINE SMOOTH",
"840 217 OFFCURVE",
"646 34 OFFCURVE",
"309 10 CURVE",
"311 -10 LINE"
);
}
);
vertWidth = 1000;
width = 1000;
}
);
note = uni30A6;
unicode = 30A6;
},
{
glyphname = "usmall-kata";
lastChange = "2020-06-28 11:55:53 +0000";
layers = (
{
layerId = "53C12EC5-7AF6-4A76-BF07-F72C20CC49D7";
paths = (
{
closed = 1;
nodes = (
"660 -13 OFFCURVE",
"820 123 OFFCURVE",
"820 380 CURVE SMOOTH",
"820 548 LINE",
"582 548 LINE",
"582 660 LINE",
"420 660 LINE",
"420 548 LINE",
"180 548 LINE",
"180 260 LINE",
"338 260 LINE",
"338 406 LINE",
"658 406 LINE",
"658 380 LINE SMOOTH",
"658 208 OFFCURVE",
"560 129 OFFCURVE",
"315 118 CURVE",
"340 -28 LINE"
);
}
);
vertWidth = 1000;
width = 1000;
},
{
layerId = "14B87609-B57D-449B-8E42-0E3479D6265D";
paths = (
{
closed = 1;
nodes = (
"629 6 OFFCURVE",
"790 159 OFFCURVE",
"790 404 CURVE SMOOTH",
"790 518 LINE",
"502 518 LINE",
"502 652 LINE",
"482 652 LINE",
"482 518 LINE",
"210 518 LINE",
"210 284 LINE",
"230 284 LINE",
"230 498 LINE",
"770 498 LINE",
"770 404 LINE SMOOTH",
"770 169 OFFCURVE",
"616 25 OFFCURVE",
"347 6 CURVE",
"349 -14 LINE"
);
}
);
vertWidth = 1000;
width = 1000;
}
);
note = uni30A5;
unicode = 30A5;
},
